<?xml version="1.0" standalone="no"?>
<!DOCTYPE svg PUBLIC "-//W3C//DTD SVG 1.1//EN" "http://www.w3.org/Graphics/SVG/1.1/DTD/svg11.dtd" >
<svg>
<metadata>
Created by FontForge 20090914 at Mon Apr  4 16:19:51 2016
 By www-data
Copyright (c) 2010 by Kimberly Geswein. All rights reserved.
</metadata>
<defs>
<font id="LaBelleAurore" horiz-adv-x="335" >
  <font-face 
    font-family="La Belle Aurore"
    font-weight="400"
    font-stretch="normal"
    units-per-em="1000"
    panose-1="0 0 0 0 0 0 0 0 0 0"
    ascent="800"
    descent="-200"
    x-height="354.999"
    cap-height="645.997"
    bbox="-349 -776.326 1681 1229"
    underline-thickness="50"
    underline-position="-50"
    unicode-range="U+0020-U+FB02"
  />
<missing-glyph horiz-adv-x="500" 
 />
    <glyph glyph-name=".notdef" horiz-adv-x="500" 
 />
    <glyph glyph-name="space" unicode=" " horiz-adv-x="500" 
 />
    <glyph glyph-name="space" unicode="&#xa0;" horiz-adv-x="500" 
 />
    <glyph glyph-name="exclam" unicode="!" horiz-adv-x="378" 
d="M132 63c0 1.33301 1.66699 3.66699 5 7s6 5.33301 8 6s6.66699 1.16699 14 1.5s15 0.833008 23 1.5s15.667 1.16699 23 1.5s12.333 0.5 15 0.5c0 -18 -3.16699 -35 -9.5 -51s-19.833 -26 -40.5 -30c-8 -1.33301 -14.5 0.666992 -19.5 6s-8.83301 11.833 -11.5 19.5
s-4.5 15.167 -5.5 22.5s-1.5 12.333 -1.5 15zM169 422.001c0 19.333 2.33398 37.833 7.00098 55.5s10.167 35.167 16.5 52.5s13.166 34.5 20.499 51.5s14 34.167 20 51.5l13.5 42.5l19.5 64.5l19 65c6 20.667 10 35 12 43c2.66699 18 11 30.667 25 38s28.667 11 44 11
c0 -46.667 -7 -91 -21 -133s-30.167 -83.167 -48.5 -123.5l-53.5 -121.5c-17.333 -40.667 -29 -83 -35 -127h-6c-22 0 -33 10 -33 30z" />
    <glyph glyph-name="quotedbl" unicode="&#x22;" horiz-adv-x="354" 
d="M18 702c0 18.667 2.49805 38.8301 7.49805 60.4971s12.667 41.834 23 60.501s23.666 34.167 39.999 46.5s35.833 18.5 58.5 18.5c0 -18 -3.33301 -34.833 -10 -50.5s-14.167 -31 -22.5 -46s-15.833 -30.167 -22.5 -45.5s-10 -31.666 -10 -48.999
c0 -7.33301 1.33301 -13 4 -17s5.83398 -8 9.50098 -12s6.83398 -8.16699 9.50098 -12.5s4 -10.166 4 -17.499c0 -3.33301 -0.166992 -7 -0.5 -11s-1.16602 -7.5 -2.49902 -10.5s-4 -5.5 -8 -7.5s-9.33301 -2.33301 -16 -1c-15.333 2.66699 -27.333 6.66699 -36 12
s-15 12 -19 20s-6.5 17.333 -7.5 28s-1.5 22 -1.5 34zM207.998 759.996c0 18.667 2.33203 36.5 6.99902 53.5s12 31.833 22 44.5s22.833 22.667 38.5 30s34.167 11 55.5 11c0 -18 -4.83301 -32.5 -14.5 -43.5l-30.5 -36c-10.667 -13 -19.167 -29.667 -25.5 -50
s-6.5 -48.833 -0.5 -85.5c0 -2 -1.66699 -4.66699 -5 -8s-6 -5 -8 -5c-11.333 0 -19.666 3.5 -24.999 10.5s-9 15.333 -11 25s-3 19.5 -3 29.5v24z" />
    <glyph glyph-name="numbersign" unicode="#" horiz-adv-x="703" 
d="M296 342c-12 -12.667 -20.4961 -25.166 -25.4961 -37.499s-8.33301 -23.666 -10 -33.999s-2.33398 -19.333 -2.00098 -27s-0.333984 -13 -2.00098 -16s-5.33398 -3.33301 -11.001 -1s-14.834 8.5 -27.501 18.5l5 103h-177c-1.33301 0 -3.5 2.5 -6.5 7.5
s-5.16699 8.83301 -6.5 11.5c0 0.666992 -0.166992 1.66699 -0.5 3s-0.5 2.66602 -0.5 3.99902c0 12.667 5 20.667 15 24s22.833 4.66602 38.5 3.99902s33 -1.83398 52 -3.50098s37.333 -0.666992 55 3s33.834 11.334 48.501 23.001s25.667 30.5 33 56.5h-203
c-3.33301 0 -6.16602 1.5 -8.49902 4.5s-4 6.5 -5 10.5s-1.66699 7.83301 -2 11.5s-0.5 6.16699 -0.5 7.5c48.667 0 89.5 1.83301 122.5 5.5s61 12.5 84 26.5s43.167 34.833 60.5 62.5s35 65.167 53 112.5h6c9.33301 0 17.166 -1.66699 23.499 -5s9.5 -9.66602 9.5 -18.999
c0 -12.667 -2.5 -24.667 -7.5 -36s-10.5 -22.333 -16.5 -33l-16.5 -30.5c-5 -9.66699 -7.5 -18.834 -7.5 -27.501c36 0 64.667 5.83301 86 17.5s38.666 27.667 51.999 48s24.333 44.333 33 72l28 89.5h41c0 -14.667 -3.5 -31 -10.5 -49s-15 -36.333 -24 -55l-26.5 -54
c-8.66699 -17.333 -14.667 -32.333 -18 -45c1.33301 0 3.33301 -0.166992 6 -0.5s4.66699 -0.5 6 -0.5c20.667 0 41 2.33301 61 7s40.333 7 61 7c12.667 0 23.334 -1 32.001 -3s13 -10.333 13 -25c0 -1.33301 -0.166992 -3.33301 -0.5 -6s-0.833008 -4 -1.5 -4l-190 -38
c-8 -2 -14.833 -8.33301 -20.5 -19s-10.5 -23 -14.5 -37s-7.33301 -27.667 -10 -41l-6 -30h143c0 -5.33301 -0.833008 -12.333 -2.5 -21s-6.16699 -14.334 -13.5 -17.001c-4.66699 0 -13 -0.5 -25 -1.5s-24.833 -2.16699 -38.5 -3.5s-26.5 -2.66602 -38.5 -3.99902
s-20.333 -2.33301 -25 -3c-14.667 -2.66699 -24.834 -9.16699 -30.501 -19.5s-10.5 -21.333 -14.5 -33s-8.66699 -22 -14 -31s-15 -13.5 -29 -13.5v84h-79zM432.004 520.001c-16.667 0 -32.5 -1.33496 -47.5 -4.00195s-28 -7.66699 -39 -15s-19.833 -17.666 -26.5 -30.999
s-10 -30.666 -10 -51.999h104c0.666992 0 2.5 3.33301 5.5 10s5.16699 11.667 6.5 15c1.33301 2.66699 3.33301 7.66699 6 15l8 23l7.5 23c2.33301 7.33301 3.83301 12.333 4.5 15c-1.33301 0 -4.5 0.166992 -9.5 0.5s-8.16699 0.5 -9.5 0.5z" />
    <glyph glyph-name="dollar" unicode="$" horiz-adv-x="575" 
d="M164 -23c0.666992 4 1.17285 8.00098 1.50586 12.001s1.16602 8 2.49902 12c-26 4 -49.167 12.667 -69.5 26s-37.5 29.833 -51.5 49.5s-24.5 41.5 -31.5 65.5s-10.5 48.667 -10.5 74c0 10.667 0.666992 22.167 2 34.5s4.33301 23.833 9 34.5s11.334 19.5 20.001 26.5
s20.334 10.5 35.001 10.5c0 -8.66699 -0.833008 -16.5 -2.5 -23.5s-3.5 -14 -5.5 -21s-3.83301 -14.5 -5.5 -22.5s-2.5 -17 -2.5 -27c0 -44 9.83301 -81.833 29.5 -113.5s50.5 -51.834 92.5 -60.501l18 108l21 122.5l22 128.5l22 128c-13.333 16.667 -24.333 32.5 -33 47.5
s-13 28.5 -13 40.5c0.666992 21.333 7.83398 40.166 21.501 56.499s32.167 29.166 55.5 38.499l14 83c3.33301 13.333 6.66602 21.833 9.99902 25.5s7.66602 5.5 12.999 5.5c9.33301 0 14 -10.333 14 -31c-0.666992 -6.66699 -1.5 -16 -2.5 -28s-2.5 -26.333 -4.5 -43
c27.333 4.66699 58.666 5 93.999 1l9 50c3.33301 13.333 6.66602 21.833 9.99902 25.5s7.66602 5.5 12.999 5.5c9.33301 0 14 -10.333 14 -31l-6 -58c13.333 -3.33301 26.666 -7.33301 39.999 -12s26.666 -10 39.999 -16c17.333 -4.66699 27.333 -11 30 -19
s1.66699 -16.167 -3 -24.5s-11.167 -16.666 -19.5 -24.999s-14.833 -15.166 -19.5 -20.499c-7.33301 15.333 -17.666 27.333 -30.999 36s-28.333 14.667 -45 18l-16 -103.5l-20 -123.5c24 -24 44.833 -47 62.5 -69s26.5 -41 26.5 -57
c0 -66.667 -14.167 -124.167 -42.5 -172.5s-68.5 -84.833 -120.5 -109.5l-18 -90c-1.33301 -8.66699 -4.83301 -16 -10.5 -22s-10.834 -9 -15.501 -9c-3.33301 0 -5.83301 3.33301 -7.5 10s-2.5 13.667 -2.5 21v16l9 57c-30 -9.33301 -63 -14.333 -99 -15l-7 -38
c-1.33301 -8.66699 -4.83301 -16 -10.5 -22s-10.834 -9 -15.501 -9c-3.33301 0 -5.83301 3.33301 -7.5 10s-2.5 13.667 -2.5 21v16zM374.006 414.001l-37.499 41l-37.5 41l-37.5 -214l-43.5 -231c12.667 0.666992 28.167 4 46.5 10s36.166 12.667 53.499 20z
M309.007 560.001c10 -12.667 21.665 -25.833 34.998 -39.5l41 -42.5l33 193c-17.333 0.666992 -34.166 -0.5 -50.499 -3.5s-31.166 -7.16699 -44.499 -12.5zM450.005 290.002c0 11.333 -3.33301 23.332 -10 35.999s-15.667 26.334 -27 41.001l-22.5 -129
c-7.66699 -44 -16.167 -89 -25.5 -135l21 11c14 8 25.167 19 33.5 33s14.833 29.333 19.5 46s7.66699 33.5 9 50.5s2 32.5 2 46.5z" />
    <glyph glyph-name="percent" unicode="%" horiz-adv-x="620" 
d="M164 26v6.49414c0 3 0.333008 4.83301 1 5.5l240 418c0.666992 0 1.16699 2.83301 1.5 8.5s0.5 10.167 0.5 13.5c0 20.667 -4.83301 34.834 -14.5 42.501s-26.5 11.5 -50.5 11.5c-45.333 0 -80.5 -4.66699 -105.5 -14s-43.833 -21.166 -56.5 -35.499
s-21.5 -29.666 -26.5 -45.999s-10.167 -31.666 -15.5 -45.999s-12.833 -26.166 -22.5 -35.499s-25.5 -14 -47.5 -14c-16 0 -29.333 5.5 -40 16.5s-16 24.167 -16 39.5c0 24.667 5 46.334 15 65.001s23.5 35 40.5 49s36.167 25.667 57.5 35s43.166 16.833 65.499 22.5
s44.5 9.66699 66.5 12s41.667 3.5 59 3.5c14.667 0 29.5 -0.666992 44.5 -2s28.667 -4.5 41 -9.5s22.5 -12.667 30.5 -23s12 -24.166 12 -41.499c0 -9.33301 -0.166992 -18 -0.5 -26s-1 -15.833 -2 -23.5s-2.33301 -15.834 -4 -24.501s-3.83398 -18.334 -6.50098 -29.001
l-45.5 -92.5l-51.5 -100c-18 -33.667 -36.833 -66.667 -56.5 -99s-40.167 -61.833 -61.5 -88.5c-5.33301 -6 -10.166 -11.833 -14.499 -17.5s-10.166 -8.5 -17.499 -8.5s-12.5 2.83301 -15.5 8.5s-4.5 11.834 -4.5 18.501zM417 74.9941c0 18.667 4.33301 35.667 13 51
s19.5 29.666 32.5 42.999s26.833 25.833 41.5 37.5s28.334 23.167 41.001 34.5c1.33301 0 3.33301 0.166992 6 0.5s4.66699 0.5 6 0.5c8 0 14.667 -2.16699 20 -6.5s9.5 -9.83301 12.5 -16.5s5 -13.667 6 -21s1.5 -14.333 1.5 -21c0 -15.333 -3 -31.833 -9 -49.5
s-14.333 -34.167 -25 -49.5s-22.834 -28.166 -36.501 -38.499s-28.5 -15.5 -44.5 -15.5c-19.333 0 -35 3.5 -47 10.5s-18 20.5 -18 40.5zM537 178.994c-13.333 0 -24.668 -2.83301 -34.001 -8.5s-16.833 -13 -22.5 -22s-9.66699 -19 -12 -30s-3.5 -22.167 -3.5 -33.5
c9.33301 0 18.333 3.33301 27 10s16.334 15 23.001 25s12 20.333 16 31s6 20 6 28z" />
    <glyph glyph-name="ampersand" unicode="&#x26;" horiz-adv-x="557" 
d="M190 127c-15.333 0.666992 -33.335 3.33594 -54.002 8.00293s-40.167 11.667 -58.5 21s-33.833 21.5 -46.5 36.5s-19 33.167 -19 54.5c0 12 3 21.167 9 27.5s13.333 10.666 22 12.999s18 3.66602 28 3.99902s19 0.5 27 0.5c22 0 39.167 -1.5 51.5 -4.5
s21.833 -7 28.5 -12s11.334 -11 14.001 -18s5.66699 -14.167 9 -21.5s7.66602 -15 12.999 -23s14.333 -15.667 27 -23c9.33301 6 18.333 17.167 27 33.5s17.167 34.833 25.5 55.5s16.333 42.167 24 64.5s15.334 42.833 23.001 61.5s15.334 34 23.001 46s15.167 18 22.5 18
c6.66699 0 11.5 -1.83301 14.5 -5.5s5 -8.16699 6 -13.5s1.33301 -10.666 1 -15.999s-0.5 -10 -0.5 -14c0 -3.33301 -0.166992 -8.5 -0.5 -15.5s-0.833008 -11.167 -1.5 -12.5l-88 -177v-11c22 0 44.167 6.16699 66.5 18.5s43.333 25.666 63 39.999l53 40
c15.667 12.333 28.5 18.5 38.5 18.5c0 -20.667 -5.83301 -39.167 -17.5 -55.5s-26.5 -30.833 -44.5 -43.5s-37.5 -23.834 -58.5 -33.501s-40.5 -18.167 -58.5 -25.5s-33.5 -14 -46.5 -20s-20.167 -11.333 -21.5 -16l-37 -127c0 -0.666992 -1.5 -1 -4.5 -1h-6.5
c-3.33301 0 -7.83301 0.666992 -13.5 2s-11.5 3 -17.5 5s-11.167 4.66699 -15.5 8s-6.5 7 -6.5 11v102zM70.998 245.002c0 -10.667 4.33301 -19.498 13 -26.498s19 -12.5 31 -16.5s24 -7 36 -9s21 -3 27 -3c0 0.666992 0.166992 1.66699 0.5 3s0.5 2.33301 0.5 3
c0 11.333 -4.5 20.166 -13.5 26.499s-19.5 11.166 -31.5 14.499s-24 5.5 -36 6.5s-21 1.5 -27 1.5z" />
    <glyph glyph-name="quotesingle" unicode="'" horiz-adv-x="275" 
d="M256 475c0 -9.33301 -1.16406 -19.334 -3.49707 -30.001s-6.5 -20.5 -12.5 -29.5s-13.833 -16.5 -23.5 -22.5s-21.834 -9 -36.501 -9c0 8.66699 1 16.834 3 24.501s4.16699 15.167 6.5 22.5s4.5 15 6.5 23s3 17 3 27c0 20 -3.16699 35.667 -9.5 47s-13.333 20.5 -21 27.5
s-14.667 12.333 -21 16s-9.5 8.16699 -9.5 13.5c0 6 1.66699 11.5 5 16.5s9.66602 7.5 18.999 7.5c17.333 0 32 -5 44 -15s21.667 -22 29 -36s12.666 -28.667 15.999 -44s5 -28.333 5 -39z" />
    <glyph glyph-name="parenleft" unicode="(" horiz-adv-x="234" 
d="M18 132c0 14.667 2.33398 36.1689 7.00098 64.502s11.334 59.333 20.001 93s19 68 31 103s25.5 67 40.5 96s31 52.667 48 71s34.833 27.5 53.5 27.5c0 -21.333 -1.66699 -37 -5 -47s-7.83301 -18.667 -13.5 -26s-12.167 -14.833 -19.5 -22.5s-14.666 -19.5 -21.999 -35.5
l-32 -71c-10.667 -24 -20.334 -48.333 -29.001 -73s-15.667 -49.667 -21 -75s-8 -51 -8 -77c0 -23.333 3.5 -42.5 10.5 -57.5s14.5 -27.5 22.5 -37.5s15.5 -18.333 22.5 -25s10.5 -13.334 10.5 -20.001c0 -8 -2.66699 -13.5 -8 -16.5s-11.333 -4.5 -18 -4.5
c-18 0 -32.833 4.33301 -44.5 13s-20.834 19.667 -27.501 33s-11.334 27.666 -14.001 42.999s-4 30 -4 44z" />
    <glyph glyph-name="parenright" unicode=")" horiz-adv-x="323" 
d="M13 13c32.667 20.667 62.8291 44.1611 90.4961 70.4941s51.834 54.833 72.501 85.5s36.834 63.334 48.501 98.001s17.5 71.334 17.5 110.001c0 32.667 -4.33301 63.834 -13 93.501s-21.667 58.5 -39 86.5c-4 6.66699 -9 11.667 -15 15s-12 6.5 -18 9.5
s-11 6.83301 -15 11.5s-6 12 -6 22c36.667 0 66 -9.66699 88 -29s39 -43.5 51 -72.5s19.833 -60.167 23.5 -93.5s5.5 -63.666 5.5 -90.999c0 -16 -4.66699 -35.167 -14 -57.5s-21.666 -45.666 -36.999 -69.999s-32.833 -48.666 -52.5 -72.999s-39.5 -46 -59.5 -65
s-39.5 -34.5 -58.5 -46.5s-35.833 -18 -50.5 -18c-5.33301 0 -9.16602 1 -11.499 3s-4.83301 5.66699 -7.5 11z" />
    <glyph glyph-name="asterisk" unicode="*" horiz-adv-x="690" 
d="M216 190c-6 -5.33301 -13.832 -11.5078 -23.499 -18.5078s-19.834 -10.5 -30.501 -10.5c0 12.667 1.83301 24.834 5.5 36.501s7.66699 23.167 12 34.5s8.33301 22.833 12 34.5s5.5 24.167 5.5 37.5h-171c-5.33301 0 -9 2.33301 -11 7s-3 8.66699 -3 12v3
c0 0.666992 0.333008 1.66699 1 3c10 0.666992 22.833 1.66699 38.5 3s32 3.33301 49 6s33.5 6.33398 49.5 11.001s29.333 10.667 40 18v2c0 0.666992 0.166992 1.16699 0.5 1.5s0.5 0.833008 0.5 1.5c0 8.66699 -1.5 16.834 -4.5 24.501s-6.33301 14.834 -10 21.501
s-7 13.334 -10 20.001s-4.5 13.667 -4.5 21c8 0 15.167 -2.16699 21.5 -6.5s12.5 -9 18.5 -14s12.167 -9.66699 18.5 -14s13.166 -6.5 20.499 -6.5c5.33301 0 10.333 5.16699 15 15.5s9.16699 23 13.5 38l14 49.5c5 18 10.833 34.5 17.5 49.5s14.334 27.667 23.001 38
s19 15.5 31 15.5v-92c8 15.333 18.833 27 32.5 35s28.834 12 45.501 12c0 -13.333 -3.5 -27.666 -10.5 -42.999s-15.333 -30.333 -25 -45s-19.667 -28.5 -30 -41.5l-25.5 -31.5c2.66699 0 8 -0.166992 16 -0.5s13.333 -0.5 16 -0.5c24.667 0 49.667 1.33301 75 4
s50.5 5.83398 75.5 9.50098s50.167 6.83398 75.5 9.50098s50.666 4 75.999 4c0 -6.66699 -6.66699 -13.167 -20 -19.5s-30.5 -12.5 -51.5 -18.5s-44.5 -11.833 -70.5 -17.5l-76 -16.5c-24.667 -5.33301 -47.334 -10.5 -68.001 -15.5s-36.667 -9.83301 -48 -14.5
c11.333 -15.333 26.5 -28.5 45.5 -39.5s37.5 -22.5 55.5 -34.5s33.667 -25.167 47 -39.5s20 -32.166 20 -53.499c-21.333 0 -41 4.66699 -59 14s-35.667 20.333 -53 33l-52 38.5c-17.333 13 -35.666 23.167 -54.999 30.5c-4 -9.33301 -6.5 -21.833 -7.5 -37.5
s-2.16699 -31 -3.5 -46s-4.33301 -28.167 -9 -39.5s-12.667 -17 -24 -17c-4 0 -7.66699 1.5 -11 4.5s-6.33301 6.66699 -9 11s-5 8.66602 -7 12.999s-3.33301 7.83301 -4 10.5z" />
    <glyph glyph-name="plus" unicode="+" horiz-adv-x="487" 
d="M164 164c0 17.333 2.00098 34.332 6.00098 50.999s6 33.667 6 51h-138c-9.33301 0 -16.333 2.66699 -21 8s-7 11.666 -7 18.999c0 2 0.333008 4.33301 1 7s1.33398 4 2.00098 4l190 38c4 0.666992 7.5 3.66699 10.5 9s5.66699 11 8 17s4 11.667 5 17l1.5 8
c0.666992 2.66699 1.66699 7.66699 3 15l4 23c1.33301 8 2.66602 15.5 3.99902 22.5s2 12.167 2 15.5h3c0.666992 0 1.16699 0.166992 1.5 0.5s0.833008 0.5 1.5 0.5c11.333 0 21.666 -4.66699 30.999 -14s14 -19.666 14 -30.999c0 -4.66699 -1.16699 -10.167 -3.5 -16.5
s-5 -12.833 -8 -19.5l-8.5 -19c-2.66699 -6 -4.66699 -11 -6 -15c2.66699 0 8 -0.166992 16 -0.5s13.333 -0.5 16 -0.5c27.333 0 54 2.33301 80 7s52.667 7 80 7c6 0 11.667 -1.5 17 -4.5s8 -8.16699 8 -15.5c0 -4 -3 -7.66699 -9 -11s-12.833 -6.5 -20.5 -9.5
s-15 -5.5 -22 -7.5s-11.5 -3 -13.5 -3c-6 -1.33301 -16.833 -3.16602 -32.5 -5.49902l-50 -7.5l-49.5 -7.5c-15.333 -2.33301 -26 -3.83301 -32 -4.5l-38 -152c-2 -7.33301 -5.5 -11.5 -10.5 -12.5s-10.167 -1.5 -15.5 -1.5c-12.667 0 -20.167 3.5 -22.5 10.5
s-3.5 16.167 -3.5 27.5z" />
    <glyph glyph-name="comma" unicode="," horiz-adv-x="296" 
d="M208 93c0 9.33301 -0.998047 16.834 -2.99805 22.501s-4 10.834 -6 15.501l-6 14.5c-2 5 -3 12.167 -3 21.5c12 0 24.5 -1.83301 37.5 -5.5s23.167 -11.167 30.5 -22.5c0 -2 0.166992 -5.33301 0.5 -10s0.666016 -9.83398 0.999023 -15.501
s0.666016 -10.834 0.999023 -15.501s0.5 -8 0.5 -10c0 -24 -6.16699 -48.833 -18.5 -74.5s-28.333 -49 -48 -70s-42 -38.167 -67 -51.5s-50.5 -20 -76.5 -20c0 14 8.16699 27.833 24.5 41.5l54 45c19.667 16.333 37.667 35.333 54 57s24.5 47.5 24.5 77.5z" />
    <glyph glyph-name="hyphen" unicode="-" horiz-adv-x="409" 
d="M74 254c18 2 37.166 4.33496 57.499 7.00195l63 8.5c21.667 3 43 5.5 64 7.5s40.833 3 59.5 3c5.33301 0 11 0.166992 17 0.5s11.833 -0.166992 17.5 -1.5s10.667 -3.83301 15 -7.5s7.5 -9.5 9.5 -17.5c-4 -7.33301 -12 -13.833 -24 -19.5s-26 -10.334 -42 -14.001
s-33.167 -6.66699 -51.5 -9s-35.333 -4.33301 -51 -6s-29.167 -2.66699 -40.5 -3s-18 -0.5 -20 -0.5c-5.33301 0 -12.166 0.5 -20.499 1.5s-16.5 2.66699 -24.5 5s-14.833 5.16602 -20.5 8.49902s-8.5 7 -8.5 11v26v0z" />
    <glyph glyph-name="period" unicode="." horiz-adv-x="258" 
d="M137 80h24.5c10.333 0 20.5 -1 30.5 -3s18.5 -5.33301 25.5 -10s10.5 -11.667 10.5 -21c0 -14 -4 -25.333 -12 -34s-19 -13 -33 -13h-10.5c-5 0 -10.167 0.5 -15.5 1.5s-10 2.5 -14 4.5s-6 4.66699 -6 8v67v0z" />
    <glyph glyph-name="slash" unicode="/" horiz-adv-x="443" 
d="M18 33c0 10 1.16895 18.332 3.50195 24.999s9.83301 12.667 22.5 18l24.5 43l37.5 65l44.5 76l45 76l38.5 64.5l26 42.5c6.66699 11.333 15.667 25.5 27 42.5s24 34.667 38 53s28.333 35.833 43 52.5s29 30.667 43 42c1.33301 0.666992 4 1.5 8 2.5s6.66699 1.5 8 1.5
c0 -10 -4.33301 -24.333 -13 -43s-20 -39.5 -34 -62.5l-46.5 -73l-49.5 -74.5l-44.5 -67c-13.667 -20.667 -23.834 -37.667 -30.501 -51l-28.5 -55.5l-38 -71.5c-13.667 -24.667 -27.834 -48.334 -42.501 -71.001s-29 -41 -43 -55c-2 -2 -6.33301 -4.66699 -13 -8
s-10.667 -5 -12 -5c-4 0 -7 1.33301 -9 4s-3.33301 5.83398 -4 9.50098s-1 7.33398 -1 11.001v8.5z" />
    <glyph glyph-name="zero" unicode="0" horiz-adv-x="456" 
d="M12 127c0 0.666992 0.168945 2.49805 0.501953 5.49805s0.5 5.16699 0.5 6.5c14 46 29.167 93.167 45.5 141.5s35.666 95.333 57.999 141s48.5 88 78.5 127s66 71.833 108 98.5c7.33301 0 12.166 -0.666992 14.499 -2s6.16602 -5.33301 11.499 -12
c16.667 -22 31.334 -42.167 44.001 -60.5s23.334 -37.166 32.001 -56.499s15.167 -39.833 19.5 -61.5s6.5 -46.5 6.5 -74.5c-0.666992 -30 -6.16699 -60.667 -16.5 -92s-24.5 -61.666 -42.5 -90.999s-39 -56.5 -63 -81.5s-50 -46.167 -78 -63.5s-57.333 -29.833 -88 -37.5
s-61.334 -8.16699 -92.001 -1.5c-8 5.33301 -14.667 12.666 -20 21.999s-9.33301 19.5 -12 30.5s-4.5 21.833 -5.5 32.5s-1.5 20.334 -1.5 29.001zM76.002 93.998c0 -5.33301 1.33203 -9.33496 3.99902 -12.002s6 -4.5 10 -5.5s8.16699 -1.5 12.5 -1.5h12.5
c36.667 0 70.667 11.5 102 34.5s58.333 51.333 81 85s40.334 69.5 53.001 107.5s19 72.333 19 103c0 20.667 -0.833008 38.667 -2.5 54s-5.33398 29.5 -11.001 42.5s-13.667 25.833 -24 38.5s-24.166 26.667 -41.499 42c-16.667 -12 -33.5 -30 -50.5 -54
s-33.5 -51.167 -49.5 -81.5s-31 -62.5 -45 -96.5s-26.167 -67.167 -36.5 -99.5s-18.5 -62.166 -24.5 -89.499s-9 -49.666 -9 -66.999z" />
    <glyph glyph-name="one" unicode="1" horiz-adv-x="272" 
d="M18 25c0 1.33301 0.168945 3.5 0.501953 6.5s0.5 5.16699 0.5 6.5l45.5 129.5l49.5 145.5l50 145.5l47 129.5c5.33301 10.667 10.666 17.667 15.999 21s12.666 5 21.999 5c17.333 0 26 -8.66699 26 -26c-1.33301 -15.333 -5.83301 -39.333 -13.5 -72
s-19.167 -73 -34.5 -121s-35 -103.167 -59 -165.5s-52.667 -130.5 -86 -204.5c-2.66699 -7.33301 -9 -13.5 -19 -18.5s-18.333 -7.5 -25 -7.5c-7.33301 0 -12.5 2.83301 -15.5 8.5s-4.5 11.5 -4.5 17.5z" />
    <glyph glyph-name="two" unicode="2" horiz-adv-x="519" 
d="M23 38c0 2 0.333008 6.16895 1 12.502s1.33398 10.5 2.00098 12.5c38 32 70.5 62 97.5 90s52 56.5 75 85.5s45.5 59.833 67.5 92.5l76 112c16 31.333 23.5 52.333 22.5 63s-7.5 14.667 -19.5 12s-28 -9.66699 -48 -21l-63.5 -36.5c-22.333 -13 -44.5 -24.5 -66.5 -34.5
s-41 -14.333 -57 -13c0 9.33301 5 20.166 15 32.499s23 24.666 39 36.999s34 24.5 54 36.5s39.5 22.833 58.5 32.5s36.667 17.334 53 23.001s29.166 8.5 38.499 8.5c7.33301 0 14.833 -1.5 22.5 -4.5s14.5 -7 20.5 -12s11 -11 15 -18s6 -14.5 6 -22.5
c0 -22.667 -5.66699 -46.667 -17 -72s-25.5 -50.5 -42.5 -75.5s-35.5 -49.167 -55.5 -72.5l-55.5 -64.5c-17 -19.667 -31.167 -36.834 -42.5 -51.501s-17 -25.334 -17 -32.001c24 -16.667 46.667 -31 68 -43c18 -10.667 35.5 -20.334 52.5 -29.001s29.167 -13 36.5 -13
c13.333 0 25.333 2.16699 36 6.5s21 8 31 11s20.333 4 31 3s23 -6.83301 37 -17.5c0 -0.666992 -2.33301 -3 -7 -7l-17 -14l-21 -16.5l-18 -13.5c-16.667 -10.667 -32.667 -17.167 -48 -19.5s-30.333 -1.83301 -45 1.5s-29 8.83301 -43 16.5s-27.833 15.667 -41.5 24l-41 24
c-13.667 7.66699 -27.834 13.834 -42.501 18.501c-17.333 0 -30.166 -4.66699 -38.499 -14s-15.5 -19.833 -21.5 -31.5s-12.667 -22.167 -20 -31.5s-18.333 -14 -33 -14s-24 3.33301 -28 10s-6 16.334 -6 29.001z" />
    <glyph glyph-name="three" unicode="3" horiz-adv-x="563" 
d="M19 152c0 7.33301 3.33301 11.5029 10 12.5029s11.667 1.5 15 1.5c10 0 18.5 -2.83301 25.5 -8.5s13.333 -12.834 19 -21.501s11.167 -18.167 16.5 -28.5s11.333 -19.833 18 -28.5s14.667 -15.834 24 -21.501s20.666 -8.5 33.999 -8.5c33.333 0 65.5 7.33301 96.5 22
s58.333 34.167 82 58.5s42.5 52.333 56.5 84s21 64.167 21 97.5c0 14 -3.33301 27 -10 39s-18.334 18 -35.001 18c-0.666992 0 -1.66699 -0.166992 -3 -0.5s-2.33301 -0.5 -3 -0.5c-2 -0.666992 -6.66699 -3 -14 -7l-24 -12.5l-24 -12
c-7.33301 -3.66699 -12 -5.83398 -14 -6.50098c-1.33301 -0.666992 -4.66602 -0.166992 -9.99902 1.5s-10.833 3.83398 -16.5 6.50098s-10.834 5.5 -15.501 8.5s-7.33398 5.83301 -8.00098 8.5c9.33301 14.667 23.166 30.834 41.499 48.501l57 52.5l55 49
c17 15.333 28.833 28.666 35.5 39.999c0 17.333 -4.33301 26.833 -13 28.5s-20 -0.166016 -34 -5.49902s-29.667 -12.166 -47 -20.499s-34.666 -13.5 -51.999 -15.5h-3c-0.666992 0 -1.66699 0.333008 -3 1s-3.83301 2.16699 -7.5 4.5l-11.5 7.5l-11 7.5
c-3.33301 2.33301 -5.66602 4.16602 -6.99902 5.49902c10.667 14 23.834 27.167 39.501 39.5s32.5 23.166 50.5 32.499s36.333 16.666 55 21.999s36.667 8 54 8c26 0 46 -3.33301 60 -10s21 -24 21 -52c0 -2 -0.666992 -5.16699 -2 -9.5s-5.16602 -12.333 -11.499 -24
s-16.5 -28.167 -30.5 -49.5s-33.667 -49.333 -59 -84c15.333 -12 29.833 -27.5 43.5 -46.5s20.5 -39.167 20.5 -60.5c0 -42 -8.5 -82.5 -25.5 -121.5s-39.667 -73.5 -68 -103.5s-61.333 -54 -99 -72s-77.167 -27 -118.5 -27c-22 0 -43.333 3.33301 -64 10s-39 16.5 -55 29.5
s-28.667 29 -38 48s-14 40.833 -14 65.5z" />
    <glyph glyph-name="four" unicode="4" horiz-adv-x="589" 
d="M165 13c13.333 16.667 26.667 36.165 40 58.498s26 45 38 68s23.167 45.5 33.5 67.5l27.5 59v3c0 0.666992 0.166992 1.16699 0.5 1.5s0.5 0.833008 0.5 1.5c0 10 -5 17.5 -15 22.5s-21.5 8.16699 -34.5 9.5s-26 1.83301 -39 1.5s-22.167 -0.5 -27.5 -0.5
c-24.667 0 -43.167 -4 -55.5 -12s-22.5 -17 -30.5 -27l-22 -27c-6.66699 -8 -16.667 -12 -30 -12c-9.33301 0 -18.166 2.83301 -26.499 8.5s-12.5 13.5 -12.5 23.5c0 4.66699 5.66699 16.334 17 35.001s26 40.667 44 66l59 80c21.333 28 42.166 53.833 62.499 77.5
s38.666 43.167 54.999 58.5s28.166 23 35.499 23c0 -18.667 -3.5 -37.5 -10.5 -56.5s-15.833 -38.167 -26.5 -57.5s-22.334 -38.833 -35.001 -58.5s-24.334 -39.5 -35.001 -59.5c0 -0.666992 3.33301 -1.5 10 -2.5s14.667 -2.33301 24 -4s19 -3 29 -4l25 -2.5h41
c1.33301 0 4.33301 -0.333008 9 -1s9.83398 -0.666992 15.501 0s10.834 1.83398 15.501 3.50098s7.33398 5.16699 8.00098 10.5l11.5 24l17.5 36l21 42l21 42l18 35.5l12 23.5l21 39c6 11.333 12.667 21 20 29s15.833 14.167 25.5 18.5s22.5 6.5 38.5 6.5
c0 -5.33301 -3.16699 -15 -9.5 -29l-21 -44.5l-22.5 -44c-7.33301 -13.667 -12 -22.5 -14 -26.5c-1.33301 -6.66699 -7 -19.334 -17 -38.001l-31 -58.5c-10.667 -20.333 -19.5 -38.5 -26.5 -54.5s-7.5 -25 -1.5 -27c11.333 0 21 2.5 29 7.5s17.667 7.5 29 7.5
c7.33301 0 14.333 -1.16699 21 -3.5s10 -8.16602 10 -17.499c0 -14.667 -7.16699 -24.834 -21.5 -30.501s-31 -11 -50 -16s-37.5 -11.667 -55.5 -20s-30.667 -21.833 -38 -40.5l-12.5 -38c-5 -15.333 -10.667 -31.333 -17 -48s-13.666 -33.667 -21.999 -51
s-17.5 -32.666 -27.5 -45.999s-21 -24.333 -33 -33s-25.333 -13 -40 -13c-5.33301 0 -10.333 0.5 -15 1.5s-8 5.16699 -10 12.5z" />
    <glyph glyph-name="five" unicode="5" horiz-adv-x="677" 
d="M12 85c0 3.33301 0.168945 9.33301 0.501953 18s1 17.667 2 27s2.33301 17.5 4 24.5s4.16699 10.5 7.5 10.5h25c3.33301 -19.333 7.33301 -35.5 12 -48.5s11.334 -23.5 20.001 -31.5s19.5 -13.833 32.5 -17.5s29.167 -5.5 48.5 -5.5c30.667 0 60 5.33301 88 16
s52.5 25.5 73.5 44.5s37.833 41.667 50.5 68s19 55.5 19 87.5c0 12.667 -0.833008 25.834 -2.5 39.501s-5 26.167 -10 37.5s-12.167 20.5 -21.5 27.5s-22 10.5 -38 10.5c-16.667 0 -29.5 -4.66699 -38.5 -14s-17.167 -19.666 -24.5 -30.999s-15.166 -21.666 -23.499 -30.999
s-19.5 -14 -33.5 -14c-11.333 0 -20.666 3.66699 -27.999 11s-11 16.666 -11 27.999v7c0 3.33301 0.333008 5 1 5l132 238l298 117c18 7.33301 31.667 7.16602 41 -0.500977s14 -18.167 14 -31.5c0 -6.66699 -7.5 -13.5 -22.5 -20.5s-34 -14.667 -57 -23l-77 -28
c-28.333 -10.333 -55.833 -22.5 -82.5 -36.5s-50.834 -30.167 -72.501 -48.5s-37.5 -39.833 -47.5 -64.5c16 1.33301 33.167 1.66602 51.5 0.999023s35.166 -5.33398 50.499 -14.001c14 -13.333 24.5 -25.666 31.5 -36.999s12 -22.666 15 -33.999s4.66699 -23.333 5 -36
s0.5 -27 0.5 -43c0 -42.667 -6.33301 -82 -19 -118s-31.334 -67 -56.001 -93s-55 -46.333 -91 -61s-77 -22 -123 -22c-14 0 -29.333 0.833008 -46 2.5s-32.334 5.5 -47.001 11.5s-26.834 14.667 -36.501 26s-14.5 26.666 -14.5 45.999z" />
    <glyph glyph-name="six" unicode="6" horiz-adv-x="462" 
d="M18 127c0 12 0.5 22.5039 1.5 31.5039s5.16699 19.5 12.5 31.5l253 456h4c1.33301 0 2.5 0.166992 3.5 0.5s2.16699 0.5 3.5 0.5c8.66699 0 17.667 -1.5 27 -4.5s14 -10.167 14 -21.5c0 -6 -0.5 -10.667 -1.5 -14s-2.66699 -6.5 -5 -9.5s-5.16602 -6.33301 -8.49902 -10
s-7.33301 -9.5 -12 -17.5l-92.5 -172.5c-29.667 -56.333 -62.167 -112.833 -97.5 -169.5l-26 -44.5c-8 -14.333 -12 -31.5 -12 -51.5c0 -15.333 2.66699 -27.333 8 -36s12.666 -15.334 21.999 -20.001s20.166 -7.83398 32.499 -9.50098s25.5 -2.83398 39.5 -3.50098
c-3.33301 -2 -5.5 3 -6.5 15s0.166992 27.833 3.5 47.5s9.5 41.167 18.5 64.5s21.833 45.333 38.5 66s37.5 38 62.5 52s55.5 21.667 91.5 23c23.333 0 39 -4.83301 47 -14.5s12 -25.5 12 -47.5c0 -32.667 -8.33301 -65 -25 -97s-38.5 -60.833 -65.5 -86.5
s-57.167 -46.334 -90.5 -62.001s-66.333 -23.5 -99 -23.5c-23.333 0 -44.333 2 -63 6s-34.667 11 -48 21s-23.666 23.167 -30.999 39.5s-11 36.5 -11 60.5zM361 278.004c-14.667 -2.66699 -28.998 -10.502 -42.998 -23.502s-26.333 -28 -37 -45s-19.334 -34.333 -26.001 -52
s-10 -32.167 -10 -43.5c0 -2 0.166992 -6.33301 0.5 -13s0.833008 -10.667 1.5 -12c15.333 6 32 14.167 50 24.5s34.667 22.333 50 36s28 28.834 38 45.501s15 34.667 15 54c0 11.333 -1.83301 19.833 -5.5 25.5s-14.834 6.83398 -33.501 3.50098z" />
    <glyph glyph-name="seven" unicode="7" horiz-adv-x="525" 
d="M145 22c0 0.666992 0.333008 1.6709 1 3.00391l120.5 255.5c41 84.333 85.167 168.166 132.5 251.499c1.33301 2.66699 3.33301 7.5 6 14.5s5.33398 14.5 8.00098 22.5s5 15.667 7 23s3.33301 12.666 4 15.999h-13.5c-6.33301 0 -13.333 0.166992 -21 0.5
s-14.834 0.5 -21.501 0.5h-14c-15.333 0 -32.166 -0.833008 -50.499 -2.5s-36.833 -4 -55.5 -7s-36.834 -7 -54.501 -12s-33.5 -10.833 -47.5 -17.5c-16.667 -8 -28.167 -17.167 -34.5 -27.5l-17.5 -29c-5.33301 -9 -12.5 -16.667 -21.5 -23s-24.833 -9.5 -47.5 -9.5h-6
c10 10 19.333 22 28 36l26.5 43c9 14.667 18.333 28.667 28 42s20.167 23.666 31.5 30.999c24 10.667 49.167 19.5 75.5 26.5s53 12.333 80 16s54 6.16699 81 7.5s53.5 1.66602 79.5 0.999023c12.667 -2 22.5 -4.5 29.5 -7.5s12.167 -7 15.5 -12s5.5 -11.5 6.5 -19.5
s1.5 -18 1.5 -30l-131.5 -274c-39.667 -78.667 -74 -144.167 -103 -196.5s-51.833 -90.833 -68.5 -115.5s-26 -34.667 -28 -30c-6.66699 0 -12.667 1.5 -18 4.5s-8 8.16699 -8 15.5v3z" />
    <glyph glyph-name="eight" unicode="8" horiz-adv-x="513" 
d="M18 104c0 23.333 5.66406 47.499 16.9971 72.499s25 49.167 41 72.5s32.833 45.166 50.5 65.499l44.5 52.5c-1.33301 4.66699 -3 12.334 -5 23.001l-6.5 36c-2.33301 13.333 -5 27.333 -8 42s-5.66699 28.667 -8 42l-6.5 36c-2 10.667 -3.33301 18.667 -4 24
c-0.666992 0.666992 -1 1.66699 -1 3v4c0 14 4.83301 27.667 14.5 41s22.334 25.833 38.001 37.5s33 22.334 52 32.001s38 18 57 25s36.833 12.5 53.5 16.5s30 6 40 6c2.66699 0 9.33398 -1.83301 20.001 -5.5s22 -8.16699 34 -13.5s22.667 -11 32 -17s14 -11 14 -15
c-1.33301 -26 -3.16602 -47.167 -5.49902 -63.5s-4.83301 -29 -7.5 -38s-5.16699 -15.333 -7.5 -19s-3.83301 -5.83398 -4.5 -6.50098c-6.66699 -13.333 -18.834 -29.666 -36.501 -48.999s-37 -39.333 -58 -60l-61.5 -59.5c-20 -19 -35.333 -34.5 -46 -46.5
c6.66699 -14.667 11.834 -28 15.501 -40s6.16699 -23.667 7.5 -35s2.16602 -23 2.49902 -35s0.5 -25.333 0.5 -40c0 -24 -2 -47.5 -6 -70.5s-11.167 -43.5 -21.5 -61.5s-24.666 -32.667 -42.999 -44s-41.5 -17 -69.5 -17c-38 0 -68.833 7.5 -92.5 22.5
s-35.5 42.5 -35.5 82.5zM81.9971 119.999c0 -23.333 4.83105 -38.8311 14.498 -46.498s24.5 -11.5 44.5 -11.5c13.333 0 25.833 4.33301 37.5 13s21.834 19.334 30.501 32.001s15.167 26.5 19.5 41.5s6.16602 28.833 5.49902 41.5c0 4 -1.66699 11 -5 21s-7 20.333 -11 31
s-8 20.667 -12 30s-7.33301 15.666 -10 18.999c-11.333 -8 -23.666 -18.333 -36.999 -31s-25.666 -26.834 -36.999 -42.501s-20.833 -31.834 -28.5 -48.501s-11.5 -33 -11.5 -49zM208.995 582.001c0 -14 -0.165039 -27.833 -0.498047 -41.5s0.166992 -27.334 1.5 -41.001
s3.66602 -27.334 6.99902 -41.001s9 -27.167 17 -40.5l177 152c-8.66699 4 -13 10.333 -13 19c0 6.66699 2 12 6 16s8.5 7.83301 13.5 11.5s9.66699 7.5 14 11.5s6.5 9.66699 6.5 17c0 14.667 -4.66699 22.834 -14 24.501s-20.333 2.5 -33 2.5c-16 0 -32.833 -2 -50.5 -6
s-34.834 -9.66699 -51.501 -17s-32 -16.666 -46 -27.999s-25.333 -24.333 -34 -39z" />
    <glyph glyph-name="nine" unicode="9" horiz-adv-x="468" 
d="M176 46l0.000976562 9.50293c0 4.33301 0.333008 6.83301 1 7.5l164 405v10c-17.333 0 -35.166 -3.83301 -53.499 -11.5s-37 -16 -56 -25s-38.333 -17.333 -58 -25s-39.5 -11.5 -59.5 -11.5c-14 0 -26.5 3.66699 -37.5 11s-20.333 16.5 -28 27.5s-13.667 22.833 -18 35.5
s-6.5 24.667 -6.5 36c0 28.667 11 55 33 79s48.667 44.5 80 61.5s64 30.167 98 39.5s63 14 87 14c8 0 17.667 -0.333008 29 -1s22.833 -2.33398 34.5 -5.00098s22.667 -6.5 33 -11.5s18.5 -11.833 24.5 -20.5c0 -2.66699 0.166992 -7.16699 0.5 -13.5
s0.666016 -13.333 0.999023 -21s0.666016 -14.834 0.999023 -21.501s0.5 -11.334 0.5 -14.001c0 -6.66699 -2.66699 -20.167 -8 -40.5s-12.5 -45.333 -21.5 -75l-31 -97.5l-36.5 -107l-38.5 -105c-13 -34 -25.167 -64 -36.5 -90s-21.5 -47 -30.5 -63s-16.167 -24 -21.5 -24
c-14.667 0 -26 4.5 -34 13.5s-12 20.167 -12 33.5zM87.001 520.003c0 -10.667 0.829102 -18.6709 2.49609 -24.0039s4.5 -9.16602 8.5 -11.499s9.33301 -3.66602 16 -3.99902s15.334 -0.5 26.001 -0.5c18 0 41.333 3.66699 70 11s56.5 17.833 83.5 31.5
s50.333 30.334 70 50.001s29.5 42.167 29.5 67.5c0 5.33301 -2.66699 9.33301 -8 12s-11.666 4.5 -18.999 5.5s-14.666 1.5 -21.999 1.5h-16c-9.33301 0 -21.666 -1.5 -36.999 -4.5s-31.833 -7.5 -49.5 -13.5s-35.667 -13.167 -54 -21.5s-35 -17.666 -50 -27.999
s-27.167 -21.5 -36.5 -33.5s-14 -24.667 -14 -38z" />
    <glyph glyph-name="colon" unicode=":" horiz-adv-x="214" 
d="M92 233c0 23.333 5.16797 38.333 15.501 45s28.166 10 53.499 10c0 -6 0.333008 -14 1 -24s0.5 -19.5 -0.5 -28.5s-3.66699 -16.833 -8 -23.5s-11.5 -10 -21.5 -10c-12 0 -21.667 2 -29 6s-11 12.333 -11 25zM105.001 513c0 17.333 4.83691 29.334 14.5039 36.001
s21.167 10 34.5 10h12c4.66699 0 9.16699 -0.666992 13.5 -2s8 -3.33301 11 -6s4.5 -7 4.5 -13c0 -4 -1.33301 -9 -4 -15s-5.83398 -12 -9.50098 -18s-7.83398 -11.333 -12.501 -16s-9 -7.33398 -13 -8.00098c-2.66699 -0.666992 -6.83398 -0.166992 -12.501 1.5
s-11.334 4 -17.001 7s-10.667 6.5 -15 10.5s-6.5 8.33301 -6.5 13z" />
    <glyph glyph-name="semicolon" unicode=";" horiz-adv-x="238" 
d="M131 -38c0 0.666992 0.669922 3 2.00293 7s2.66602 8.66699 3.99902 14l4 16.5c1.33301 5.66699 2.33301 10.167 3 13.5v7c0 6 -1.33301 11.333 -4 16s-5.83398 9.33398 -9.50098 14.001s-6.83398 9.5 -9.50098 14.5s-4 10.833 -4 17.5c0 7.33301 1 14.666 3 21.999
s7.66699 11 17 11c13.333 0 24.5 -3.66699 33.5 -11s16.333 -16.5 22 -27.5s9.66699 -22.833 12 -35.5s3.5 -24.334 3.5 -35.001c0 -21.333 -6 -43.166 -18 -65.499s-27.167 -42.5 -45.5 -60.5s-38.833 -32.667 -61.5 -44s-44.667 -17 -66 -17v17zM169.003 393
c14.667 0 25.001 -2.66699 31.001 -8s9 -15.333 9 -30c0 -23.333 -7.5 -39 -22.5 -47s-33.5 -12 -55.5 -12v84c0 2.66699 1.5 5 4.5 7s6.66699 3.33301 11 4s8.66602 1.16699 12.999 1.5s7.5 0.5 9.5 0.5z" />
    <glyph glyph-name="less" unicode="&#x3c;" horiz-adv-x="405" 
d="M5 222c0 7.33301 2.99902 13.501 8.99902 18.501s11.667 9.5 17 13.5l31 18.5l47 29l55 34l55 34l47 29.5l31 19c8 4.66699 14.833 9 20.5 13s11.334 7.16699 17.001 9.5s12 4.16602 19 5.49902s15.833 2 26.5 2c0 -16 -4.16699 -29 -12.5 -39
s-19.166 -19.667 -32.499 -29c-5.33301 -4 -13.5 -9.66699 -24.5 -17l-38 -24.5l-44.5 -28.5l-44.5 -29l-38.5 -24.5l-25 -15.5c-9.33301 -5.33301 -14 -12 -14 -20v-3c0 -0.666992 0.333008 -1.33398 1 -2.00098l241 -38c0 -1.33301 0.333008 -2.66602 1 -3.99902
c0 -1.33301 0.166992 -2.5 0.5 -3.5s0.5 -1.83301 0.5 -2.5c0 -18 -9.33301 -31.667 -28 -41h-12c-6 0 -12.333 -0.166992 -19 -0.5s-13 -0.5 -19 -0.5h-13c-8.66699 0 -21 0.5 -37 1.5s-33.333 3 -52 6s-37.834 6.83301 -57.501 11.5s-37.5 10.5 -53.5 17.5
s-29 15.333 -39 25s-15 21.167 -15 34.5z" />
    <glyph glyph-name="equal" unicode="=" horiz-adv-x="380" 
d="M357 169c0 -6.66699 -1.00098 -12.5 -3.00098 -17.5s-6.33301 -9.16699 -13 -12.5c-6.66699 -1.33301 -16.834 -3 -30.501 -5l-46.5 -6.5c-17.333 -2.33301 -35.666 -5 -54.999 -8s-37.666 -5.66699 -54.999 -8l-47 -6.5c-14 -2 -24.333 -3.33301 -31 -4
c-2 -0.666992 -7 -1.16699 -15 -1.5s-12.667 -0.5 -14 -0.5c0 16 4.83301 28.167 14.5 36.5s21.167 14.5 34.5 18.5s27.5 6.5 42.5 7.5l38.5 2.5c6.66699 0.666992 18.5 1.16699 35.5 1.5s35.167 0.833008 54.5 1.5s37.5 1.16699 54.5 1.5s28.833 0.5 35.5 0.5zM49.999 278
c0.666992 0.666992 9.33496 1.99902 26.002 3.99902l59.5 7.5c23 3 46.5 5.83301 70.5 8.5s44 4.66699 60 6h33c4 0 8.33301 0.166992 13 0.5s9.33398 0 14.001 -1s8.5 -2.83301 11.5 -5.5s4.5 -7 4.5 -13c0 -1.33301 -0.166992 -2.66602 -0.5 -3.99902
s-0.5 -2.33301 -0.5 -3c-19.333 -7.33301 -40 -14 -62 -20s-44.333 -11.5 -67 -16.5s-45.334 -8.83301 -68.001 -11.5s-44.334 -4 -65.001 -4h-16.5c-5.66699 0 -10.834 0.666992 -15.501 2s-9 4 -13 8s-7 9.66699 -9 17z" />
    <glyph glyph-name="greater" unicode="&#x3e;" horiz-adv-x="430" 
d="M25 89c6.66699 18.667 21.5 35.8369 44.5 51.5039s48.833 29.5 77.5 41.5s57.334 21.833 86.001 29.5s52 13.167 70 16.5c0 0.666992 0.166992 1.66699 0.5 3s0.5 2.33301 0.5 3c0 4 -1.5 7.83301 -4.5 11.5s-6.5 6.83398 -10.5 9.50098s-8.16699 4.83398 -12.5 6.50098
s-7.83301 3.16699 -10.5 4.5c-8.66699 2.66699 -23.834 7.66699 -45.501 15l-69 23l-68.5 23c-21.333 7.33301 -36.333 12.333 -45 15c-10 13.333 -14.5 24.666 -13.5 33.999s5.33301 16.666 13 21.999s17.5 8.66602 29.5 9.99902s24 0.666016 36 -2.00098
s22.667 -7.33398 32 -14.001s15 -15 17 -25l227 -88c26.667 -10.667 40 -27.334 40 -50.001c0 -10.667 -3.5 -18.667 -10.5 -24s-15.333 -9 -25 -11s-19.5 -3.16699 -29.5 -3.5s-18.333 -0.5 -25 -0.5l-266 -114c-0.666992 0 -1.5 -0.166992 -2.5 -0.5
s-2.16699 -0.5 -3.5 -0.5c-6 0 -11.5 1.16699 -16.5 3.5s-10.167 5.83301 -15.5 10.5z" />
    <glyph glyph-name="question" unicode="?" horiz-adv-x="446" 
d="M110 44c0 9.33301 3.50293 15.166 10.5029 17.499s14.167 3.5 21.5 3.5c4.66699 0 10.667 -0.666992 18 -2s14.166 -3.5 20.499 -6.5s11.666 -7.16699 15.999 -12.5s5.5 -11.666 3.5 -18.999c-2.66699 -10 -7.83398 -16.833 -15.501 -20.5s-15.167 -5.5 -22.5 -5.5
c-12 0 -23.667 4.5 -35 13.5s-17 19.5 -17 31.5zM186.003 334c0 34.667 6.5 69.999 19.5 105.999s29.167 71.167 48.5 105.5s40 67.5 62 99.5l61 89c0 0.666992 0.166992 1.66699 0.5 3s0.5 2.66602 0.5 3.99902c0 12 -5 20.333 -15 25s-19.667 7 -29 7
c-15.333 0 -29.5 -2.83301 -42.5 -8.5s-25.5 -10.667 -37.5 -15s-24.5 -6.66602 -37.5 -6.99902s-27.167 5.16699 -42.5 16.5c0 1.33301 3.33301 4.66602 10 9.99902s14.834 11.333 24.501 18l29.5 20c10 6.66699 18.333 12 25 16c11.333 6 23.666 9.66699 36.999 11
s26.333 2 39 2c28 0 50 -5.5 66 -16.5s24 -31.167 24 -60.5c-1.33301 -18.667 -8 -40 -20 -64s-26 -49.5 -42 -76.5l-51 -84c-18 -29 -33.833 -57.167 -47.5 -84.5s-23.667 -53.666 -30 -78.999s-6.5 -47.666 -0.5 -66.999c-6 -4 -11.333 -7.16699 -16 -9.5
s-10 -3.5 -16 -3.5s-10.5 1.5 -13.5 4.5s-5 6.83301 -6 11.5s-1.33301 9.5 -1 14.5s0.5 9.16699 0.5 12.5z" />
    <glyph glyph-name="at" unicode="@" horiz-adv-x="709" 
d="M18 252c0 40.667 7.00098 79.8369 21.001 117.504s32.833 73 56.5 106s51.667 63.333 84 91s66.833 51.667 103.5 72s74.667 36.666 114 48.999s78 19.5 116 21.5c26.667 1.33301 51 -0.5 73 -5.5s40.667 -13.167 56 -24.5s27.333 -26.333 36 -45s13 -40.667 13 -66
c0 -20.667 -2.33301 -43.5 -7 -68.5s-11.667 -50 -21 -75s-20.666 -49.5 -33.999 -73.5s-28.666 -45.167 -45.999 -63.5s-36.666 -33 -57.999 -44s-44.333 -16.5 -69 -16.5c-14 0 -27 2.33301 -39 7s-24.667 7 -38 7c-9.33301 0 -18 -2.66699 -26 -8
s-16.167 -11.333 -24.5 -18s-17 -12.667 -26 -18s-19.167 -8 -30.5 -8c-21.333 0 -37.333 4.16699 -48 12.5s-16 23.166 -16 44.499c0 28.667 7.5 58.5 22.5 89.5s34.667 59.167 59 84.5s51.666 46.333 81.999 63s60.5 25 90.5 25c10 0 19 -0.5 27 -1.5
s16 -5.16699 24 -12.5c0 -2 0.166992 -5.33301 0.5 -10s0.666016 -9.83398 0.999023 -15.501s0.666016 -10.834 0.999023 -15.501s0.5 -8 0.5 -10c0 -18 -4 -33 -12 -45s-16.667 -23.167 -26 -33.5s-18 -20.833 -26 -31.5s-12 -23.667 -12 -39
c32.667 0 62.167 8.5 88.5 25.5s48.666 38.667 66.999 65s32.5 55.5 42.5 87.5s15 63 15 93c0 40 -10 67.833 -30 83.5s-50.667 23.5 -92 23.5c-54 0 -108.5 -10.667 -163.5 -32s-104.5 -50.5 -148.5 -87.5s-79.833 -80.667 -107.5 -131s-41.5 -104.5 -41.5 -162.5
c0 -34 7.16699 -64.167 21.5 -90.5s33.333 -48.333 57 -66s50.334 -31 80.001 -40s59.5 -13.5 89.5 -13.5c18 0 36 2.16699 54 6.5s35.667 9 53 14s34.666 9.66699 51.999 14s34.666 6.5 51.999 6.5c0 -12 -4.5 -22.667 -13.5 -32s-20.667 -17.5 -35 -24.5
s-30.166 -12.667 -47.499 -17s-34.666 -7.83301 -51.999 -10.5s-33.333 -4.5 -48 -5.5s-26.334 -1.5 -35.001 -1.5c-35.333 0 -69.833 6 -103.5 18s-63.5 29.167 -89.5 51.5s-47 49 -63 80s-24 65.5 -24 103.5zM462.001 459.003c-24.667 0 -48.499 -6.33301 -71.499 -19
s-43.5 -29.167 -61.5 -49.5s-32.333 -42.833 -43 -67.5s-16 -49 -16 -73c17.333 0 32 3.83301 44 11.5s22.667 17.5 32 29.5s18 25.333 26 40l24.5 43.5c8.33301 14.333 17.666 27.5 27.999 39.5s22.833 21.667 37.5 29v16z" />
    <glyph glyph-name="A" unicode="A" horiz-adv-x="857" 
d="M645 44c0 16.667 1.16895 33.0049 3.50195 49.0049s4.83301 32 7.5 48s5.16699 32.167 7.5 48.5s3.5 33.166 3.5 50.499c-21.333 0 -39.833 -0.833008 -55.5 -2.5s-31 -3.5 -46 -5.5s-31 -3.5 -48 -4.5s-37.5 -0.833008 -61.5 0.5l-60.5 -62.5
c-22.333 -22.333 -46.166 -43 -71.499 -62s-52 -34.833 -80 -47.5s-56.333 -19 -85 -19c-20 0 -38.833 3.16699 -56.5 9.5s-33.167 15.5 -46.5 27.5s-24 26.333 -32 43s-12 35 -12 55c0 10 1.83301 17.833 5.5 23.5s11.167 8.5 22.5 8.5c6 0 11.333 -5.5 16 -16.5
s10.667 -23 18 -36s16.833 -24.833 28.5 -35.5s27.5 -16 47.5 -16c24.667 0 49 4.66699 73 14s46.833 21.333 68.5 36s42.167 31.167 61.5 49.5s36.666 36.166 51.999 53.499c-2 16.667 -7.83301 28.667 -17.5 36l-30.5 23c-10.667 8 -20.334 18.5 -29.001 31.5
s-13 33.5 -13 61.5c0 40 12 71.167 36 93.5s57 33.5 99 33.5c12.667 0 25 -1.33301 37 -4s24.167 -5.66699 36.5 -9s24.5 -6.33301 36.5 -9s24.333 -4 37 -4c8 0 14.333 1 19 3s9 5 13 9s8.16699 9.16699 12.5 15.5s10.166 14.166 17.499 23.499l31 42.5l46 64.5l45 65
l29 43c7.33301 6 13.833 9.83301 19.5 11.5s12.5 2.5 20.5 2.5s13.833 -2.83301 17.5 -8.5s6 -12.334 7 -20.001s1.33301 -15.5 1 -23.5s-0.5 -14.333 -0.5 -19v-9c0 -4 -0.166992 -8.33301 -0.5 -13s-0.5 -9.16699 -0.5 -13.5v-8.5
c-3.33301 -9.33301 -8.66602 -26 -15.999 -50l-23 -76.5l-22.5 -76.5l-14.5 -50l-3 -15.5c-1.33301 -7 -2.66602 -14.5 -3.99902 -22.5l-4 -23c-1.33301 -7.33301 -2 -12.333 -2 -15c6 -1.33301 12 -3.33301 18 -6s9 -7 9 -13c0 -6.66699 -2.5 -11.834 -7.5 -15.501
s-10.667 -7.16699 -17 -10.5s-12.333 -7.33301 -18 -12s-8.83398 -11 -9.50098 -19l-7 -43l-11 -65.5l-11.5 -64.5c-3.66699 -20 -6.5 -34 -8.5 -42c-0.666992 -2 -2 -5.5 -4 -10.5s-4.33301 -10.167 -7 -15.5s-5.33398 -10.333 -8.00098 -15s-4.66699 -8 -6 -10
c-15.333 3.33301 -27.833 7.5 -37.5 12.5s-14.5 15.5 -14.5 31.5zM628.002 419.005c-7.33301 0 -17.999 -5.49707 -31.999 -16.4971s-28 -23.833 -42 -38.5s-26.167 -29.334 -36.5 -44.001s-15.5 -25.667 -15.5 -33c4 0 11.667 0.166992 23 0.5s23.5 0.666016 36.5 0.999023
s25.167 0.833008 36.5 1.5s19 1 23 1c2.66699 0 6.83398 0.666992 12.501 2l16.5 4c5.33301 1.33301 10 2.66602 14 3.99902s6.33301 2.33301 7 3c0.666992 0 1 2 1 6v10c0 5.33301 -0.833008 13.5 -2.5 24.5s-4.33398 22 -8.00098 33s-8.33398 20.667 -14.001 29
s-12.167 12.5 -19.5 12.5zM354.003 418.008c0 -9.33301 3.16504 -19.835 9.49805 -31.502s14.333 -22.667 24 -33s20.167 -19.166 31.5 -26.499s21.666 -11 30.999 -11c8.66699 0 19.334 5.66699 32.001 17s24.667 24.166 36 38.499s21 28.333 29 42s12 23.167 12 28.5
c0 10.667 -3.66699 18.834 -11 24.501s-16.333 9.66699 -27 12s-21.5 3.5 -32.5 3.5h-26.5c-9.33301 0 -20.166 -0.833008 -32.499 -2.5s-24.166 -4.66699 -35.499 -9s-20.833 -10.666 -28.5 -18.999s-11.5 -19.5 -11.5 -33.5zM646.001 468.006
c14.667 -17.333 28.168 -35.667 40.501 -55s24.166 -39 35.499 -59l87 312z" />
    <glyph glyph-name="B" unicode="B" horiz-adv-x="690" 
d="M228 -1c-17.333 3.33301 -37.668 5.16406 -61.001 5.49707s-45.166 2.83301 -65.499 7.5s-37 13.5 -50 26.5s-17.5 33.833 -13.5 62.5c-0.666992 2 -2.16699 6.83301 -4.5 14.5s-5 15.667 -8 24l-8.5 23.5c-2.66699 7.33301 -4 12 -4 14
c-0.666992 4.66699 0.166016 9.16699 2.49902 13.5s5.5 8.33301 9.5 12s8.33301 6.5 13 8.5s9 3.33301 13 4c0.666992 -2 1.83398 -6.5 3.50098 -13.5s4 -14.333 7 -22s6.33301 -14.5 10 -20.5s7.5 -9 11.5 -9c2.66699 0 5.33398 1.33301 8.00098 4s6.5 8.5 11.5 17.5
s11.667 22 20 39l34 68l54 104.5l80.5 149c5.33301 10 15.666 22.5 30.999 37.5s33.333 31 54 48s43 34 67 51s47.5 32.333 70.5 46s44.5 24.667 64.5 33s36.667 12.5 50 12.5c5.33301 0 11.333 -0.166992 18 -0.5s11 -4.5 13 -12.5
c0 -3.33301 0.166992 -10.666 0.5 -21.999s0.5 -18.666 0.5 -21.999c0 -24 -3.83301 -45.5 -11.5 -64.5s-18 -36.667 -31 -53s-28 -31.833 -45 -46.5l-53.5 -45c0 -0.666992 -0.166992 -1.66699 -0.5 -3s-0.5 -2.66602 -0.5 -3.99902c0 -0.666992 4 -5.66699 12 -15
s16.833 -21.333 26.5 -36s18.5 -31.334 26.5 -50.001s12 -37.667 12 -57c0 -41.333 -11.833 -81.666 -35.5 -120.999s-53.667 -74.5 -90 -105.5s-76 -56 -119 -75s-83.833 -28.5 -122.5 -28.5zM137.998 88.998c0 -9.33301 3.5 -15.998 10.5 -19.998s15.167 -6.5 24.5 -7.5
s18.666 -1.16699 27.999 -0.5s16 1 20 1c41.333 0 78.333 6 111 18s61.834 29.167 87.501 51.5s47.667 49.166 66 80.499s33.833 66 46.5 104c0 1.33301 0.166992 4.5 0.5 9.5s0.5 8.16699 0.5 9.5c0 25.333 -3.66699 45 -11 59s-17.666 24.5 -30.999 31.5
s-29.5 11.333 -48.5 13s-39.833 3.16699 -62.5 4.5c-3.33301 0.666992 -8.16602 4.16699 -14.499 10.5s-9.83301 11.166 -10.5 14.499s0.5 8.16602 3.5 14.499s5.83301 10.166 8.5 11.499c26 0.666992 52.833 6.33398 80.5 17.001s52.667 25.167 75 43.5
s40.666 39.833 54.999 64.5s21.5 51.334 21.5 80.001c-24 0 -49.5 -8.16699 -76.5 -24.5s-53 -36.5 -78 -60.5s-47.833 -49.333 -68.5 -76s-36.334 -50 -47.001 -70l-22 -42.5l-34 -64.5l-39.5 -76l-39 -76l-33 -65l-21.5 -43c-0.666992 -1.33301 -1.16699 -3.33301 -1.5 -6
s-0.5 -4.66699 -0.5 -6z" />
    <glyph glyph-name="C" unicode="C" horiz-adv-x="432" 
d="M13 108c4 38 11.8281 74.167 23.4951 108.5s26 67.666 43 99.999s36 64 57 95l66.5 94.5c13.333 17.333 28.166 35 44.499 53s34 34.5 53 49.5s39.5 27.333 61.5 37s45 14.5 69 14.5c12.667 0 22.667 -0.833008 30 -2.5s12.666 -5 15.999 -10s5.33301 -12 6 -21
s0.666992 -20.5 0 -34.5c0 -16 -2.83301 -32.5 -8.5 -49.5s-13.667 -33 -24 -48s-22.666 -28.333 -36.999 -40s-29.833 -19.834 -46.5 -24.501v13c0 14 3.16699 27.167 9.5 39.5s13.333 25 21 38s14.667 26.167 21 39.5s9.5 28 9.5 44c-7.33301 0 -13.5 0.5 -18.5 1.5
s-9.66699 1.66699 -14 2s-8.66602 -0.333984 -12.999 -2.00098s-9.5 -5.16699 -15.5 -10.5c-32 -26 -64.667 -56.5 -98 -91.5s-63.666 -72.5 -90.999 -112.5s-49.666 -82 -66.999 -126s-26 -88.333 -26 -133c0 -2 0.166992 -5.33301 0.5 -10l1 -13.5
c0.333008 -4.33301 0.833008 -8.5 1.5 -12.5s1 -6.33301 1 -7c7.33301 -7.33301 16 -11.666 26 -12.999s17.667 -2 23 -2c28 0 54.167 4.83301 78.5 14.5s48.333 20.334 72 32.001s47.334 22.334 71.001 32.001s48.834 14.5 75.501 14.5
c0 -10.667 -6.16699 -22.167 -18.5 -34.5s-28 -24.833 -47 -37.5s-40.167 -24.667 -63.5 -36s-46.166 -21.5 -68.499 -30.5s-43 -16.167 -62 -21.5s-33.167 -8 -42.5 -8c-14 0 -28.167 2.83301 -42.5 8.5s-27.333 13.334 -39 23.001s-21 21.167 -28 34.5
s-10.5 27.666 -10.5 42.999z" />
    <glyph glyph-name="D" unicode="D" horiz-adv-x="734" 
d="M6 25c0 10 3.33203 20.835 9.99902 32.502s14.167 23 22.5 34s16.666 20.833 24.999 29.5s14.5 14.667 18.5 18l215 393c6.66699 5.33301 12.5 12 17.5 20s10.333 15.833 16 23.5s11.834 14.167 18.501 19.5s15 8 25 8c0 -10.667 -1.16699 -23.334 -3.5 -38.001
s-5.83301 -25.667 -10.5 -33l-184 -329c19.333 7.33301 37.333 9.66602 54 6.99902s32.167 -8.33398 46.5 -17.001s27.833 -19 40.5 -31l36 -34.5c11.333 -11 22.166 -20.333 32.499 -28s20.833 -11.5 31.5 -11.5c22.667 0 44.834 11.5 66.501 34.5s42.167 52.333 61.5 88
s37.166 75.334 53.499 119.001s30.333 86.167 42 127.5s20.834 79 27.501 113s10 59.333 10 76c0 9.33301 -0.833008 19.333 -2.5 30s-4.83398 20.5 -9.50098 29.5s-10.667 16.333 -18 22s-17 8.5 -29 8.5c-17.333 0 -33.166 -7.5 -47.499 -22.5s-27.333 -34.167 -39 -57.5
s-22 -49.333 -31 -78s-16.5 -56.834 -22.5 -84.501s-10.5 -52.834 -13.5 -75.501s-4.5 -40 -4.5 -52c0 -13.333 1.5 -25.833 4.5 -37.5s6.33301 -23 10 -34s7 -22.167 10 -33.5s4.5 -23 4.5 -35c-18 0 -32.333 4.5 -43 13.5s-18.834 20.333 -24.501 34
s-9.16699 28.5 -10.5 44.5s-2 30.667 -2 44c0 16 2 37.833 6 65.5s10.167 57.834 18.5 90.501s18.5 65.5 30.5 98.5s26 63.167 42 90.5s33.833 49.5 53.5 66.5s41.5 25.5 65.5 25.5c2 0 6.33301 -0.333008 13 -1s11 -1 13 -1c10.667 -13.333 20 -25.666 28 -36.999
s14.667 -23 20 -35s9.33301 -24.5 12 -37.5s4 -27.5 4 -43.5c0 -15.333 -1.66699 -36 -5 -62s-8.33301 -55 -15 -87s-15 -65.833 -25 -101.5s-21.333 -70.834 -34 -105.501s-26.834 -68 -42.501 -100s-32.667 -60.167 -51 -84.5s-37.833 -43.666 -58.5 -57.999
s-42.667 -21.5 -66 -21.5c-21.333 0 -39.166 3.16699 -53.499 9.5s-27.166 14.333 -38.499 24s-21.5 20.167 -30.5 31.5s-18.333 21.833 -28 31.5s-20.5 17.667 -32.5 24s-26.333 9.5 -43 9.5c-17.333 0 -32.5 -5.66699 -45.5 -17s-24.5 -25 -34.5 -41
s-18.5 -32.833 -25.5 -50.5l-18.5 -45.5c-1.33301 -0 -3.33301 -0.166992 -6 -0.5s-4.66699 -0.5 -6 -0.5c-3.33301 0 -7.83301 0.666992 -13.5 2s-11.167 3 -16.5 5s-10.166 4.66699 -14.499 8s-6.5 7 -6.5 11z" />
    <glyph glyph-name="E" unicode="E" horiz-adv-x="425" 
d="M12 128c2 31.333 11.335 60.8301 28.002 88.4971s36.667 53.5 60 77.5s47.833 46.333 73.5 67s48.167 39.667 67.5 57c0 4 -1.83301 9.33301 -5.5 16s-6.16699 18 -7.5 34c0 28.667 6.5 54.834 19.5 78.501s30 43.834 51 60.501s44.667 29.5 71 38.5
s53.166 13.5 80.499 13.5c12 0 21.833 -4.5 29.5 -13.5s13.834 -19.667 18.501 -32s7.83398 -25 9.50098 -38s2.5 -23.5 2.5 -31.5h-34c0 6.66699 -0.833008 13.834 -2.5 21.501s-4.16699 14.834 -7.5 21.501s-8 12 -14 16s-13 6 -21 6c-14.667 0 -30.834 -4 -48.501 -12
s-34.334 -18.333 -50.001 -31s-28.667 -27.167 -39 -43.5s-15.5 -32.5 -15.5 -48.5c0 -12.667 6 -20.167 18 -22.5s25.333 -3.83301 40 -4.5s28 -2.33398 40 -5.00098s18 -10.334 18 -23.001c0 -5.33301 -0.666992 -10.5 -2 -15.5s-5.33301 -8.83301 -12 -11.5
c-38 -10 -72 -21.5 -102 -34.5s-57.5 -29 -82.5 -48s-48.167 -41.333 -69.5 -67s-42 -55.834 -62 -90.501c0 -1.33301 -0.166992 -4.5 -0.5 -9.5s-0.5 -8.16699 -0.5 -9.5c0 -23.333 6.83301 -41 20.5 -53s31.5 -18 53.5 -18c24.667 0 52.334 3.83301 83.001 11.5
s60.834 16.167 90.501 25.5l80.5 25.5c24 7.66699 42 11.5 54 11.5c-0.666992 -14 -7 -27.5 -19 -40.5s-27.333 -25 -46 -36s-39.834 -20.667 -63.501 -29s-47.834 -15.166 -72.501 -20.499s-48.5 -9 -71.5 -11s-43.167 -2 -60.5 0c-16.667 0 -31.334 3.83301 -44.001 11.5
s-23.167 17.834 -31.5 30.501s-14.5 26.5 -18.5 41.5s-6 30.167 -6 45.5z" />
    <glyph glyph-name="F" unicode="F" horiz-adv-x="687" 
d="M12 89l-0.000976562 14.502c0 5.66699 0.666992 11.334 2 17.001s3.16602 10.5 5.49902 14.5s6.16602 6 11.499 6s11.166 -4.66699 17.499 -14s14.333 -19.833 24 -31.5s21.834 -22.167 36.501 -31.5s33 -14 55 -14c16.667 0 36.834 2.66699 60.501 8
s48 12.666 73 21.999s49.833 20.5 74.5 33.5s46.667 27.5 66 43.5s35 33.167 47 51.5s18 37.166 18 56.499c-23.333 0 -45.666 -2.66699 -66.999 -8s-45.333 -8 -72 -8c0 6 1 11.667 3 17s6.33301 9.33301 13 12l177 76l26 26l14.5 32.5l22.5 50l23 49.5
c7.33301 15.333 12.666 26 15.999 32c0 0.666992 1.33301 3 4 7s5.5 8 8.5 12s5.66699 7.83301 8 11.5s3.83301 6.16699 4.5 7.5c0 5.33301 -0.333008 10 -1 14s-4.66699 8 -12 12l-179 -63c-57.333 -19.333 -115.666 -40.666 -174.999 -63.999
c-0.666992 0 -1.66699 -0.166992 -3 -0.5s-2.66602 -0.5 -3.99902 -0.5c-5.33301 0 -9.83301 2 -13.5 6s-5.5 8.66699 -5.5 14c0 6.66699 10.833 16.5 32.5 29.5s49.167 27.333 82.5 43s70 31.667 110 48s78.333 31.166 115 44.499s69 24.166 97 32.499s46.667 12.5 56 12.5
c14 0 26.167 -3.33301 36.5 -10s15.5 -18.334 15.5 -35.001c0 -5.33301 -1.5 -9.5 -4.5 -12.5s-6.5 -5.66699 -10.5 -8s-8.16699 -4.33301 -12.5 -6s-7.83301 -3.5 -10.5 -5.5c-4 -3.33301 -9.33301 -8.16602 -16 -14.499s-13.334 -13 -20.001 -20l-18 -18.5
c-5.33301 -5.33301 -8.33301 -8.66602 -9 -9.99902c-6 -9.33301 -13.333 -22.666 -22 -39.999s-17 -34.833 -25 -52.5s-14.833 -33.5 -20.5 -47.5s-8.5 -22.333 -8.5 -25v-18c2.66699 0 7.5 0.833008 14.5 2.5s14 2.66699 21 3s13.333 -0.666992 19 -3
s8.5 -7.83301 8.5 -16.5s-4.33301 -15 -13 -19c-3.33301 -1.33301 -9 -3.83301 -17 -7.5l-26 -11.5l-27 -11.5l-18 -7.5c-28.667 -46.667 -58.834 -89.5 -90.501 -128.5s-66.5 -72.5 -104.5 -100.5s-80.167 -49.667 -126.5 -65s-98.166 -23 -155.499 -23
c-12.667 0 -26.667 1.66699 -42 5s-29.666 8.66602 -42.999 15.999s-24.5 16.666 -33.5 27.999s-13.5 25 -13.5 41z" />
    <glyph glyph-name="G" unicode="G" horiz-adv-x="683" 
d="M69 51l-10.002 19.9961l-15 30.5l-15 30.5l-10 20c-1.33301 2 -2.66602 5 -3.99902 9l-4 12c-1.33301 4 -2.5 7.66699 -3.5 11s-1.5 5.33301 -1.5 6c0 7.33301 1.83301 15.5 5.5 24.5s8.33398 17.5 14.001 25.5s12.334 14.667 20.001 20s15.5 8 23.5 8
c1.33301 0 3.5 -0.333008 6.5 -1s5.16699 -1 6.5 -1c-10 -13.333 -17 -25 -21 -35s-6 -21.667 -6 -35c0 -6.66699 2.33301 -15.334 7 -26.001s10.5 -21.167 17.5 -31.5s14.667 -19.166 23 -26.499s16.166 -11 23.499 -11h7l28 22l42 34l41.5 34.5l27.5 23.5
c4.66699 4 12.834 11.833 24.501 23.5l37.5 37.5l38 39l26 27c1.33301 0.666992 3.33301 2.83398 6 6.50098l8 11.5l7.5 11.5c2.33301 3.66699 3.83301 6.5 4.5 8.5v6c0 10 -2.33301 19 -7 27s-7 17.667 -7 29c0 19.333 6.16699 44.5 18.5 75.5s28.666 63.833 48.999 98.5
s43.333 69.667 69 105s51.667 67.166 78 95.499s52 51.333 77 69s46.833 26.5 65.5 26.5c12.667 0 22.167 -4.5 28.5 -13.5s9.5 -19.167 9.5 -30.5c0 -14 -4.66699 -30.667 -14 -50s-20.166 -38.833 -32.499 -58.5s-25 -38.5 -38 -56.5s-23.167 -33 -30.5 -45l-19 -28
l-32 -47.5l-32 -48l-19 -28.5c-1.33301 -1.33301 -3.5 -5.33301 -6.5 -12s-4.83301 -11 -5.5 -13c24 9.33301 48.5 22.833 73.5 40.5s46.833 33.834 65.5 48.501h13c11.333 0 20.666 -2 27.999 -6s11 -12.667 11 -26c0 -2 -0.166992 -5.5 -0.5 -10.5
s-0.833008 -7.83301 -1.5 -8.5l-151 -342c-14.667 -32 -33.167 -58.167 -55.5 -78.5s-47.333 -36.333 -75 -48s-57.167 -20 -88.5 -25s-62.833 -8.16699 -94.5 -9.5s-63 -1.83301 -94 -1.5s-59.833 -0.166992 -86.5 -1.5c-1.33301 0 -4.5 -0.666992 -9.5 -2
s-10.333 -2.66602 -16 -3.99902s-11 -2.83301 -16 -4.5s-8.16699 -2.5 -9.5 -2.5c-2 0 -5.5 -0.166992 -10.5 -0.5s-10.5 -0.666016 -16.5 -0.999023s-11.5 -0.666016 -16.5 -0.999023s-8.5 -0.5 -10.5 -0.5c0 15.333 2.16699 25 6.5 29s9.5 6.16699 15.5 6.5s12 1 18 2
s10.667 6.5 14 16.5zM233.998 100.996c-10.667 -3.33301 -20.1719 -8.33301 -28.5049 -15s-15.833 -14.334 -22.5 -23.001h76c36.667 0 70.334 2 101.001 6s58.834 11.833 84.501 23.5s49.334 28.334 71.001 50.001s41.834 50.167 60.501 85.5c4 8 10.333 22 19 42l27 64.5
l26 65c8 20.333 13.333 34.833 16 43.5h-3h-2c-0.666992 0 -1 0.333008 -1 1c-22 0 -44.167 -4.66699 -66.5 -14s-43.666 -21 -63.999 -35s-39.5 -29.167 -57.5 -45.5s-33.333 -31.5 -46 -45.5l-22 -24l-33.5 -36l-39 -42l-39.5 -42l-34 -36zM727.993 847.996
c-13.333 -11.333 -28.668 -26.166 -46.001 -44.499s-35 -38.5 -53 -60.5s-35.5 -45.167 -52.5 -69.5s-32.167 -48.333 -45.5 -72s-24.166 -46.5 -32.499 -68.5s-12.5 -41.333 -12.5 -58c0 -1.33301 0.166992 -4.5 0.5 -9.5s0.5 -8.16699 0.5 -9.5
c4.66699 5.33301 12.5 15.166 23.5 29.499l34.5 45.5l34 46c10.667 14.667 18 25 22 31l35.5 57l42 69.5l35 60c9.66699 17 14.5 26.5 14.5 28.5v25z" />
    <glyph glyph-name="H" unicode="H" horiz-adv-x="989" 
d="M4 68c0 5.33301 1.66113 10.999 4.99414 16.999s7.5 11.5 12.5 16.5s10.5 9.16699 16.5 12.5s11.667 5 17 5h6c2.66699 0 4.66699 -0.333008 6 -1c-7.33301 -8 -11.5 -16.333 -12.5 -25s-1.5 -18 -1.5 -28c0 -14.667 3.33301 -26.834 10 -36.501
s15.334 -17.167 26.001 -22.5s22.167 -9.16602 34.5 -11.499s24.5 -3.5 36.5 -3.5c74 0 138.667 14.5 194 43.5s104.333 66.833 147 113.5s79.834 99.5 111.501 158.5s60.834 118.5 87.501 178.5h-3h-2c-0.666992 0 -1 0.333008 -1 1c-19.333 0 -38.166 -5.5 -56.499 -16.5
s-36.666 -23 -54.999 -36s-36.833 -24.833 -55.5 -35.5s-38 -16 -58 -16c0 4.66699 7.66699 14.334 23 29.001s34.666 31.5 57.999 50.5l75.5 59.5l75 57l58 43l23.5 17c12.667 0 21.5 -5.16699 26.5 -15.5s7.5 -20.5 7.5 -30.5c0 -2 -0.166992 -5.33301 -0.5 -10
s-0.833008 -7.33398 -1.5 -8.00098l-71.5 -154l-46 -98.5l-25.5 -55.5l-10.5 -24c-1.66699 -4 -2 -5.5 -1 -4.5s2.5 1.83301 4.5 2.5c6 2.66699 18.667 6.16699 38 10.5s40 8.66602 62 12.999l62 12l39 7.5l12 12l88 178l90 177c12 10.667 20.167 13.167 24.5 7.5
s6.16602 -14.5 5.49902 -26.5s-3 -25.167 -7 -39.5s-7.66699 -24.5 -11 -30.5l-240 -531c-6 -13.333 -12.167 -21.166 -18.5 -23.499s-14.5 -3.5 -24.5 -3.5c-6 0 -12.5 0.333008 -19.5 1s-11.5 5 -13.5 13c12.667 11.333 24.334 25.5 35.001 42.5
s19.834 34.833 27.501 53.5s13.667 37.334 18 56.001s6.5 35 6.5 49c-1.33301 0 -3.16602 0.333008 -5.49902 1s-4.16602 0.666992 -5.49902 0c-20 -6.66699 -41.5 -11.667 -64.5 -15s-45.667 -7.33301 -68 -12s-44 -10.5 -65 -17.5s-39.5 -17.167 -55.5 -30.5l-97.5 -85.5
c-27.667 -25 -55.834 -46.333 -84.501 -64s-60.667 -31.167 -96 -40.5s-80 -14 -134 -14c-21.333 0 -41.5 2 -60.5 6s-35.833 11 -50.5 21s-26.167 23.167 -34.5 39.5s-12.5 36.833 -12.5 61.5z" />
    <glyph glyph-name="I" unicode="I" horiz-adv-x="802" 
d="M13 228c-0.666992 2 -0.671875 5.49023 -0.00488281 10.4902s1.66699 10.167 3 15.5s2.83301 10.333 4.5 15s3.5 7.66699 5.5 9c0 0.666992 2.16699 1.5 6.5 2.5s7.83301 1.5 10.5 1.5c10.667 0 18.834 -2.83301 24.501 -8.5s11.167 -12 16.5 -19
s11.833 -13.333 19.5 -19s18.5 -8.5 32.5 -8.5c36.667 0 70.334 6.16699 101.001 18.5s59.667 25.833 87 40.5l77.5 40.5c24.333 12.333 48.166 18.5 71.499 18.5c0 -9.33301 -4.16699 -19.166 -12.5 -29.499s-18.166 -20.333 -29.499 -30s-23 -18.5 -35 -26.5
s-21.667 -14 -29 -18c-21.333 -12.667 -41 -23.5 -59 -32.5s-36 -16.5 -54 -22.5s-37 -10.667 -57 -14s-43.333 -5.66602 -70 -6.99902c2.66699 -3.33301 7.66699 -8.66602 15 -15.999l23 -23l22.5 -22.5c7 -7 12.167 -11.833 15.5 -14.5
c6 -5.33301 12.833 -9.16602 20.5 -11.499s15.667 -3.66602 24 -3.99902s16.5 -0.166016 24.5 0.500977s15.667 1 23 1c16 0 34.833 1 56.5 3s43 6.33301 64 13s39.833 15.834 56.5 27.501s28.334 27.167 35.001 46.5c2 6 6.5 20.667 13.5 44l23.5 76l24.5 76l14.5 44
c12 24 26 48.833 42 74.5s33.667 49.667 53 72s40.166 42 62.499 59s45.5 28.833 69.5 35.5c22.667 0 39 -7.83301 49 -23.5s15 -33.167 15 -52.5c0 -48.667 -10.167 -96.167 -30.5 -142.5s-46 -90.166 -77 -131.499s-65.167 -79.666 -102.5 -114.999s-73 -66 -107 -92
c0 -2 -0.5 -4.83301 -1.5 -8.5s-2.16699 -7.5 -3.5 -11.5s-2.66602 -7.66699 -3.99902 -11s-2.33301 -5.66602 -3 -6.99902c-0.666992 -0.666992 -1.33398 -1 -2.00098 -1h-3c-1.33301 0 -2.83301 0.166992 -4.5 0.5s-2.83398 0.5 -3.50098 0.5
c-3.33301 0.666992 -9.66602 2.5 -18.999 5.5s-15.666 5.16699 -18.999 6.5l-30.5 -10l-45.5 -15l-45.5 -15l-30.5 -10c-1.33301 -0.666992 -4.66602 -1.5 -9.99902 -2.5l-18 -3.5l-20 -4l-15 -3h-7c-30 -0 -58.167 7.33301 -84.5 22s-50.5 33.167 -72.5 55.5
s-41.667 47 -59 74s-31.666 52.5 -42.999 76.5zM827.995 586.99c-22 0 -43.502 -7.33398 -64.502 -22.001s-41.167 -33.667 -60.5 -57s-37.166 -49.833 -53.499 -79.5s-30.5 -59.334 -42.5 -89.001s-21.333 -58.167 -28 -85.5s-10 -50.666 -10 -69.999
c0 -1.33301 0.166992 -2.66602 0.5 -3.99902s0.5 -2.33301 0.5 -3c36.667 22 70.834 47.5 102.501 76.5s59 61 82 96s41 72.5 54 112.5s19.5 81.667 19.5 125z" />
    <glyph glyph-name="J" unicode="J" horiz-adv-x="626" 
d="M-29 -314c-4.66699 0.666992 -8.83301 2.67188 -12.5 6.00488s-6.5 6.83301 -8.5 10.5s-2.33301 7.5 -1 11.5s4.66602 7.33301 9.99902 10c28.667 9.33301 56 19.5 82 30.5s50.167 24.333 72.5 40s42.833 34.167 61.5 55.5s35 47 49 77l355 759h-13
c-1.33301 0 -8.33301 -2.83301 -21 -8.5l-45.5 -20.5l-53.5 -25c-18 -8.66699 -32.667 -16 -44 -22c-15.333 -8 -33.333 -19 -54 -33s-41.834 -30 -63.501 -48s-43 -37.667 -64 -59s-39.833 -42.833 -56.5 -64.5s-30 -43.167 -40 -64.5s-15 -41.333 -15 -60
c0 -6.66699 1.5 -12.667 4.5 -18s6.5 -10.5 10.5 -15.5s7.5 -10.167 10.5 -15.5s4.5 -11.333 4.5 -18c-28 0 -47.833 9 -59.5 27s-17.5 38 -17.5 60c0 16.667 2.83301 32.667 8.5 48s13.167 30 22.5 44s20 27.5 32 40.5l36 37.5l42 40l53 49.5l46.5 42.5
c13.667 12 21.5 18.667 23.5 20l304 164c14.667 8 27.167 19.833 37.5 35.5l32 47c11 15.667 23.333 29.167 37 40.5s30.834 17 51.501 17c6 0 11.333 -1.16699 16 -3.5s9.66699 -5.5 15 -9.5c0.666992 -2.66699 1.16699 -8 1.5 -16s0.5 -13.333 0.5 -16v-20
c0 -4.66699 -0.833008 -8.83398 -2.5 -12.501s-4.33398 -7.16699 -8.00098 -10.5s-9.16699 -8 -16.5 -14c-6 -4 -16.333 -11.667 -31 -23s-30.5 -24.333 -47.5 -39s-33 -29.834 -48 -45.501s-25.5 -30.5 -31.5 -44.5l-222 -443
c-0.666992 -2.66699 -2.5 -8.83398 -5.5 -18.501s-5.16699 -16.167 -6.5 -19.5l-32 -67.5l-43.5 -91l-41 -84.5l-23.5 -48c-11.333 -21.333 -27.166 -45.333 -47.499 -72s-43.666 -51.334 -69.999 -74.001s-54.333 -40.834 -84 -54.501s-59.5 -18.5 -89.5 -14.5z" />
    <glyph glyph-name="K" unicode="K" horiz-adv-x="479" 
d="M303 -240c0 50.667 0.833984 98.6689 2.50098 144.002s5.16699 94.333 10.5 147c-1.33301 19.333 -3.33301 40.666 -6 63.999s-6.83398 46.166 -12.501 68.499s-13.334 42.833 -23.001 61.5s-21.834 33.334 -36.501 44.001
c-29.333 -35.333 -53.666 -67.833 -72.999 -97.5s-35 -55.834 -47 -78.501l-29 -56c-7.33301 -14.667 -14 -24.834 -20 -30.501s-12.167 -6.66699 -18.5 -3s-14.833 12.834 -25.5 27.501l45.5 73.5l60 101l69 117.5l71.5 122l67.5 115l57.5 96c6 2.66699 10.833 4 14.5 4
s6.33398 -0.666992 8.00098 -2s2.66699 -2.83301 3 -4.5s0.5 -2.83398 0.5 -3.50098c0 -17.333 -4.5 -38.5 -13.5 -63.5s-19.667 -50.167 -32 -75.5s-25.333 -49.333 -39 -72s-25.167 -40.334 -34.5 -53.001c20 4.66699 41 13.167 63 25.5s44.333 26.5 67 42.5
s44.834 32.667 66.501 50l61.5 47.5c19.333 14.333 36.833 26.166 52.5 35.499s28.5 14 38.5 14c3.33301 0 6.66602 -1.66699 9.99902 -5s6.33301 -7.33301 9 -12s4.83398 -9.5 6.50098 -14.5s2.5 -8.83301 2.5 -11.5c-11.333 0 -26.5 -5.83301 -45.5 -17.5
s-43.667 -28.167 -74 -49.5l-111.5 -77c-44 -30 -96.333 -63.667 -157 -101c7.33301 -10 15.333 -21.667 24 -35s16.667 -27.666 24 -42.999s13.666 -30.666 18.999 -45.999s8 -30 8 -44c2 -33.333 2.5 -66.5 1.5 -99.5s-2.5 -66 -4.5 -99l-6 -98
c-2 -32.333 -3.33301 -64.166 -4 -95.499c26.667 -6 45.334 -12.333 56.001 -19s15.667 -12.667 15 -18s-5.66699 -9.66602 -15 -12.999s-20.333 -4.5 -33 -3.5s-25.834 4.66699 -39.501 11s-25.167 16.166 -34.5 29.499z" />
    <glyph glyph-name="L" unicode="L" horiz-adv-x="673" 
d="M414 200c-9.33301 0 -18.498 -5 -27.498 -15s-19 -22.667 -30 -38l-36 -49c-13 -17.333 -27.667 -33.666 -44 -48.999s-35 -28 -56 -38s-44.833 -15 -71.5 -15c-12 0 -25.833 0.5 -41.5 1.5s-30.5 3.66699 -44.5 8s-25.833 11.166 -35.5 20.499s-14.5 22.333 -14.5 39
c0 22.667 7 43.5 21 62.5s32.167 35.833 54.5 50.5s47.333 27.5 75 38.5s55.167 20.5 82.5 28.5s53 14.333 77 19s43.667 8.33398 59 11.001l190 304c8.66699 13.333 20.167 27.666 34.5 42.999s30 29.333 47 42s34.667 23.167 53 31.5s36.166 12.5 53.499 12.5
c3.33301 0 9.16602 -0.666992 17.499 -2s17 -6 26 -14s17 -20.667 24 -38s10.5 -42.333 10.5 -75c-4.66699 -1.33301 -9 -3.5 -13 -6.5s-8.5 -6 -13.5 -9s-10.5 -5.5 -16.5 -7.5s-13 -3 -21 -3c10 22 13.667 39.167 11 51.5s-9.16699 20.833 -19.5 25.5
s-23.333 5.66699 -39 3s-31.167 -8 -46.5 -16s-29.5 -18.667 -42.5 -32s-22.167 -28 -27.5 -44l-165 -279v-13c26.667 -18.667 47 -39.167 61 -61.5s24.833 -44.666 32.5 -66.999s13.5 -44.333 17.5 -66s9 -41 15 -58s14.667 -31.167 26 -42.5s28.333 -18.333 51 -21
c0 -0.666992 0.166992 -1.66699 0.5 -3s0.5 -2.33301 0.5 -3c0 -8 -3 -14.167 -9 -18.5s-13.167 -7.5 -21.5 -9.5s-17 -3.33301 -26 -4s-16.167 -1 -21.5 -1c-13.333 12 -24.5 27.667 -33.5 47s-16.667 40.166 -23 62.499s-12.333 45 -18 68s-12 43.833 -19 62.5
s-15.5 34.167 -25.5 46.5s-22.667 18.833 -38 19.5zM65.002 79c0 -8 2.83301 -14.168 8.5 -18.501s12.5 -7.5 20.5 -9.5s16 -3.33301 24 -4s14.333 -1 19 -1c18 0 37.667 4.66699 59 14s41.166 21.5 59.499 36.5s33.833 31.833 46.5 50.5s19 37.334 19 56.001
c-50 0 -97.167 -9 -141.5 -27s-82.166 -48.333 -113.499 -91c0 -0.666992 -0.166992 -1.66699 -0.5 -3s-0.5 -2.33301 -0.5 -3z" />
    <glyph glyph-name="M" unicode="M" horiz-adv-x="932" 
d="M740 45c0 37.333 5.00098 75.334 15.001 114.001s22.667 76.834 38 114.501s32 74.334 50 110.001l50 100.5v13l-34 -36.5l-51.5 -56l-60.5 -66l-60.5 -65.5l-51 -56l-33.5 -37c-7.33301 -8 -14.333 -19.667 -21 -35s-13.834 -30.833 -21.501 -46.5
s-16.167 -29.334 -25.5 -41.001s-20 -17.5 -32 -17.5c-10 0 -17.667 1 -23 3s-9.33301 5.16699 -12 9.5s-4.33398 9.66602 -5.00098 15.999s-1 14.166 -1 23.499c0 24 2 47.5 6 70.5s9 46 15 69s12.833 46 20.5 69l23.5 69.5v13l-6.5 -6.5
c-3 -3 -4.83301 -5.16699 -5.5 -6.5c-16 -23.333 -32 -48.333 -48 -75s-32.833 -53.334 -50.5 -80.001s-36.667 -52 -57 -76s-42.166 -45.333 -65.499 -64s-48.833 -33.5 -76.5 -44.5s-58.167 -16.5 -91.5 -16.5c-7.33301 0 -16.833 0.333008 -28.5 1s-23.167 2.5 -34.5 5.5
s-21.166 8 -29.499 15s-12.5 17.167 -12.5 30.5c0 5.33301 3 12.166 9 20.499s11.333 14.166 16 17.499c8.66699 -15.333 16.167 -25.5 22.5 -30.5s15.5 -7.5 27.5 -7.5c20 0 40.833 3.16699 62.5 9.5s42.667 14.666 63 24.999s39.5 22.333 57.5 36s33.333 28.167 46 43.5
c10 12.667 22 29.334 36 50.001l45 67.5l49 75l49 72.5l44.5 61.5c13.667 18.333 25.5 32.166 35.5 41.499c9.33301 0 16.166 -1.5 20.499 -4.5s7.5 -7.16699 9.5 -12.5s3 -11.5 3 -18.5v-22.5c0 -27.333 -4 -54 -12 -80s-17 -51.167 -27 -75.5s-19 -48.333 -27 -72
s-12 -46.834 -12 -69.501c0 -1.33301 0.166992 -3.5 0.5 -6.5s0.5 -5.16699 0.5 -6.5l158 175l112.5 126.5l76 85l47 51c11.667 12.333 20.667 20.666 27 24.999s11.5 6.5 15.5 6.5c6.66699 0 11.5 -1.83301 14.5 -5.5s5 -8.16699 6 -13.5s1.33301 -10.833 1 -16.5
s-0.5 -10.5 -0.5 -14.5c0 -27.333 -5.16699 -55.166 -15.5 -83.499s-23 -57.333 -38 -87s-31.5 -59.667 -49.5 -90s-34.5 -61.333 -49.5 -93s-27.667 -64 -38 -97s-15.5 -66.833 -15.5 -101.5c0 -17.333 0.333008 -30.166 1 -38.499s2.66699 -15.166 6 -20.499
s8.5 -11.166 15.5 -17.499s17.167 -16.5 30.5 -30.5c-15.333 -8 -30 -11.167 -44 -9.5s-26 7.33398 -36 17.001s-17.333 22.834 -22 39.501s-5 36 -1 58z" />
    <glyph glyph-name="N" unicode="N" horiz-adv-x="870" 
d="M588 55c0 36 1.33301 72.0029 4 108.003s5.66699 72 9 108s6.33301 72 9 108s4 72 4 108v70c-1.33301 -1.33301 -3.33301 -3.83301 -6 -7.5l-8 -11.5l-7.5 -11.5c-2.33301 -3.66699 -3.83301 -6.16699 -4.5 -7.5l-15.5 -28l-27 -50l-33 -61l-33 -61l-27.5 -50l-16 -28
l-42.5 -73c-15 -26.667 -31.833 -51.667 -50.5 -75s-39.667 -42.833 -63 -58.5s-50 -23.5 -80 -23.5s-57 6.66699 -81 20s-44.333 30.833 -61 52.5s-29.5 46.334 -38.5 74.001s-13.5 55.5 -13.5 83.5c0 3.33301 1.66699 9.66602 5 18.999s6 15.333 8 18
c16 -12.667 29 -29.667 39 -51l31 -63c10.667 -20.667 23.167 -38.667 37.5 -54s34.166 -23 59.499 -23c22 0 41.167 4 57.5 12s31.5 18.667 45.5 32s27.5 28.5 40.5 45.5s27.5 34.167 43.5 51.5l24 40.5l36.5 62.5l42.5 73.5l41.5 73.5l35.5 62.5
c10.667 18.333 18.334 32.166 23.001 41.499c1.33301 2.66699 4.5 9.66699 9.5 21l15.5 36l15.5 36c5 11.333 8.16699 18.333 9.5 21c4 8.66699 10.333 13 19 13c11.333 0 19.333 -6.33301 24 -19s7.66699 -26.667 9 -42s1.66602 -29.833 0.999023 -43.5
s-1 -21.834 -1 -24.501c0 -46 -2.33301 -92 -7 -138s-7 -92 -7 -138v-83c4.66699 10 11.834 26.667 21.501 50l33 80.5l39.5 95.5l39.5 95l33.5 79.5c10 23 17.667 39.5 23 49.5c10 18.667 22 39.834 36 63.501s30 46 48 67s38 38.5 60 52.5s45.667 21 71 21
c-37.333 -24.667 -71.833 -59.334 -103.5 -104.001s-61 -94.5 -88 -149.5s-51.667 -112.5 -74 -172.5l-61.5 -172l-50.5 -148.5c-15 -44.333 -28.833 -78.333 -41.5 -102s-24 -34.334 -34 -32.001s-19.333 22.5 -28 60.5z" />
    <glyph glyph-name="O" unicode="O" horiz-adv-x="493" 
d="M82 -1c-18 0.666992 -31.8301 5.00488 -41.4971 13.0049s-16.5 18.167 -20.5 30.5s-5.83301 26 -5.5 41s1.83301 29.5 4.5 43.5c34 103.333 66.667 190.5 98 261.5s61 129.167 89 174.5s54.167 79.5 78.5 102.5s47.166 38.167 68.499 45.5s40.666 8.16602 57.999 2.49902
s32.833 -14.334 46.5 -26.001s25.167 -24.834 34.5 -39.501s16.666 -27.667 21.999 -39c-2.66699 -65.333 -15.167 -129.833 -37.5 -193.5s-52.5 -122.834 -90.5 -177.501s-82.833 -102.834 -134.5 -144.501s-108.167 -73.167 -169.5 -94.5zM335.003 620.005
c-14.667 -2.66699 -30.833 -15.832 -48.5 -39.499s-35.834 -53 -54.501 -88s-37 -73.833 -55 -116.5s-34.667 -84.334 -50 -125.001s-28.5 -78.167 -39.5 -112.5s-18.5 -60.833 -22.5 -79.5c24.667 0 51.334 7.16699 80.001 21.5s56 32 82 53s49 43.5 69 67.5
s33 45.667 39 65v3c0 0.666992 0.166992 1.16699 0.5 1.5s0.5 0.833008 0.5 1.5s-0.166992 1.33398 -0.5 2.00098s-0.5 1.33398 -0.5 2.00098v2c-14.667 25.333 -25.667 52.666 -33 81.999s-11 59.166 -11 89.499s3.5 60 10.5 89s18.167 56.167 33.5 81.5zM449.004 647.007
c-34.667 -10.667 -60.666 -28.834 -77.999 -54.501s-28.333 -54.5 -33 -86.5s-4 -65.167 2 -99.5s14.667 -64.833 26 -91.5c70 76.667 106.667 168 110 274c0 5.33301 0.166992 11.333 0.5 18s-0.166992 12.834 -1.5 18.501s-3.83301 10.5 -7.5 14.5
s-9.83398 6.33301 -18.501 7z" />
    <glyph glyph-name="P" unicode="P" horiz-adv-x="381" 
d="M5 25c0 24.667 6.6709 50.8408 20.0039 78.5078s28 55.834 44 84.501s30.667 56.667 44 84s20 52.666 20 75.999c0 8.66699 -2 17.167 -6 25.5s-8.5 16.5 -13.5 24.5s-9.5 16.167 -13.5 24.5s-6 17.166 -6 26.499c0 11.333 4.33301 22.166 13 32.499s18.667 15.5 30 15.5
c0 -6 0.333008 -13 1 -21s2 -15.833 4 -23.5s5.33301 -14.667 10 -21s11 -10.833 19 -13.5c6.66699 18 16.667 41.167 30 69.5s29.166 58.5 47.499 90.5s38.5 64.167 60.5 96.5s44.667 61.5 68 87.5s46.5 47.167 69.5 63.5s45.167 24.5 66.5 24.5
c16 0 29.5 -3.33301 40.5 -10s20.167 -15.334 27.5 -26.001s12.666 -22.834 15.999 -36.501s5 -27.834 5 -42.501c0 -53.333 -11.167 -102.833 -33.5 -148.5s-52 -85.834 -89 -120.501s-79 -62.834 -126 -84.501s-95.167 -34.834 -144.5 -39.501l-26 -38l-114 -279
c-4.66699 -10.667 -9.83398 -17.667 -15.501 -21s-12.834 -5 -21.501 -5c-18 0 -27 8.66699 -27 26zM500.004 786.007c-18 0 -36.666 -6.66699 -55.999 -20s-38.5 -30.833 -57.5 -52.5s-37 -45.834 -54 -72.501s-31.833 -53.167 -44.5 -79.5
s-22.834 -51.166 -30.501 -74.499s-11.5 -42.333 -11.5 -57c0 -1.33301 0.166992 -5.33301 0.5 -12s0.5 -11 0.5 -13c41.333 2 79.833 13.333 115.5 34s66.5 46.834 92.5 78.501s46.5 67.167 61.5 106.5s22.5 78.666 22.5 117.999c0 18 -2 29.833 -6 35.5s-15 8.5 -33 8.5z
" />
    <glyph glyph-name="Q" unicode="Q" horiz-adv-x="576" 
d="M297 127c-26.667 -21.333 -56.333 -39.501 -89 -54.501s-66.667 -22.5 -102 -22.5c-14.667 0 -27.5 2.66699 -38.5 8s-20.167 12.5 -27.5 21.5s-12.833 19.167 -16.5 30.5s-5.5 23.333 -5.5 36c0 30 5 62 15 96s23.5 68.333 40.5 103s36.833 69 59.5 103
s46.834 66.333 72.501 97s51.667 59 78 85s52.166 48 77.499 66v11c-7.33301 3.33301 -15.5 2.5 -24.5 -2.5s-17.333 -10.333 -25 -16s-14.167 -9.33398 -19.5 -11.001s-8.33301 2.5 -9 12.5c0 20 6.83301 34.667 20.5 44s29.5 14 47.5 14
c28.667 0 55.334 -6.16699 80.001 -18.5s46 -28.5 64 -48.5s32 -43 42 -69s15 -52.667 15 -80c0 -31.333 -5.33301 -61.666 -16 -90.999s-24 -57.833 -40 -85.5s-33.833 -54.167 -53.5 -79.5l-56.5 -73c-2.66699 -11.333 -4.83398 -21.5 -6.50098 -30.5s-3 -17.667 -4 -26
s-1.66699 -16.833 -2 -25.5s-0.5 -18 -0.5 -28c0 -12 1 -21.333 3 -28s5.5 -12.167 10.5 -16.5s11.667 -8.16602 20 -11.499l30.5 -12v-3v-2c0 -0.666992 0.333008 -1 1 -1c0 -5.33301 -2.33301 -9.5 -7 -12.5s-10 -5 -16 -6s-12 -1.5 -18 -1.5h-13
c-15.333 0 -28.833 4.16699 -40.5 12.5s-21.167 18.833 -28.5 31.5s-12.5 26.5 -15.5 41.5s-3.83301 29.167 -2.5 42.5zM69.001 151.999c0 -14.667 2.66797 -24.833 8.00098 -30.5s15 -8.5 29 -8.5c17.333 0 38.333 3.33301 63 10s48.5 16.167 71.5 28.5s42.667 27 59 44
s24.5 35.833 24.5 56.5c0 10.667 -2 18.834 -6 24.501s-8.83301 10 -14.5 13s-11.834 5.16699 -18.501 6.5s-12.834 3.16602 -18.501 5.49902s-10.5 6 -14.5 11s-6 12.5 -6 22.5c12 14.667 24.5 22.667 37.5 24s25.667 -1 38 -7s24.166 -14.833 35.499 -26.5
s21 -23.167 29 -34.5c1.33301 0.666992 3.5 2.66699 6.5 6s5.16699 5.66602 6.5 6.99902c10.667 19.333 22.5 38.666 35.5 57.999l36.5 56c11.333 18 21 35.5 29 52.5s12.333 33.167 13 48.5v6c0 12.667 -2.83301 27.834 -8.5 45.501s-13.167 34.834 -22.5 51.501
s-20.166 30.834 -32.499 42.501s-25.166 18.167 -38.499 19.5c-6 -16 -11 -28.5 -15 -37.5s-7 -15.5 -9 -19.5s-3.5 -6.5 -4.5 -7.5s-1.83301 -1.5 -2.5 -1.5c-4 0 -6.83301 1.5 -8.5 4.5s-3 6.33301 -4 10s-2.33301 7 -4 10s-4.5 4.5 -8.5 4.5
c-8 0 -18.167 -6.33301 -30.5 -19s-26 -29.5 -41 -50.5s-30.667 -45.167 -47 -72.5s-32.333 -55.666 -48 -84.999l-45.5 -87.5c-14.667 -29 -27.5 -55.833 -38.5 -80.5s-19.667 -45.834 -26 -63.501s-9.5 -29.834 -9.5 -36.501z" />
    <glyph glyph-name="R" unicode="R" horiz-adv-x="575" 
d="M473 -104c-29.333 0 -52.8389 6.82422 -70.5059 20.4912s-31.167 31.834 -40.5 54.501s-15.666 48.334 -18.999 77.001s-5.5 57.834 -6.5 87.501s-1.66699 58.667 -2 87s-2.33301 53.333 -6 75s-10 38.834 -19 51.501s-22.5 18 -40.5 16
c-4.66699 -8 -11.5 -20.667 -20.5 -38l-31 -58l-36.5 -68l-36.5 -68.5l-31.5 -58.5c-9.33301 -17.333 -16.333 -30 -21 -38c-5.33301 -8.66699 -9 -15.667 -11 -21s-4.16699 -9.33301 -6.5 -12s-5.16602 -4.33398 -8.49902 -5.00098s-8.66602 -1 -15.999 -1
c-13.333 0 -22.5 2 -27.5 6s-7.5 12.667 -7.5 26c11.333 42 26.333 83.5 45 124.5s39.334 81.833 62.001 122.5s46.667 81.167 72 121.5l75 119.5l55 81c20.667 30.667 43.834 59.834 69.501 87.501s53.5 51 83.5 70s62.333 28.5 97 28.5
c12 0.666992 23.333 -1.16602 34 -5.49902s19.834 -10.666 27.501 -18.999s13 -18.166 16 -29.499s3.16699 -23.333 0.5 -36c0 -32 -6.66699 -62.667 -20 -92s-30 -56.666 -50 -81.999s-41.667 -48.5 -65 -69.5s-45 -39 -65 -54s-36.667 -26.833 -50 -35.5
s-20 -13.334 -20 -14.001c0 -8 0.166992 -22.833 0.5 -44.5s1.33301 -46.5 3 -74.5s4 -57.5 7 -88.5s7.33301 -60 13 -87s12.834 -50 21.501 -69s19.334 -30.833 32.001 -35.5c2 -0.666992 6.66699 -1.66699 14 -3s15.166 -2.66602 23.499 -3.99902s16.333 -2.5 24 -3.5
s12.5 -1.83301 14.5 -2.5c1.33301 -0.666992 3.66602 -2.66699 6.99902 -6s5.33301 -5.66602 6 -6.99902c-7.33301 -6 -14 -10.667 -20 -14s-11.667 -6 -17 -8s-11 -3.16699 -17 -3.5s-13 -0.5 -21 -0.5zM305.994 450.991c0 -9.33301 1.66797 -16.498 5.00098 -21.498
s7.83301 -8.5 13.5 -10.5s12.167 -3.16699 19.5 -3.5s15.333 -0.5 24 -0.5c26 0 52.167 9.33301 78.5 28s50 41.5 71 68.5s38 55.667 51 86s19.5 57.5 19.5 81.5c0 6.66699 0.166992 13.167 0.5 19.5s-0.333984 12.166 -2.00098 17.499s-4.5 9.66602 -8.5 12.999
s-10 5 -18 5c-15.333 0 -32.166 -5 -50.499 -15s-36.833 -23.167 -55.5 -39.5s-36.834 -34.833 -54.501 -55.5s-33.5 -41.5 -47.5 -62.5s-25.167 -41.167 -33.5 -60.5s-12.5 -36 -12.5 -50z" />
    <glyph glyph-name="S" unicode="S" horiz-adv-x="575" 
d="M5 216c0 10.667 0.670898 22.167 2.00391 34.5s4.33301 23.833 9 34.5s11.334 19.5 20.001 26.5s20.334 10.5 35.001 10.5c0 -8.66699 -0.833008 -16.5 -2.5 -23.5s-3.5 -14 -5.5 -21s-3.83301 -14.5 -5.5 -22.5s-2.5 -17 -2.5 -27
c0 -24.667 3.16699 -47.834 9.5 -69.501s16.166 -40.5 29.499 -56.5s30 -28.5 50 -37.5s43.667 -13.5 71 -13.5c12 0 26.333 2.66699 43 8s33.5 11.5 50.5 18.5s32.667 14 47 21s24.5 12.167 30.5 15.5c14 8 25.167 19 33.5 33s14.833 29.333 19.5 46s7.66699 33.5 9 50.5
s2 32.5 2 46.5c0 22 -2.16699 43.667 -6.5 65s-9 42.5 -14 63.5s-9.5 41.833 -13.5 62.5s-6 41.667 -6 63c6.66699 20 17.667 38.333 33 55s33 31.167 53 43.5s41.333 22 64 29s45 11.167 67 12.5c17.333 -4.66699 30.666 -10.5 39.999 -17.5s15.666 -14.333 18.999 -22
s4.16602 -15.167 2.49902 -22.5s-4.83398 -13.666 -9.50098 -18.999c-10.667 23.333 -26 35.5 -46 36.5s-40.833 -4 -62.5 -15s-41.5 -25 -59.5 -42s-30.333 -31.5 -37 -43.5c0 -19.333 2 -38.333 6 -57s8.5 -37.334 13.5 -56.001s9.66699 -37.334 14 -56.001
s6.5 -37.667 6.5 -57c0 -47.333 -7.33301 -90.166 -22 -128.499s-35.834 -71.333 -63.501 -99s-61.167 -49 -100.5 -64s-83.666 -22.5 -132.999 -22.5c-30.667 0 -57.834 6.16699 -81.501 18.5s-43.5 28.833 -59.5 49.5s-28.167 43.834 -36.5 69.501
s-12.5 52.167 -12.5 79.5z" />
    <glyph glyph-name="T" unicode="T" horiz-adv-x="486" 
d="M131 24c0 15.333 3.16797 31.334 9.50098 48.001s12.166 30.667 17.499 42l22 42.5l33.5 65l39 76l39.5 76l34 65l22 42.5c0.666992 0.666992 2.16699 3 4.5 7s5 8 8 12s5.66699 7.83301 8 11.5s3.83301 6.16699 4.5 7.5s0.333984 2.5 -0.999023 3.5s-2 2.16699 -2 3.5
c-28 -3.33301 -57.167 -7.5 -87.5 -12.5s-60.333 -11 -90 -18s-58.167 -15 -85.5 -24s-52 -18.833 -74 -29.5c-7.33301 0 -13.833 1.33301 -19.5 4s-8.5 8 -8.5 16v3c0 0.666992 0.333008 1.66699 1 3c1.33301 3.33301 3.5 8.33301 6.5 15s5.16699 10.334 6.5 11.001l88 38
l595 152c7.33301 -18.667 6.83301 -33.334 -1.5 -44.001s-21.166 -19.334 -38.499 -26.001s-37.666 -12.5 -60.999 -17.5s-46.5 -11 -69.5 -18s-44.333 -16 -64 -27s-34.167 -26.167 -43.5 -45.5l-130 -251c-44.667 -82.667 -85.667 -167.667 -123 -255
c-0.666992 -0 -1.83398 -0.166992 -3.50098 -0.5s-2.83398 -0.5 -3.50098 -0.5c-8.66699 0 -16.334 1.83301 -23.001 5.5s-10 10.167 -10 19.5z" />
    <glyph glyph-name="U" unicode="U" horiz-adv-x="541" 
d="M18 82c0 25.333 3.83496 50.3262 11.502 74.9932s16.834 48.334 27.501 71.001c4.66699 10 11 24.833 19 44.5l26.5 65.5l29.5 74.5l28.5 71.5l23 56.5c6.33301 15.667 10.833 25.834 13.5 30.501c23.333 11.333 38.333 12.333 45 3s7.66699 -25 3 -47
s-13.334 -48.667 -26.001 -80s-26.667 -63.5 -42 -96.5l-45.5 -96l-36.5 -77.5c-17.333 -37.333 -26.833 -64.333 -28.5 -81s3 -24.167 14 -22.5s28.167 11.334 51.5 29.001s51.5 41.667 84.5 72l111.5 107.5l134 136c11.333 14.667 22.333 32.334 33 53.001l31.5 62.5
c10.333 21 20.5 40.667 30.5 59s19.833 32.833 29.5 43.5s19.5 16.167 29.5 16.5s20 -7.5 30 -23.5c-12.667 -36.667 -30.167 -76.167 -52.5 -118.5l-66 -131c-21.667 -45 -40.334 -90.5 -56.001 -136.5s-23.5 -90.667 -23.5 -134c0 -12 3.5 -19.5 10.5 -22.5
s15.5 -4.5 25.5 -4.5s20.5 0.5 31.5 1.5s20.167 -0.166992 27.5 -3.5c-3.33301 -6 -6 -12 -8 -18s-4.16699 -11.667 -6.5 -17s-5.5 -9.66602 -9.5 -12.999s-9.33301 -5 -16 -5c-13.333 -6 -28.333 -5.5 -45 1.5s-31.167 20.667 -43.5 41s-20.833 46.833 -25.5 79.5
s-1.33398 71.667 9.99902 117l-29.5 -27l-44.5 -40.5l-52.5 -47l-52.5 -47l-45 -40.5l-29 -26l-13 -9.5c-6 -4.33301 -12.333 -8.66602 -19 -12.999s-13.5 -8.16602 -20.5 -11.499s-12.833 -5 -17.5 -5c-10.667 0 -19.667 2.66699 -27 8s-13.333 12.166 -18 20.499
s-8 17.333 -10 27s-3 18.834 -3 27.501z" />
    <glyph glyph-name="V" unicode="V" horiz-adv-x="364" 
d="M44 13l-0.00683594 8.49414c0 4.33301 -0.166992 8.83301 -0.5 13.5s-0.5 9 -0.5 13v9c0 28.667 2 57.334 6 86.001s8.5 57 13.5 85s9.66699 56.167 14 84.5s6.5 57.166 6.5 86.499v16v25c0 8.66699 -0.166992 16.834 -0.5 24.501s-0.5 13.167 -0.5 16.5
c-4 6.66699 -9.66699 11.334 -17 14.001l-22 8c-7.33301 2.66699 -13.666 5.83398 -18.999 9.50098s-8 9.83398 -8 18.501c0 6 1.66699 10.833 5 14.5s7.33301 6.5 12 8.5s9.83398 3.16699 15.501 3.5s10.834 0.5 15.501 0.5c32 0 55.667 -10 71 -30s23 -46 23 -78
c0 -29.333 -2.66699 -58.166 -8 -86.499s-11.166 -56.5 -17.499 -84.5s-12.166 -56.167 -17.499 -84.5s-8 -57.166 -8 -86.499v-7c2.66699 2 7.16699 6 13.5 12l19.5 19l19 19.5c6 6.33301 10 10.833 12 13.5c36 43.333 68.333 88.5 97 135.5s55 92.333 79 136l67 122
c20.667 37.667 41.334 68.667 62.001 93s42.167 40.5 64.5 48.5s46.833 4.66699 73.5 -10c0 -8 -2.66699 -13.667 -8 -17s-11.666 -6 -18.999 -8s-14.5 -4.16699 -21.5 -6.5s-12.167 -6.5 -15.5 -12.5c-62 -110 -128.667 -219 -200 -327s-148 -210 -230 -306
c-7.33301 -6 -13.5 -9.83301 -18.5 -11.5s-11.5 -2.5 -19.5 -2.5s-14.5 0.833008 -19.5 2.5s-11.167 5.5 -18.5 11.5z" />
    <glyph glyph-name="W" unicode="W" horiz-adv-x="673" 
d="M36 56c0 3.33301 0.332031 9.33496 0.999023 18.002s1 13.667 1 15c19.333 79.333 34.166 142.166 44.499 188.499l23 105.5c5 24 8 39.833 9 47.5s1.5 12.834 1.5 15.501c0 4 0.166992 10.833 0.5 20.5s0 19.5 -1 29.5s-3.5 18.833 -7.5 26.5s-10 11.5 -18 11.5
s-14.833 -2.66699 -20.5 -8s-11.167 -10.833 -16.5 -16.5s-11 -10.5 -17 -14.5s-13.667 -4.33301 -23 -1c8.66699 28 20.167 47.667 34.5 59s34.833 17 61.5 17c16.667 0 29 -3 37 -9s13.5 -14 16.5 -24s4.5 -21.5 4.5 -34.5v-40.5c0 -24.667 -2.16699 -49.167 -6.5 -73.5
s-9 -48.5 -14 -72.5s-9.66699 -48 -14 -72s-6.5 -48.333 -6.5 -73c0 -1.33301 0.166992 -4.5 0.5 -9.5s0.5 -8.16699 0.5 -9.5l13 13l128 185.5l77 112c19.333 27 34 45.333 44 55s19.667 14.5 29 14.5c8 0 14.5 -2.33301 19.5 -7s8.83301 -10.167 11.5 -16.5
s4.5 -13.166 5.5 -20.499s1.5 -14 1.5 -20v-303h13l341 519c17.333 25.333 35.5 42.166 54.5 50.499s43.167 8.16602 72.5 -0.500977l-101 -101l-138 -218.5l-93.5 -157l-60.5 -105.5c-15.333 -27.333 -28.333 -48.5 -39 -63.5s-20 -25.333 -28 -31s-17 -8.5 -27 -8.5
c-17.333 0 -30 5.5 -38 16.5s-13.5 24.167 -16.5 39.5s-4.33301 31.166 -4 47.499s0.5 29.5 0.5 39.5c0 24 0.166992 45.5 0.5 64.5s0.833008 38 1.5 57s1.83398 38.833 3.50098 59.5s4.16699 44 7.5 70l-144 -217c-37.333 -55.333 -67.666 -98.166 -90.999 -128.499
s-41.833 -50.833 -55.5 -61.5s-25.834 -16 -36.501 -16c-17.333 0 -28.666 2.66699 -33.999 8s-8 14.666 -8 27.999z" />
    <glyph glyph-name="X" unicode="X" horiz-adv-x="671" 
d="M69 22c0 0.666992 0.330078 1.66406 0.99707 2.99707l37 39l45 48.5c15.333 17 30.166 34.333 44.499 52s26.833 34.5 37.5 50.5c2 3.33301 4.66699 8.16602 8 14.499s5 10.166 5 11.499c-10 28.667 -17.5 59.334 -22.5 92.001s-8.5 65.834 -10.5 99.501
s-3.16699 66.5 -3.5 98.5s-0.833008 61.667 -1.5 89c-6.66699 14 -18 22 -34 24s-33.333 1.33301 -52 -2s-37 -7.66602 -55 -12.999s-32.333 -8.33301 -43 -9h-6c5.33301 16.667 15.166 31 29.499 43s31.166 21.333 50.499 28s39.5 10.334 60.5 11.001
s40.5 -2.16602 58.5 -8.49902s33.167 -16.5 45.5 -30.5s19.5 -32.333 21.5 -55l12 -304c11.333 7.33301 24.166 19 38.499 35s29.333 34.167 45 54.5s31.334 41.833 47.001 64.5l46 67l42.5 61c13.333 18.667 25 34.334 35 47.001c14.667 20.667 26.334 30.667 35.001 30
s14.167 -6.16699 16.5 -16.5s1.33301 -23.333 -3 -39s-12.166 -28.167 -23.499 -37.5l-101.5 -134.5l-68.5 -93l-41.5 -58.5c-9.66699 -14 -16.834 -24.833 -21.501 -32.5s-7.33398 -12.667 -8.00098 -15s-1 -3.83301 -1 -4.5c0 -36.667 10.833 -67.167 32.5 -91.5
s48.167 -43.833 79.5 -58.5s64.5 -25.334 99.5 -32.001s66.167 -10.667 93.5 -12c-8 -8 -12.833 -14.5 -14.5 -19.5s-3 -9.16699 -4 -12.5s-3 -5.66602 -6 -6.99902s-9.5 -2 -19.5 -2c-29.333 0 -58.166 3.33301 -86.499 10s-55.166 16.334 -80.499 29.001
s-49.166 27.667 -71.499 45s-42.166 36.666 -59.499 57.999c-2.66699 3.33301 -7.16699 8.33301 -13.5 15s-10.166 10.334 -11.499 11.001c-4.66699 1.33301 -11.167 -1.83398 -19.5 -9.50098s-17.666 -17.667 -27.999 -30l-33.5 -40.5
c-12 -14.667 -24.333 -28.334 -37 -41.001s-25.167 -23.167 -37.5 -31.5s-23.833 -12.5 -34.5 -12.5c-5.33301 -0 -8.83301 2.33301 -10.5 7s-2.5 8.66699 -2.5 12v3z" />
    <glyph glyph-name="Y" unicode="Y" horiz-adv-x="588" 
d="M-239 -730c52 14.667 100.996 41.8271 146.996 81.4941s89 86.5 129 140.5s77 113 111 177s65.167 128.167 93.5 192.5s54 126.333 77 186l60 158c17 45.667 31.333 81.667 43 108s20.834 38.5 27.501 36.5c-16 -18 -36.5 -39 -61.5 -63s-52.333 -46.667 -82 -68
s-60 -39.5 -91 -54.5s-60.5 -22.5 -88.5 -22.5c-18 0 -32.667 4 -44 12s-20.333 18.333 -27 31s-11.167 27 -13.5 43s-3.5 32 -3.5 48c0 14 3.66699 33.833 11 59.5s16.833 53.834 28.5 84.501s24.667 61.834 39 93.501s28.833 60.5 43.5 86.5s28.667 47.333 42 64
s24.666 25 33.999 25c8.66699 0 16.334 -1.83301 23.001 -5.5s10 -10.167 10 -19.5c0 -12 -3.33301 -23.167 -10 -33.5s-16.667 -16.5 -30 -18.5c-9.33301 -10.667 -19.666 -26 -30.999 -46s-22.666 -42.167 -33.999 -66.5s-21.833 -49.833 -31.5 -76.5s-17 -52 -22 -76
s-7.16699 -45.667 -6.5 -65s5.83398 -33.833 15.501 -43.5s24.334 -13.5 44.001 -11.5s45.834 12.333 78.501 31c33.333 24 64.666 50.167 93.999 78.5s56.333 57.166 81 86.499s46.834 58 66.501 86s36.667 53.167 51 75.5s25.666 41 33.999 56s13.833 24.5 16.5 28.5
c7.33301 10.667 13.5 19.334 18.5 26.001s10.667 12 17 16s13.833 6.66699 22.5 8s20 2 34 2c-5.33301 -18 -12.666 -37.5 -21.999 -58.5l-38 -82l-59.5 -128l-87 -196l-120.5 -285.5l-159 -397c-14 -27.333 -33.333 -57.666 -58 -90.999s-51.834 -65.666 -81.501 -96.999
s-60.334 -60.166 -92.001 -86.499s-61 -46.166 -88 -59.499s-50.5 -18.5 -70.5 -15.5s-33.333 18.167 -40 45.5z" />
    <glyph glyph-name="Z" unicode="Z" horiz-adv-x="853" 
d="M568 -1c-36 2 -69.832 9.16113 -101.499 21.4941l-96.5 37.5c-32.667 12.667 -67 22.834 -103 30.501s-76.333 7.83398 -121 0.500977c-8 -2 -16.833 -6.66699 -26.5 -14s-18.667 -15.166 -27 -23.499s-15.833 -16.166 -22.5 -23.499s-11 -12.333 -13 -15
c-1.33301 0 -3.5 -0.166992 -6.5 -0.5s-5.16699 -0.5 -6.5 -0.5c-17.333 0 -26 8.66699 -26 26c0 1.33301 0.166992 3.5 0.5 6.5s0.5 5.16699 0.5 6.5l124.5 123c41.667 41.333 80.834 84.333 117.501 129s69.667 91.5 99 140.5s52 101.833 68 158.5
c-26 -2 -53.833 -4.66699 -83.5 -8s-59.167 -8.33301 -88.5 -15s-57.333 -15.834 -84 -27.501s-50 -26.834 -70 -45.501c-10 0 -16 3.66699 -18 11s-3 14.666 -3 21.999c0 6 0.166992 10.5 0.5 13.5s1.16602 5.33301 2.49902 7s3.83301 3.16699 7.5 4.5l16.5 6
c24.667 9.33301 50.667 20 78 32s55.166 23.167 83.499 33.5s57 19 86 26s58.167 10.5 87.5 10.5h9c4 0 8.33301 -0.166992 13 -0.5s9.16699 -0.5 13.5 -0.5h8.5c14 -5.33301 22 -12.166 24 -20.499s3 -17.833 3 -28.5c0 -19.333 -2 -36.166 -6 -50.499
s-11 -31.833 -21 -52.5l-66.5 -93l-75.5 -100l-80 -98.5c-27.333 -32.333 -54.333 -61.833 -81 -88.5c10 0.666992 24 1.5 42 2.5s37.5 1.16699 58.5 0.5s41.833 -2 62.5 -4s38 -5.66699 52 -11c16 -6.66699 30.667 -13.667 44 -21s26.5 -14.166 39.5 -20.499
s26.333 -11.666 40 -15.999s28.834 -6.5 45.501 -6.5c29.333 0 58.166 3.5 86.499 10.5s56 14.833 83 23.5s53.5 16.5 79.5 23.5s51 10.5 75 10.5v-17c0 -0.666992 -3.33301 -3.16699 -10 -7.5s-14.667 -9.16602 -24 -14.499l-29 -16l-25 -13
c-40 -18.667 -78.5 -34 -115.5 -46s-77.167 -18 -120.5 -18z" />
    <glyph glyph-name="bracketleft" unicode="[" horiz-adv-x="627" 
d="M18 102c3.33301 8 7.66797 14.999 13.001 20.999s11.833 15.333 19.5 28s16.834 30.334 27.501 53.001s23 54.834 37 96.501s29.833 94.334 47.5 158.001s37.5 142.834 59.5 237.501l5 33.5c2 13.667 4.66699 27.167 8 40.5s8 26 14 38s13.667 21 23 27
c4.66699 0 12.667 0.166992 24 0.5s23.333 0.666016 36 0.999023s24.667 0.5 36 0.5h24h31.5c13 0 26 -0.166992 39 -0.5s24.333 -0.666016 34 -0.999023s15.167 -0.5 16.5 -0.5c6 0 14.667 -0.333008 26 -1s22.833 -2.33398 34.5 -5.00098s21.667 -6.83398 30 -12.501
s12.5 -13.834 12.5 -24.501c0 -10 -2.33301 -20.167 -7 -30.5s-13.334 -15.5 -26.001 -15.5c-0.666992 0 -1.83398 0.166992 -3.50098 0.5s-2.83398 0.5 -3.50098 0.5c-3.33301 2.66699 -13.833 5.16699 -31.5 7.5s-38.667 3.66602 -63 3.99902
s-49.833 -0.166992 -76.5 -1.5s-50.667 -4.33301 -72 -9s-38 -11.167 -50 -19.5s-15.667 -19.166 -11 -32.499c-28.667 -91.333 -55.334 -183.666 -80.001 -276.999l-72 -280c0 -0.666992 -0.166992 -3.33398 -0.5 -8.00098s-0.5 -8.33398 -0.5 -11.001v-8
c0 -3.33301 0.333008 -6.66602 1 -9.99902s2 -6.33301 4 -9s5 -4 9 -4h278c7.33301 0 11.5 -3.33301 12.5 -10s1.5 -12 1.5 -16c0 -1.33301 -0.166992 -3.33301 -0.5 -6s-0.5 -4.66699 -0.5 -6c-40.667 -14.667 -83.167 -27 -127.5 -37s-88.166 -15 -131.499 -15
c-16.667 0 -33.667 1.33301 -51 4s-33.166 7.66699 -47.499 15s-26 17.833 -35 31.5s-13.5 31.167 -13.5 52.5z" />
    <glyph glyph-name="backslash" unicode="\" horiz-adv-x="259" 
d="M12 696c0 3.33301 0.166992 7.16699 0.5 11.5s1.16602 8.5 2.49902 12.5s3.33301 7.5 6 10.5s6.33398 4.5 11.001 4.5h3.5c1.66699 0 2.5 -0.333008 2.5 -1c3.33301 -2 8.33301 -6.33301 15 -13s10.334 -10.667 11.001 -12l177 -658v-51
c-12.667 4.66699 -23.334 11 -32.001 19s-15 18.667 -19 32l-177 633c-0.666992 1.33301 -1 3 -1 5v7v0z" />
    <glyph glyph-name="bracketright" unicode="]" horiz-adv-x="645" 
d="M43 38c0 2.66699 1.66797 7.16699 5.00098 13.5s6 10.166 8 11.499c6 7.33301 20.333 12.666 43 15.999s49.5 5.16602 80.5 5.49902s64 0 99 -1s67.333 -1.66699 97 -2s54.834 -0.166016 75.501 0.500977s32.334 3 35.001 7c6.66699 14 10.834 29.333 12.501 46
s2.33398 33.334 2.00098 50.001s-1 33 -2 49s-0.833008 30.667 0.5 44l6.5 60l10.5 92l13 107.5l13.5 108l11.5 92c3.33301 27 6 46.833 8 59.5v26h-304c-4 0 -8.83301 1.66699 -14.5 5s-11.334 7.16602 -17.001 11.499s-10.334 9 -14.001 14s-5.5 9.5 -5.5 13.5
c0 3.33301 1.5 7 4.5 11s6.5 7.5 10.5 10.5s8.16699 5.5 12.5 7.5s8.16602 3 11.499 3h377l-74 -734v-140c0 -3.33301 -3.16699 -8.16602 -9.5 -14.499s-11.5 -9.83301 -15.5 -10.5c-1.33301 0 -4.5 0.5 -9.5 1.5s-10.333 2.33301 -16 4s-11 3.33398 -16 5.00098
s-8.16699 2.5 -9.5 2.5c-12.667 4 -30.334 5.5 -53.001 4.5s-47.667 -2.66699 -75 -5l-86 -7.5c-30 -2.66699 -58.833 -3.66699 -86.5 -3s-52.834 3.5 -75.501 8.5s-40.667 14.167 -54 27.5z" />
    <glyph glyph-name="asciicircum" unicode="^" horiz-adv-x="386" 
d="M38 739c0 5.33301 3.16992 13.666 9.50293 24.999s14.333 24 24 38s20.5 28.333 32.5 43s23.667 28 35 40s21.833 21.833 31.5 29.5s17.167 11.5 22.5 11.5c15.333 0 32 -7.16699 50 -21.5s34.667 -30.833 50 -49.5s28.166 -37.5 38.499 -56.5s15.5 -32.833 15.5 -41.5
c-0.666992 -14 -4.33398 -20.333 -11.001 -19s-15 7 -25 17s-20.5 22.333 -31.5 37l-31.5 41.5c-10 13 -18.5 23.5 -25.5 31.5s-11.167 10 -12.5 6c-4.66699 0 -7.83398 -0.666992 -9.50098 -2s-4.16699 -3.66602 -7.5 -6.99902c-14 -6 -26.5 -14.5 -37.5 -25.5
s-21.167 -22.667 -30.5 -35s-17.833 -24.333 -25.5 -36s-15 -21.167 -22 -28.5s-13.667 -11.333 -20 -12s-12.833 4 -19.5 14z" />
    <glyph glyph-name="underscore" unicode="_" horiz-adv-x="461" 
d="M64 80l31.001 -0.00390625c14 0 29.833 -0.166992 47.5 -0.5s36.5 -0.666016 56.5 -0.999023s38.833 -0.666016 56.5 -0.999023s33.5 -0.666016 47.5 -0.999023s24.333 -0.5 31 -0.5c3.33301 0 9.33301 -0.666992 18 -2l27 -4
c9.33301 -1.33301 18.166 -2.66602 26.499 -3.99902s14.166 -2.33301 17.499 -3c0.666992 -1.33301 1 -4.5 1 -9.5v-9.5v-8c0 -3.33301 -0.333008 -6.66602 -1 -9.99902s-2 -6.33301 -4 -9s-5 -4 -9 -4h-329c-1.33301 0 -3.66602 1.66699 -6.99902 5s-5 5.66602 -5 6.99902
c-0.666992 2 -1.33398 5.66699 -2.00098 11s-1.16699 11 -1.5 17s-0.666016 11.5 -0.999023 16.5s-0.5 8.5 -0.5 10.5z" />
    <glyph glyph-name="grave" unicode="`" horiz-adv-x="231" 
d="M88 820c9.33301 -4.66699 20.498 -14 33.498 -28s25.667 -29.167 38 -45.5s23.333 -32.166 33 -47.499s15.834 -26.333 18.501 -33c-2 -8 -7.83301 -9.66699 -17.5 -5s-21 12.667 -34 24s-26.333 24.666 -40 39.999s-24.667 29.833 -33 43.5s-13.166 25.5 -14.499 35.5
s4 15.333 16 16z" />
    <glyph glyph-name="a" unicode="a" horiz-adv-x="422" 
d="M18 63c6 37.333 17 71.5 33 102.5s34.667 58.167 56 81.5s44.333 42.5 69 57.5s48.667 24.667 72 29s45 3.16602 65 -3.50098s36 -19.667 48 -39c0 -15.333 -3.33301 -29.833 -10 -43.5s-14.167 -27.167 -22.5 -40.5s-15.833 -27.166 -22.5 -41.499
s-10 -29.833 -10 -46.5c0 -17.333 3.66699 -31 11 -41s20.666 -15 39.999 -15c15.333 0 30.333 2.33301 45 7s29.667 7 45 7c2 0 6.16699 -0.166992 12.5 -0.5s10.5 -0.5 12.5 -0.5c-8 -10.667 -18 -20 -30 -28s-25 -14.667 -39 -20s-28.167 -9.33301 -42.5 -12
s-27.833 -4 -40.5 -4c-12 0 -22.667 2.66699 -32 8s-17.166 12.166 -23.499 20.499s-11.333 17.833 -15 28.5s-5.5 21.334 -5.5 32.001l-31.5 -35c-11 -12 -23 -23 -36 -33s-26.667 -18.167 -41 -24.5s-29.5 -9.5 -45.5 -9.5c-17.333 0 -32 6.33301 -44 19
s-18 27.667 -18 45zM82 94c0 -5.33301 0.166016 -11.332 0.499023 -17.999s4.5 -11 12.5 -13c16.667 4 35.334 12.667 56.001 26s40 29 58 47s33.167 37.167 45.5 57.5s18.5 40.166 18.5 59.499c0 1.33301 -0.166992 3.5 -0.5 6.5s-0.5 5.16699 -0.5 6.5
c-22 0 -44.333 -4.66699 -67 -14s-43 -21.833 -61 -37.5s-32.833 -34 -44.5 -55s-17.5 -42.833 -17.5 -65.5z" />
    <glyph glyph-name="b" unicode="b" horiz-adv-x="437" 
d="M5 89c0 8 2.16699 17.5029 6.5 28.5029s10.833 18.167 19.5 21.5c1.33301 0.666992 3.16602 1.16699 5.49902 1.5s4.5 0.833008 6.5 1.5c2.66699 0.666992 5 1 7 1v-54c4 4 10 11.167 18 21.5l25.5 34l24.5 35c7.33301 11 12.333 18.833 15 23.5l227 443l5.5 6
c3.66699 4 8 6.83301 13 8.5s10.333 1 16 -2s11.167 -11.5 16.5 -25.5l-139 -279v-12c18.667 -2.66699 35.834 -6.5 51.501 -11.5s29.167 -12 40.5 -21s20.166 -20.167 26.499 -33.5s9.5 -29.333 9.5 -48c0 -32 -8.33301 -61.833 -25 -89.5s-38 -51.834 -64 -72.501
s-54.667 -37 -86 -49s-61.666 -18 -90.999 -18c-12.667 0 -26.5 1.83301 -41.5 5.5s-29 9.16699 -42 16.5s-23.833 16.666 -32.5 27.999s-13 24.666 -13 39.999zM283 280.003c-8.66699 0 -18.333 -4.16699 -29 -12.5s-21.334 -19.166 -32.001 -32.499
s-20.834 -28.333 -30.501 -45s-18.167 -33 -25.5 -49s-13.333 -31.167 -18 -45.5s-7 -25.833 -7 -34.5c18.667 0 39.334 4.16699 62.001 12.5s43.834 19.5 63.501 33.5s36.167 30.333 49.5 49s20 38 20 58c0 17.333 -3.66699 32.666 -11 45.999s-21.333 20 -42 20z" />
    <glyph glyph-name="c" unicode="c" horiz-adv-x="340" 
d="M247 354c-14.667 -2 -31.833 -11.3359 -51.5 -28.0029s-38.5 -37 -56.5 -61s-33.167 -49.667 -45.5 -77s-18.5 -53 -18.5 -77c0 -19.333 5 -32.5 15 -39.5s24 -10.5 42 -10.5c19.333 0 38.333 2.33301 57 7s37.167 9.83398 55.5 15.501s36.833 10.834 55.5 15.501
s37.667 7 57 7c0 -8.66699 -1.16699 -16.167 -3.5 -22.5s-6.16602 -13.166 -11.499 -20.499c-34 -16 -69 -30.667 -105 -44s-73.333 -20 -112 -20c-11.333 0 -23.666 2.16699 -36.999 6.5s-25.5 10.5 -36.5 18.5s-20.167 17.5 -27.5 28.5s-11 23.167 -11 36.5
c0 29.333 4.16699 57.833 12.5 85.5s20.166 53.834 35.499 78.501s33.333 47.5 54 68.5s43.667 39.167 69 54.5v1c10 6 21.167 11.833 33.5 17.5s24 8.83398 35 9.50098s20.333 -2 28 -8s11.5 -17.667 11.5 -35c0 -4 -0.166992 -8.66699 -0.5 -14
s-0.833008 -10.833 -1.5 -16.5s-2 -10.834 -4 -15.501s-4.33301 -8.33398 -7 -11.001c-2.66699 -2 -5.83398 -3.66699 -9.50098 -5l-10.5 -4c-4 -1.33301 -8 -2.33301 -12 -3v62v0z" />
    <glyph glyph-name="d" unicode="d" horiz-adv-x="508" 
d="M12 97c0 32.667 9.33203 64.4971 27.999 95.4971s42.334 58.5 71.001 82.5s60.167 43.333 94.5 58s67.166 22 98.499 22c12 0 23.667 -2.16699 35 -6.5s23 -6.5 35 -6.5h6c3.33301 7.33301 9.66602 20 18.999 38l30 57.5l31 57l21 37.5c7.33301 12 17.333 27.333 30 46
l37 54.5l31.5 45c9 12.333 14.167 18.5 15.5 18.5l38 -38c0 -1.33301 -2.5 -7.33301 -7.5 -18l-19.5 -40.5l-27 -54.5l-30.5 -60.5l-30 -58l-24.5 -46.5l-61 -93c-20.667 -31.333 -37 -60.666 -49 -87.999s-17.833 -51 -17.5 -71s11.166 -34 32.499 -42
c38.667 6.66699 67.834 9.5 87.501 8.5s32.167 -4.16699 37.5 -9.5s4.5 -11.833 -2.5 -19.5s-17.333 -14.5 -31 -20.5s-29.667 -10 -48 -12s-36.5 0 -54.5 6s-34.667 16.833 -50 32.5s-26.666 38.167 -33.999 67.5l-152 -126l-7.5 -2
c-5 -1.33301 -10.833 -2.66602 -17.5 -3.99902l-20.5 -4c-7 -1.33301 -12.833 -2.33301 -17.5 -3h-6c-15.333 0 -27.666 2.66699 -36.999 8s-16.5 12.5 -21.5 21.5s-8.33301 19.333 -10 31s-2.5 23.834 -2.5 36.501zM74.999 106.997
c0 -4 -0.168945 -8.49805 -0.501953 -13.498s0 -9.66699 1 -14s3 -8.16602 6 -11.499s7.5 -5 13.5 -5c8.66699 0 19 3.16699 31 9.5s23.833 13.666 35.5 21.999s22.5 16.833 32.5 25.5l22 19l25 25l38.5 38l38 38c11.667 12 19.834 20.667 24.501 26v3
c0 0.666992 0.166992 1.16699 0.5 1.5s0.5 0.833008 0.5 1.5c0 6 -1.66699 10.5 -5 13.5s-7.5 5 -12.5 6s-10.167 1.33301 -15.5 1s-9.66602 -0.5 -12.999 -0.5c-24 0 -49 -4.83301 -75 -14.5s-49.833 -22.834 -71.5 -39.501s-39.667 -36.334 -54 -59.001
s-21.5 -46.667 -21.5 -72z" />
    <glyph glyph-name="e" unicode="e" 
d="M16 51c-14.667 32.667 -18.833 64.499 -12.5 95.499s18.5 59 36.5 84s39.333 46 64 63s47.834 28.333 69.501 34s39.667 4.33398 54 -3.99902s19.833 -25.166 16.5 -50.499c0 -25.333 -8 -47.333 -24 -66s-33.5 -35.5 -52.5 -50.5l-52.5 -40.5
c-16 -12 -24 -23.333 -24 -34c0 -5.33301 3.5 -9.66602 10.5 -12.999s15 -5.83301 24 -7.5s18 -2.83398 27 -3.50098s15.5 -1.33398 19.5 -2.00098c61.333 12.667 107.166 20.5 137.499 23.5s49.5 2.83301 57.5 -0.5s6.5 -9 -4.5 -17s-27.5 -16 -49.5 -24
s-47.667 -15.167 -77 -21.5s-58.333 -10 -87 -11s-55 1.83301 -79 8.5s-42 19 -54 37zM187.001 272.999c-13.333 0 -25.834 -3.49902 -37.501 -10.499s-22.167 -15.833 -31.5 -26.5s-17.333 -22.334 -24 -35.001s-11.667 -24.667 -15 -36c1.33301 -0.666992 2.33301 -1 3 -1
h3c9.33301 0 19.833 3.83301 31.5 11.5s22.834 17.167 33.501 28.5s19.5 23.333 26.5 36s10.5 23.667 10.5 33z" />
    <glyph glyph-name="f" unicode="f" horiz-adv-x="453" 
d="M-223 -311c36.667 0 70.0029 10.499 100.003 31.499s57 46.833 81 77.5s44.667 63.5 62 98.5s31.666 66.5 42.999 94.5l18 48.5l21 60.5l17.5 53.5c5 15.667 7.5 24.834 7.5 27.501v4c-11.333 9.33301 -22.5 12.666 -33.5 9.99902s-21.5 -6 -31.5 -10
s-19.333 -6.5 -28 -7.5s-16 4.5 -22 16.5c0 11.333 3 20.333 9 27s13.5 11.834 22.5 15.501s19 6.5 30 8.5s21.667 4.33301 32 7s19.666 6.16699 27.999 10.5s14.5 10.833 18.5 19.5l101 228c8 18.667 19.667 35.834 35 51.501s32.333 29.167 51 40.5
s38.5 20.166 59.5 26.499s41.167 9.5 60.5 9.5c28 0 47.167 -7.5 57.5 -22.5s15.5 -37.5 15.5 -67.5c0 -6 -2.16699 -13.5 -6.5 -22.5s-9.66602 -17.667 -15.999 -26s-13.5 -15.5 -21.5 -21.5s-15.333 -9 -22 -9c0 8.66699 1.5 16.667 4.5 24s6.5 14.666 10.5 21.999
s7.5 14.666 10.5 21.999s4.5 15.666 4.5 24.999c0 10 -0.833008 18.667 -2.5 26s-9.83398 11 -24.501 11c-28.667 0 -57.334 -10.333 -86.001 -31s-54.5 -46 -77.5 -76s-41.833 -61.667 -56.5 -95s-22 -63 -22 -89c0 -1.33301 0.166992 -3.5 0.5 -6.5s0.5 -5.16699 0.5 -6.5
l42 13.5c16 5 32.5 9.66699 49.5 14s34.333 8 52 11s34.167 4.5 49.5 4.5c0 -10.667 -5.16699 -20.167 -15.5 -28.5s-23.5 -16.166 -39.5 -23.499s-33.667 -14.166 -53 -20.499s-37.5 -12.666 -54.5 -18.999s-31.833 -12.833 -44.5 -19.5s-20.667 -13.667 -24 -21
c-3.33301 -19.333 -10.333 -46.333 -21 -81s-24.334 -72.167 -41.001 -112.5s-36 -81.333 -58 -123s-45.833 -79.5 -71.5 -113.5s-52.667 -61.667 -81 -83s-57.5 -32 -87.5 -32c-4 0 -9.16699 0.333008 -15.5 1s-12.166 2 -17.499 4s-10 4.83301 -14 8.5s-6 8.5 -6 14.5z
" />
    <glyph glyph-name="g" unicode="g" horiz-adv-x="440" 
d="M-172 -519c0 49.333 11.001 92.165 33.001 128.498s49.5 69.5 82.5 99.5s68.667 58 107 84s74 53 107 81s60.5 58.5 82.5 91.5s33 71.5 33 115.5v9.5c0 5 -0.333008 8.16699 -1 9.5c-4.66699 -4 -13.334 -9.83301 -26.001 -17.5s-26.5 -15.5 -41.5 -23.5l-42.5 -22
c-13.333 -6.66699 -23 -11 -29 -13c-0.666992 0 -3.16699 -0.333008 -7.5 -1s-9.16602 -1.16699 -14.499 -1.5l-16 -1c-5.33301 -0.333008 -9.66602 -0.5 -12.999 -0.5c-29.333 4.66699 -48.833 14.834 -58.5 30.501s-12.334 33.834 -8.00098 54.501s14.5 43 30.5 67
s35.333 46.833 58 68.5s47.167 41 73.5 58s52 29.333 77 37s48 9.33398 69 5.00098s37.5 -17.166 49.5 -38.499c4 -28 4 -53.833 0 -77.5s-9.16699 -46.834 -15.5 -69.501l-19.5 -69c-6.66699 -23.333 -10.667 -48.333 -12 -75h9l20 20.5l30.5 30.5l31 30.5
c9.66699 9.66699 16.5 16.167 20.5 19.5c1.33301 2 5.16602 4.66699 11.499 8s10.833 5 13.5 5v-3v-2c0 -0.666992 0.333008 -1 1 -1c0 -23.333 -6.66699 -44.833 -20 -64.5s-29.5 -38 -48.5 -55s-38.667 -32.833 -59 -47.5s-37.166 -28.667 -50.499 -42
c-11.333 -22.667 -23.333 -51.167 -36 -85.5s-27 -70.833 -43 -109.5s-33.5 -78 -52.5 -118s-40.333 -77 -64 -111s-50 -63 -79 -87s-60.833 -39.667 -95.5 -47c-17.333 0 -31.5 4.16699 -42.5 12.5s-19.833 18.833 -26.5 31.5s-11.334 26.667 -14.001 42
s-4 29.666 -4 42.999zM-119.999 -571.001c5.33301 -12.667 11.501 -20.334 18.501 -23.001s15.167 -4 24.5 -4c16.667 0 35.167 8.83301 55.5 26.5s40.666 40.334 60.999 68.001s40 58.334 59 92.001s35.833 66.5 50.5 98.5s26.334 61.167 35.001 87.5s13 46.166 13 59.499
c0 1.33301 -0.166992 3.5 -0.5 6.5s-0.5 5.16699 -0.5 6.5c-2 -1.33301 -6.33301 -3.5 -13 -6.5s-10.667 -5.16699 -12 -6.5l-92 -66.5c-34 -24.333 -65.833 -51.166 -95.5 -80.499s-54.667 -61.166 -75 -95.499s-30.5 -71.5 -30.5 -111.5v-10
c0 -4.66699 0.166992 -9.83398 0.5 -15.501s0.666016 -10.834 0.999023 -15.501s0.5 -8 0.5 -10zM311.002 289.999c-10.667 0 -24.501 -3.50195 -41.501 -10.502s-35.167 -16.333 -54.5 -28s-38.666 -25 -57.999 -40s-36.833 -30.667 -52.5 -47s-28.5 -32.5 -38.5 -48.5
s-15 -31 -15 -45c14 0 30.667 2.83301 50 8.5s39.666 13.334 60.999 23.001s42.333 20.834 63 33.501s39.334 26.167 56.001 40.5s30.167 29 40.5 44s15.5 29.5 15.5 43.5c0 17.333 -8.66699 26 -26 26z" />
    <glyph glyph-name="h" unicode="h" horiz-adv-x="462" 
d="M346 -1c-16.667 -2.66699 -31.665 -0.00488281 -44.998 7.99512s-24 18.833 -32 32.5s-12.5 28.334 -13.5 44.001s2.5 30.167 10.5 43.5c28.667 37.333 48.167 66.833 58.5 88.5s14 37 11 46s-11.167 12.5 -24.5 10.5s-29.5 -8 -48.5 -18s-39.333 -23 -61 -39
s-42 -33.833 -61 -53.5s-35.5 -40.167 -49.5 -61.5s-23 -42 -27 -62c-6 -4 -11.333 -7.16699 -16 -9.5s-10 -3.5 -16 -3.5c-9.33301 0 -15 3.33301 -17 10s-3 13.667 -3 21c0 16.667 5 33.334 15 50.001s21.667 32.667 35 48l38.5 42.5c12.333 13 21.166 23.5 26.499 31.5
c16.667 26.667 33 55.5 49 86.5l48.5 94.5l50.5 95.5c17.333 31.667 35.333 61.834 54 90.501c3.33301 5.33301 6.16602 8.83301 8.49902 10.5s5.83301 2.5 10.5 2.5c8 0 14.333 -4.33301 19 -13c0 -2.66699 -0.5 -7 -1.5 -13s-2 -12.333 -3 -19s-2.33301 -13 -4 -19
s-2.83398 -10 -3.50098 -12c-3.33301 -8 -9.66602 -21.667 -18.999 -41l-30 -62.5l-31 -65c-10 -21 -17 -36.833 -21 -47.5c10 6.66699 18.833 11.834 26.5 15.501s15.167 6.33398 22.5 8.00098s15.166 2.66699 23.499 3s17.5 0.5 27.5 0.5
c23.333 -5.33301 38.666 -13.833 45.999 -25.5s9.5 -25.334 6.5 -41.001s-9.33301 -32.667 -19 -51s-20 -36.666 -31 -54.999s-20.667 -36.333 -29 -54s-12.166 -33.5 -11.499 -47.5c0 -5.33301 1.33301 -9.5 4 -12.5s6 -5 10 -6s8.33301 -1.5 13 -1.5h12
c14 0 27.167 2.16699 39.5 6.5s24.833 9 37.5 14s25.334 9.66699 38.001 14s26 6.5 40 6.5c0 -12 -6.16699 -23.5 -18.5 -34.5s-27.166 -20.667 -44.499 -29s-35.333 -15 -54 -20s-34.334 -7.5 -47.001 -7.5z" />
    <glyph glyph-name="i" unicode="i" horiz-adv-x="231" 
d="M5 63c0 9.33301 1 17.502 3 24.502s5.66699 15.833 11 26.5c4.66699 6.66699 12.834 19 24.501 37l38 57.5l38.5 57.5l25 38c5.33301 8 9.66602 12.333 12.999 13s9.66602 1 18.999 1c5.33301 0 11.5 -0.333008 18.5 -1s11.5 -5 13.5 -13
c-8.66699 -22 -20.667 -43 -36 -63l-45.5 -59c-15 -19.333 -28 -39.333 -39 -60s-16.5 -42.667 -16.5 -66c2.66699 0 6.83398 -0.333008 12.501 -1s11.667 -1.33398 18 -2.00098s12.333 -1.33398 18 -2.00098s9.83398 -0.666992 12.501 0c4 0.666992 10.667 2 20 4
s19.5 4.33301 30.5 7s21.167 5.33398 30.5 8.00098s16 4.66699 20 6c0 -1.33301 0.166992 -3.5 0.5 -6.5s0.5 -5.16699 0.5 -6.5c0 -13.333 -6 -24 -18 -32s-26 -14.5 -42 -19.5s-32.333 -8.33301 -49 -10s-29.334 -2.5 -38.001 -2.5c-10 0 -20 1.16699 -30 3.5
s-18.833 6 -26.5 11s-14 11.667 -19 20s-7.5 18.166 -7.5 29.499zM289 636.002c8 0 15.667 -0.335938 23 -1.00293s13.833 -2.16699 19.5 -4.5s10 -6.16602 13 -11.499s4.5 -12.666 4.5 -21.999v-13c0 -4.66699 -0.5 -9 -1.5 -13s-2.83301 -7.5 -5.5 -10.5s-7 -4.5 -13 -4.5
c-9.33301 0 -16.666 3.33301 -21.999 10s-9.33301 14.334 -12 23.001s-4.33398 17.5 -5.00098 26.5s-1 15.833 -1 20.5z" />
    <glyph glyph-name="j" unicode="j" horiz-adv-x="263" 
d="M-349 -444c0 26.667 4.50293 52.501 13.5029 77.501s20.667 48.667 35 71s30.666 43.333 48.999 63s36.833 38.167 55.5 55.5l31.5 28.5l49 43l57.5 50l57.5 50l49.5 41.5l33 27c3.33301 10 9.83301 27 19.5 51l30.5 76.5l31 76l21 49.5c3.33301 8 7.33301 16.5 12 25.5
s10.167 17.333 16.5 25s13.5 14.167 21.5 19.5s17 8 27 8c0 -20.667 -3.5 -43.667 -10.5 -69s-15.333 -50.5 -25 -75.5s-19.667 -48.333 -30 -70l-24.5 -52.5c1.33301 0 3.5 -0.166992 6.5 -0.5s5.16699 -0.5 6.5 -0.5c16.667 0 32.667 2.33301 48 7s31.333 7 48 7
c5.33301 0 11.166 -0.333008 17.499 -1s10.5 -4.66699 12.5 -12c-7.33301 -14 -18.666 -24 -33.999 -30s-31.5 -11 -48.5 -15s-33.167 -8.83301 -48.5 -14.5s-26.333 -15.5 -33 -29.5l-18 -36.5l-27.5 -55.5l-32 -65.5l-31 -66l-26.5 -56.5c-8 -16.667 -13.667 -29 -17 -37
c-10.667 -23.333 -22.334 -51 -35.001 -83s-28 -62.5 -46 -91.5s-39.333 -53.667 -64 -74s-54.334 -30.5 -89.001 -30.5c-16.667 0 -31.667 3.16699 -45 9.5s-24.833 14.666 -34.5 24.999s-17 22.333 -22 36s-7.5 28.167 -7.5 43.5zM-298.997 -428.999
c0 -9.33301 0.503906 -18.6709 1.50391 -28.0039s3.16699 -17.666 6.5 -24.999s8.66602 -13.333 15.999 -18s17 -7 29 -7c24.667 0 47.667 8.5 69 25.5s40.666 37.5 57.999 61.5s32.333 49 45 75s22.667 48 30 66l25 63l29 74.5l24 63c6.66699 17.667 10 26.834 10 27.501
v26c-3.33301 -2 -9.83301 -6.16699 -19.5 -12.5s-15.834 -10.833 -18.501 -13.5l-42.5 -39.5l-65 -61l-65 -61l-42.5 -40.5c-8.66699 -14.667 -18.334 -28.667 -29.001 -42s-20.5 -26.666 -29.5 -39.999s-16.5 -27.666 -22.5 -42.999s-9 -32.333 -9 -51zM335.007 753.996
c0 4 1.66797 7.99805 5.00098 11.998s7.33301 7.33301 12 10s9.66699 4.83398 15 6.50098s9.66602 2.5 12.999 2.5c9.33301 0 15 -3.66699 17 -11s3 -14.666 3 -21.999c0 -12 -3.33301 -22.5 -10 -31.5s-16.667 -13.5 -30 -13.5c-12 0 -19.167 5.33301 -21.5 16
s-3.5 21 -3.5 31z" />
    <glyph glyph-name="k" unicode="k" horiz-adv-x="468" 
d="M146 139c-7.33301 -10.667 -13.6689 -22.498 -19.002 -35.498s-11.166 -25.333 -17.499 -37s-14.166 -21.5 -23.499 -29.5s-21.333 -12 -36 -12c-12.667 0 -21.167 2.16699 -25.5 6.5s-6.5 13.166 -6.5 26.499c0 15.333 4.33301 32.333 13 51s19.167 37.167 31.5 55.5
s25 35.333 38 51s23.833 28.167 32.5 37.5l180 391c4.66699 10.667 13.167 20.834 25.5 30.501s24.833 14.5 37.5 14.5v-32l-104 -239v-23c11.333 0 21.833 1.83301 31.5 5.5s19.5 7.66699 29.5 12s20.167 8.33301 30.5 12s22.166 5.5 35.499 5.5
c12 -7.33301 18.333 -16.833 19 -28.5s-2.33301 -24.167 -9 -37.5s-15.667 -26.833 -27 -40.5s-23.166 -26.834 -35.499 -39.501s-24.166 -23.834 -35.499 -33.501l-26 -22.5c-10 -8 -19 -13.5 -27 -16.5s-14.833 -5.83301 -20.5 -8.5s-10 -6.5 -13 -11.5
s-4.5 -13.833 -4.5 -26.5c0 -18 4.83301 -32.833 14.5 -44.5s22.5 -20.667 38.5 -27s33.833 -10.666 53.5 -12.999s39.667 -3.5 60 -3.5s39.666 0.833008 57.999 2.5s33.833 3.5 46.5 5.5l12 -12c-6.66699 -9.33301 -17.5 -18.5 -32.5 -27.5s-31.167 -17 -48.5 -24
s-34.5 -12.5 -51.5 -16.5s-30.833 -6 -41.5 -6c-20.667 0 -40.667 3.5 -60 10.5s-37.333 16.667 -54 29s-31 27.166 -43 44.499s-20.667 36 -26 56zM338.997 358.002c-6 0 -15.001 -2.33301 -27.001 -7s-23.667 -10.5 -35 -17.5s-21.333 -14.833 -30 -23.5s-13 -17 -13 -25
v-7c4.66699 2 12.834 5.16699 24.501 9.5s23.5 10 35.5 17s22.5 15 31.5 24s13.5 18.833 13.5 29.5z" />
    <glyph glyph-name="l" unicode="l" horiz-adv-x="249" 
d="M6 89c0 4.66699 0.500977 11.501 1.50098 20.501s2.16699 18.333 3.5 28s2.66602 18.167 3.99902 25.5s2.66602 12 3.99902 14l177 355c2.66699 5.33301 7.66699 12.666 15 21.999s15.5 19 24.5 29l26.5 28.5c8.66699 9 16 16.167 22 21.5
c4.66699 -1.33301 8 -3.66602 10 -6.99902s3.33301 -7 4 -11s0.833984 -8 0.500977 -12s-0.5 -7.33301 -0.5 -10v-14c0 -6 -0.333008 -9 -1 -9c-6.66699 -17.333 -16.834 -38 -30.501 -62l-46 -77l-52 -85.5c-17.667 -29.667 -34 -59 -49 -88s-27.167 -56.833 -36.5 -83.5
s-14 -51 -14 -73c0 -12 3.33301 -21.333 10 -28s14.167 -12.5 22.5 -17.5s15.833 -10.333 22.5 -16s10 -12.834 10 -21.501c0 -6 -2.66699 -10.5 -8 -13.5s-11.666 -4.5 -18.999 -4.5c-27.333 0 -51 7.66699 -71 23s-30 37.333 -30 66z" />
    <glyph glyph-name="m" unicode="m" horiz-adv-x="667" 
d="M481 -1c-12 0 -22.9932 2.33203 -32.9932 6.99902s-18.333 11.167 -25 19.5s-11.334 18 -14.001 29s-2.33398 22.5 0.999023 34.5c0 20.667 3.83301 40 11.5 58s16 35.333 25 52s17.333 33.334 25 50.001s11.5 34.334 11.5 53.001c-14 0 -29.167 -4.66699 -45.5 -14
s-32.833 -21.333 -49.5 -36s-33 -31.334 -49 -50.001s-30.833 -37.334 -44.5 -56.001s-25.667 -36.334 -36 -53.001s-18.166 -30.667 -23.499 -42c-1.33301 -0.666992 -4.5 -1.16699 -9.5 -1.5s-8.16699 -0.5 -9.5 -0.5c-10.667 -5.33301 -17.167 -5.16602 -19.5 0.500977
s-2.33301 14.334 0 26.001s6 24.834 11 39.501s10 28.5 15 41.5s8.83301 24 11.5 33s3 13.5 1 13.5c2 2.66699 4.33301 7 7 13l8 18.5c2.66699 6.33301 5 12.333 7 18s3 10.167 3 13.5c0 5.33301 -2.16699 8.83301 -6.5 10.5s-8.5 2.5 -12.5 2.5
c-12 6.66699 -24.5 3 -37.5 -11s-27.167 -33.833 -42.5 -59.5l-50 -88c-18 -33 -37.667 -64.833 -59 -95.5c-15.333 0 -26.833 2 -34.5 6s-11.5 14 -11.5 30c5.33301 7.33301 13.166 20.833 23.499 40.5l35 65.5l41.5 73c14.667 24.667 28.667 45.667 42 63
s25.5 29.166 36.5 35.499s19.5 3.16602 25.5 -9.50098c11.333 7.33301 23.666 13.5 36.999 18.5s26.666 7.5 39.999 7.5c8.66699 0 16.167 -2.66699 22.5 -8s11.333 -12 15 -20s6.5 -16.5 8.5 -25.5s3 -16.833 3 -23.5c7.33301 4.66699 19.166 12.834 35.499 24.501
s34 23.167 53 34.5s37.833 21.5 56.5 30.5s34 13.5 46 13.5c10.667 0 19.667 -3.83301 27 -11.5s11 -16.834 11 -27.501l-54.5 -137.5c-13 -34.333 -21.667 -61.333 -26 -81s-4.5 -33.5 -0.5 -41.5s11.667 -14.333 23 -19c17.333 0 34.166 3 50.499 9s32.5 12.5 48.5 19.5
s32.167 13.5 48.5 19.5s33.5 9 51.5 9c0 -15.333 -7 -26.666 -21 -33.999c-5.33301 -3.33301 -14.833 -8.33301 -28.5 -15l-43.5 -21.5l-44 -22c-14 -7 -24 -11.833 -30 -14.5c-6.66699 -3.33301 -12.334 -5.83301 -17.001 -7.5s-9 -3 -13 -4s-8.16699 -1.66699 -12.5 -2
s-9.5 -0.5 -15.5 -0.5z" />
    <glyph glyph-name="n" unicode="n" horiz-adv-x="435" 
d="M24 44l0.000976562 13.002c0 3.33301 0.5 6.5 1.5 9.5s2.5 6.16699 4.5 9.5l8 13c3.33301 6 9 15.333 17 28l27 42.5l31.5 49.5l31.5 49.5l27 42.5l18 28c0.666992 0.666992 2.5 1 5.5 1h6.5h7c3.33301 0 5.33301 -0.333008 6 -1s2.16699 -2.33398 4.5 -5.00098l7.5 -8.5
c2.66699 -3 5.16699 -5.66699 7.5 -8s4.16602 -3.5 5.49902 -3.5c6 0 12.167 2 18.5 6l20 13c7 4.66699 14.167 9 21.5 13s14.666 6 21.999 6c17.333 0 31.5 -6.66699 42.5 -20s16.5 -27.333 16.5 -42s-2.16699 -28.834 -6.5 -42.501s-9 -27.167 -14 -40.5
s-9.66699 -26.666 -14 -39.999s-6.5 -27.333 -6.5 -42c0 -14 1.66699 -24.167 5 -30.5s12.333 -9.5 27 -9.5c17.333 0 34 2.66699 50 8s32.667 8 50 8c0 -16 -4.66699 -29.167 -14 -39.5s-21 -18.5 -35 -24.5s-29 -10.167 -45 -12.5s-30.667 -3.5 -44 -3.5
c-25.333 0 -43.5 7 -54.5 21s-16.5 32.667 -16.5 56c0 15.333 2.83301 29.833 8.5 43.5s11.834 27 18.501 40s12.834 26.167 18.501 39.5s8.5 27.333 8.5 42c0 4 -0.5 9.16699 -1.5 15.5s-5.16699 9.5 -12.5 9.5c-22 0 -41.667 -6.83301 -59 -20.5
s-32.833 -30.834 -46.5 -51.501s-26.334 -43.167 -38.001 -67.5l-32 -67.5c-9.66699 -20.667 -19.167 -37.834 -28.5 -51.501s-19 -20.5 -29 -20.5c-13.333 0 -24.333 4.33301 -33 13s-13 19.334 -13 32.001z" />
    <glyph glyph-name="o" unicode="o" 
d="M18 82c0 2.66699 0.167969 8.00195 0.500977 16.002s0.5 13.333 0.5 16c21.333 48 48.166 92 80.499 132s68.833 76 109.5 108c1.33301 0 3.5 0.333008 6.5 1s5.16699 1 6.5 1c17.333 0 31.666 -3.83301 42.999 -11.5s20.5 -17.334 27.5 -29.001
s11.833 -24.834 14.5 -39.501s4 -29 4 -43c0 -25.333 -6 -51.833 -18 -79.5s-27.833 -53 -47.5 -76s-42.167 -41.833 -67.5 -56.5s-51.666 -22 -78.999 -22c-28 0 -48.5 7.33301 -61.5 22s-19.5 35 -19.5 61zM94.001 94.002c0 -7.33301 2.83301 -12.3311 8.5 -14.998
s11.5 -4 17.5 -4c16 0 31.667 4.33301 47 13s29 19.667 41 33s21.667 28.166 29 44.499s11 32.166 11 47.499c0 7.33301 -0.333008 15.333 -1 24s-2.83398 16.5 -6.50098 23.5s-9 12.333 -16 16s-16.5 4.16699 -28.5 1.5c-9.33301 -2 -19.833 -10.5 -31.5 -25.5
s-22.667 -32.333 -33 -52s-19.166 -39.5 -26.499 -59.5s-11 -35.667 -11 -47z" />
    <glyph glyph-name="p" unicode="p" horiz-adv-x="500" 
d="M-109 -273c0 0.666992 0.166016 1.83398 0.499023 3.50098s0.5 2.83398 0.5 3.50098c0.666992 2 1.5 4.83301 2.5 8.5s2.33301 7.5 4 11.5s3 7.66699 4 11s1.83301 5.66602 2.5 6.99902c4 9.33301 10.667 24 20 44l31.5 67.5l36.5 78.5l36.5 78.5l31.5 67.5l21 44
c8.66699 14 20.667 30 36 48s32.5 36.333 51.5 55s39.167 37.167 60.5 55.5s42.666 34.5 63.999 48.5s42 25.333 62 34s38 13 54 13c23.333 0 40 -4.16699 50 -12.5s15 -25.5 15 -51.5c0 -28 -5.33301 -55.833 -16 -83.5s-25.167 -53.834 -43.5 -78.501
s-39.666 -47.167 -63.999 -67.5s-50.166 -37 -77.499 -50s-55.333 -22 -84 -27s-56.334 -4.16699 -83.001 2.5l-12 -13l-127 -316c-2 -6 -7.66699 -9.83301 -17 -11.5s-16.666 -2.5 -21.999 -2.5c-8.66699 0 -17.167 2.83301 -25.5 8.5s-12.5 13.5 -12.5 23.5zM347.999 202
c30 32.667 49.666 58.499 58.999 77.499s11.5 32.5 6.5 40.5s-15.5 11 -31.5 9s-33.667 -7.5 -53 -16.5s-39 -20.833 -59 -35.5s-36.333 -31 -49 -49c-6 -6.66699 -13.333 -15.5 -22 -26.5l-25 -32.5c-8 -10.667 -14.833 -20.167 -20.5 -28.5s-8.5 -13.166 -8.5 -14.499v-21
c44.667 0 82.834 6.83301 114.501 20.5s61.167 39.167 88.5 76.5z" />
    <glyph glyph-name="q" unicode="q" horiz-adv-x="456" 
d="M12 -597c0 36 3.83496 72.1699 11.502 108.503s17.667 72.333 30 108s26 70.5 41 104.5s30.167 66.667 45.5 98v26h-53c0 12 3 21.667 9 29s13.5 13.333 22.5 18s18.833 8.16699 29.5 10.5s20.667 4.16602 30 5.49902l63 114v10c-11.333 0 -22.333 -1.83301 -33 -5.5
s-21.334 -7.83398 -32.001 -12.501s-21.667 -8.83398 -33 -12.501s-23.333 -5.5 -36 -5.5c-55.333 0 -83 28 -83 84c4 24.667 14.5 51.167 31.5 79.5s38 54.666 63 78.999s52.333 45 82 62s59 27.167 88 30.5s56.167 -2.16699 81.5 -16.5s46 -40.5 62 -78.5
c0 -14.667 -2.5 -29.167 -7.5 -43.5s-11.667 -28.166 -20 -41.499s-18 -25.666 -29 -36.999s-22.167 -21 -33.5 -29l-101 -202c0 -0.666992 -0.166992 -1.66699 -0.5 -3s-0.5 -2.66602 -0.5 -3.99902c0 -8 2.16699 -16 6.5 -24s9.16602 -16 14.499 -24
s10.833 -15.833 16.5 -23.5s10.167 -15.5 13.5 -23.5c14.667 -42.667 20.5 -85.667 17.5 -129s-13 -84.833 -30 -124.5s-39.833 -76.834 -68.5 -111.501s-60.667 -64.667 -96 -90c-6 -6 -12 -9.83301 -18 -11.5s-12.667 -2.5 -20 -2.5c-12 0 -22.167 2.66699 -30.5 8
s-15 12.166 -20 20.499s-8.5 17.833 -10.5 28.5s-3 21 -3 31zM76.002 -612.997c18 0 35.333 5.5 52 16.5s32 25.5 46 43.5s26.833 38.333 38.5 61s21.5 45.5 29.5 68.5s14.167 45 18.5 66s6.5 38.833 6.5 53.5c0 25.333 -5.83301 48.833 -17.5 70.5
s-27.167 40.167 -46.5 55.5zM88.002 94.0029c0 -12.667 2.33301 -21.167 7 -25.5s13.334 -6.5 26.001 -6.5c10 0 22.667 2.66699 38 8s31.833 12.333 49.5 21s35.167 18.834 52.5 30.501s33.166 24.167 47.499 37.5s25.833 26.666 34.5 39.999s13 26.333 13 39
c0 35.333 -19.667 53 -59 53c-15.333 0 -34.833 -7.16699 -58.5 -21.5s-46.667 -31.833 -69 -52.5s-41.5 -42.167 -57.5 -64.5s-24 -41.833 -24 -58.5z" />
    <glyph glyph-name="r" unicode="r" horiz-adv-x="380" 
d="M227 75c0 19.333 4.00098 37.3301 12.001 53.9971s17 32.667 27 48s19 30.5 27 45.5s12 30.833 12 47.5c0 3.33301 -0.166992 7.83301 -0.5 13.5s-1 11 -2 16s-3 9.33301 -6 13s-6.83301 5.5 -11.5 5.5c-0.666992 0 -1.83398 -0.166992 -3.50098 -0.5
s-2.5 -0.833008 -2.5 -1.5l-33 -41c-12.667 -15.333 -26 -30.5 -40 -45.5l-42 -43.5c-14 -14 -26.333 -25.333 -37 -34c-8 -6.66699 -18.667 -16.167 -32 -28.5l-39.5 -37l-35 -32c-10.333 -9 -16.166 -13.5 -17.499 -13.5l-45 38c6 0 11.667 1.33301 17 4
s10.666 5.66699 15.999 9c39.333 26 74.833 56 106.5 90s62.5 70.333 92.5 109c1.33301 2 4.66602 7.66699 9.99902 17l18.5 32.5l20 36.5l14.5 28c4 8 6.5 14.667 7.5 20s1.83301 9.5 2.5 12.5s2.5 5.16699 5.5 6.5s8.5 2 16.5 2c1.33301 0 4.5 -0.333008 9.5 -1
s8.16699 -1.33398 9.5 -2.00098l22 -46.5c6.66699 -13.667 12.167 -26.5 16.5 -38.5s7.66602 -24.167 9.99902 -36.5s3.5 -26.166 3.5 -41.499c-8.66699 -21.333 -18 -43.166 -28 -65.499s-18.667 -43.666 -26 -63.999s-11.666 -38.666 -12.999 -54.999
s2.33398 -29.166 11.001 -38.499s23.667 -14.166 45 -14.499s51.333 5.16699 90 16.5c10.667 -5.33301 11.667 -11.833 3 -19.5s-21.5 -14.834 -38.5 -21.501s-35.833 -12 -56.5 -16s-38 -5 -52 -3c-12 0 -22.167 2.16699 -30.5 6.5s-15 10 -20 17s-8.5 15.167 -10.5 24.5
s-3 18.666 -3 27.999z" />
    <glyph glyph-name="s" unicode="s" horiz-adv-x="468" 
d="M12 108c0 12.667 1.82812 23.498 5.49512 32.498s12.834 13.5 27.501 13.5c1.33301 0 4.5 -0.166992 9.5 -0.5s8.16699 -0.833008 9.5 -1.5c-0.666992 -30 4.33301 -52.667 15 -68s30.334 -23 59.001 -23c22.667 0 45.5 3.66699 68.5 11s43.833 17.833 62.5 31.5
s33.667 30.5 45 50.5s17 43 17 69c0 15.333 -5.33301 26.333 -16 33s-22.5 12 -35.5 16s-24.833 8.5 -35.5 13.5s-16 13.5 -16 25.5c0 14.667 9.16699 28.834 27.5 42.501s39.666 25.834 63.999 36.501s48.833 19.167 73.5 25.5s43.334 9.5 56.001 9.5
c0 -18.667 -4.16699 -32 -12.5 -40s-18.166 -14.167 -29.499 -18.5l-35 -13c-12 -4.33301 -22 -12.5 -30 -24.5c10.667 -8 19.334 -15.667 26.001 -23s12 -14.833 16 -22.5s6.66699 -16.167 8 -25.5s2 -20.333 2 -33c0 -34 -7.33301 -64.833 -22 -92.5
s-33.667 -51.334 -57 -71.001s-50.166 -35 -80.499 -46s-60.833 -16.5 -91.5 -16.5c-17.333 0 -33.833 2.16699 -49.5 6.5s-29.5 11 -41.5 20s-21.667 20.333 -29 34s-11 29.834 -11 48.501z" />
    <glyph glyph-name="t" unicode="t" horiz-adv-x="258" 
d="M6 95c0 18.667 3.6748 37.498 11.0078 56.498s15.833 37.833 25.5 56.5l29.5 55c10 18 17.667 35.667 23 53c-12.667 -6.66699 -23.334 -10.5 -32.001 -11.5s-19.334 -1.5 -32.001 -1.5c-1.33301 0 -5.33301 0.166992 -12 0.5s-11 0.5 -13 0.5
c4 14.667 11.167 27.5 21.5 38.5s22.166 20.667 35.499 29s27.333 15.166 42 20.499s28 9.66602 40 12.999c19.333 30.667 35.166 61.5 47.499 92.5l38 91c13 29.667 28 58 45 85s40.167 51.833 69.5 74.5l5 -37l-122 -286c6.66699 2 15.167 4 25.5 6s21 3.83301 32 5.5
l31.5 5c10 1.66699 18.667 3.5 26 5.5c0.666992 0 2.66699 0.166992 6 0.5s5.66602 0.5 6.99902 0.5c9.33301 0 17 -1.5 23 -4.5s11 -10.167 15 -21.5c-44.667 -13.333 -84.834 -27.166 -120.501 -41.499s-66.834 -33 -93.501 -56s-48.334 -52.333 -65.001 -88
s-28 -80.834 -34 -135.501v-17.5c0 -5.66699 0.666992 -10.667 2 -15s3.83301 -8.16602 7.5 -11.499s9.16699 -5.33301 16.5 -6c14.667 0 28.667 2.83301 42 8.5s26.166 12 38.499 19s25 13.333 38 19s26.833 8.5 41.5 8.5c0 -15.333 -6.83301 -29.666 -20.5 -42.999
s-30.167 -24.666 -49.5 -33.999s-39.166 -16.666 -59.499 -21.999s-36.833 -8 -49.5 -8c-13.333 0 -25 2.66699 -35 8s-18.5 12.5 -25.5 21.5s-12.333 19.167 -16 30.5s-5.5 23.333 -5.5 36z" />
    <glyph glyph-name="u" unicode="u" horiz-adv-x="475" 
d="M18 49c0 10 3.00195 23.8311 9.00195 41.498s13.667 37 23 58s20 42.167 32 63.5s24.167 40.833 36.5 58.5s24.166 32 35.499 43s21 16.5 29 16.5c18 0 27 -8.66699 27 -26c0 -8 -1.33301 -14.667 -4 -20s-6 -10.166 -10 -14.499s-8.33301 -8.66602 -13 -12.999
s-8.66699 -9.5 -12 -15.5c-6 -10 -13.333 -23.333 -22 -40l-25 -49l-20.5 -42.5c-5.66699 -12.333 -8.5 -19.166 -8.5 -20.499v-13c25.333 4.66699 49.666 15.667 72.999 33s45.666 37.666 66.999 60.999s41.5 48 60.5 74l53.5 71.5c16.667 21.667 32.5 39.667 47.5 54
s29.167 21.5 42.5 21.5c0 -24 -4.83301 -45.833 -14.5 -65.5s-20.167 -39 -31.5 -58s-21.833 -38.333 -31.5 -58s-14.5 -41.834 -14.5 -66.501c0 -10 6.33301 -19.167 19 -27.5s27.334 -15.333 44.001 -21s32.834 -10.167 48.501 -13.5s26.167 -5.33301 31.5 -6v-25
c-14.667 -0.666992 -33.167 -0.833984 -55.5 -0.500977s-44.5 2.83301 -66.5 7.5s-42 12.334 -60 23.001s-30 26.334 -36 47.001c-16.667 -11.333 -32.834 -24.333 -48.501 -39s-31.667 -28.667 -48 -42s-33.666 -24.5 -51.999 -33.5s-38.5 -13.5 -60.5 -13.5
c-12.667 0 -23.334 5.5 -32.001 16.5s-13 22.167 -13 33.5z" />
    <glyph glyph-name="v" unicode="v" horiz-adv-x="392" 
d="M12 62c0 1.33301 0.165039 3.83496 0.498047 7.50195s0.5 5.83398 0.5 6.50098l4.5 47l5 56.5c1.66699 19.667 3.5 39.167 5.5 58.5s3.66699 36.666 5 51.999s2.5 27.833 3.5 37.5l1.5 14.5l26 25c10.667 -3.33301 18.834 -7.66602 24.501 -12.999s9.5 -11.333 11.5 -18
s3 -13.834 3 -21.501v-23.5c0 -27.333 -2.5 -53.833 -7.5 -79.5s-7.5 -51.834 -7.5 -78.501c0 -1.33301 0.166992 -4.5 0.5 -9.5s0.5 -8.16699 0.5 -9.5l240 253c0.666992 0.666992 2.5 1 5.5 1h6.5c6.66699 0 12.834 -1.33301 18.501 -4s8.5 -8 8.5 -16
c0 -0.666992 -0.166992 -1.16699 -0.5 -1.5s-0.5 -0.833008 -0.5 -1.5v-3l-17 -26l-26 -38l-27 -38l-18 -25l-38.5 -49c-14.333 -18.667 -29.833 -37.667 -46.5 -57s-33.834 -37.5 -51.501 -54.5s-35.5 -30.833 -53.5 -41.5c-3.33301 -2 -8.16602 -4.66699 -14.499 -8
s-9.83301 -5 -10.5 -5c-7.33301 0 -14 2.16699 -20 6.5s-11.5 9.66602 -16.5 15.999s-8.83301 13 -11.5 20s-4 13.5 -4 19.5z" />
    <glyph glyph-name="w" unicode="w" horiz-adv-x="646" 
d="M13 63c2 26.667 9.16602 51.333 21.499 74s26.666 44.167 42.999 64.5s33.666 39.833 51.999 58.5s34.5 37.334 48.5 56.001c11.333 0 18.666 -2.33301 21.999 -7s5 -10.667 5 -18c-5.33301 -6 -13.5 -16.667 -24.5 -32l-33.5 -49
c-11.333 -17.333 -21.5 -33.833 -30.5 -49.5s-13.833 -26.834 -14.5 -33.501c-5.33301 -19.333 -5.16602 -31.5 0.500977 -36.5s14.834 -5 27.501 0s27.667 13.667 45 26s35.333 26.5 54 42.5l54.5 49c17.667 16.667 32.834 31.667 45.501 45h43
c0 -11.333 -1.66699 -22 -5 -32s-6.83301 -19.833 -10.5 -29.5l-10.5 -29c-3.33301 -9.66699 -5 -19.834 -5 -30.501c0 -14.667 4.66699 -23.667 14 -27s20.333 -5 33 -5c16.667 0 34.334 3.33301 53.001 10s35.834 16 51.501 28s28.5 26 38.5 42s15 33.333 15 52
c0 17.333 -2.5 33 -7.5 47s-7.5 29.333 -7.5 46c0 20 11 30 33 30c10 0 18.667 -4.33301 26 -13s13.333 -18.834 18 -30.501s8.16699 -23.667 10.5 -36s3.5 -22.166 3.5 -29.499c0 -34 -8 -64 -24 -90s-36.667 -47.833 -62 -65.5s-53.5 -31 -84.5 -40
s-61.5 -13.5 -91.5 -13.5c-24.667 0 -44.167 9 -58.5 27s-21.833 39 -22.5 63c-18.667 -6 -35.834 -16 -51.501 -30l-47 -42.5c-15.667 -14.333 -31.834 -27.166 -48.501 -38.499s-35.334 -17 -56.001 -17c-5.33301 0 -11.666 2.16699 -18.999 6.5s-14.5 9.83301 -21.5 16.5
s-12.667 13.667 -17 21s-6.16602 14 -5.49902 20z" />
    <glyph glyph-name="x" unicode="x" horiz-adv-x="500" 
d="M171 203c7.33301 7.33301 11.3271 15.167 11.9941 23.5s1 17.166 1 26.499c0 40 -8.16699 67.667 -24.5 83s-43.833 23 -82.5 23c0 6 3.16699 10.667 9.5 14s13.5 5.5 21.5 6.5s15.667 1.5 23 1.5h14c16 0 30 -3.33301 42 -10s22.333 -14.167 31 -22.5
s15.834 -15.833 21.501 -22.5s9.83398 -10 12.501 -10c6 0 11.667 1.33301 17 4s10.333 5.66699 15 9c4.66699 4 13.167 10.667 25.5 20l38.5 30.5l38 30.5c12 9.33301 20.333 16 25 20c2 0.666992 5.33301 1.66699 10 3s9.83398 2.66602 15.501 3.99902
s10.834 2.66602 15.501 3.99902s8 2 10 2h3c0.666992 0 1.33398 0.166992 2.00098 0.5s1.33398 0.5 2.00098 0.5c5.33301 0 9.83301 -2.16699 13.5 -6.5s5.5 -9.16602 5.5 -14.499c0 -6.66699 -3.33301 -11.167 -10 -13.5s-14.334 -4.16602 -23.001 -5.49902l-25.5 -4
c-8.33301 -1.33301 -14.5 -4 -18.5 -8l-139 -164v-127h130c0 -14 -3.5 -24.5 -10.5 -31.5s-15.833 -12 -26.5 -15s-22 -4.66699 -34 -5s-23 -0.5 -33 -0.5c-30 0 -54.5 10.167 -73.5 30.5s-32.833 44.5 -41.5 72.5c-7.33301 -12 -17.166 -26.167 -29.499 -42.5
s-25.833 -32.166 -40.5 -47.499s-30 -28.333 -46 -39s-32 -16 -48 -16v44z" />
    <glyph glyph-name="y" unicode="y" horiz-adv-x="521" 
d="M-54 -295c20.667 34 44.666 64.166 71.999 90.499s55.5 51.166 84.5 74.499l86.5 68.5c28.667 22.333 55.167 46.166 79.5 71.499s45.333 53.5 63 84.5s29.834 66.833 36.501 107.5c0 1.33301 -0.166992 3.5 -0.5 6.5s-0.5 5.16699 -0.5 6.5
c-15.333 -18 -33.5 -38 -54.5 -60s-43.833 -42.667 -68.5 -62s-50.167 -35.666 -76.5 -48.999s-52.166 -20 -77.499 -20c-6.66699 0 -15.167 0.5 -25.5 1.5s-20.333 3.16699 -30 6.5s-18 8 -25 14s-10.5 13.667 -10.5 23c0 8.66699 2.33301 21.834 7 39.501
s10.834 37 18.501 58s16.5 42.667 26.5 65s20.333 42.666 31 60.999s21.5 33.333 32.5 45s21.167 17.5 30.5 17.5s17.166 -1.83301 23.499 -5.5s9.5 -10.167 9.5 -19.5c0 -16 -5.83301 -32.167 -17.5 -48.5l-38.5 -52c-14 -18.333 -26.833 -38.5 -38.5 -60.5
s-17.5 -46.333 -17.5 -73c42.667 0 81.5 8.83301 116.5 26.5s66.333 40 94 67s52.334 56 74.001 87s40.834 60 57.501 87l42.5 67c11.667 17.667 21.834 26.5 30.501 26.5c12.667 0 20.167 -3.66699 22.5 -11s3.5 -16.666 3.5 -27.999c-6 -20 -14.167 -43.667 -24.5 -71
l-32 -85c-11 -29.333 -20.833 -58.666 -29.5 -87.999s-14.334 -56 -17.001 -80c0 -0.666992 0.166992 -1.66699 0.5 -3s0.5 -2.33301 0.5 -3c11.333 4 22.333 10.833 33 20.5l31.5 30c10.333 10.333 20.5 19.5 30.5 27.5s20.667 12 32 12
c0.666992 0 3.16699 -4.66699 7.5 -14s4.16602 -20.333 -0.500977 -33c-6 -4.66699 -16.667 -12.5 -32 -23.5l-48.5 -35l-48 -35.5c-15 -11.333 -25.167 -19.666 -30.5 -24.999c-9.33301 -8.66699 -18.833 -21.5 -28.5 -38.5s-19.334 -36.167 -29.001 -57.5
s-19.334 -43.833 -29.001 -67.5l-28 -69c-9 -22.333 -17.833 -43.166 -26.5 -62.499s-16.667 -35 -24 -47l-20 -31l-33 -49.5l-35.5 -50l-25.5 -33.5c-2.66699 -3.33301 -9.83398 -11 -21.501 -23l-39.5 -40.5l-44 -43.5l-34 -32c-8 -4.66699 -18.5 -10.334 -31.5 -17.001
s-26.5 -12.334 -40.5 -17.001s-27.667 -7.5 -41 -8.5s-24.166 1.66699 -32.499 8s-13.5 17.5 -15.5 33.5s1.5 38.667 10.5 68s24.167 66 45.5 110s51 97.667 89 161zM252.999 -85.001c-1.33301 0 -3.5 -0.5 -6.5 -1.5s-5.16699 -1.83301 -6.5 -2.5
c-1.33301 -1.33301 -4.33301 -3.66602 -9 -6.99902l-15 -11l-15.5 -11.5c-5 -3.66699 -8.5 -6.5 -10.5 -8.5c-18 -13.333 -38.667 -31.833 -62 -55.5s-47.5 -50 -72.5 -79s-49.667 -59.5 -74 -91.5s-46 -62.833 -65 -92.5s-34.5 -57 -46.5 -82s-18.167 -45 -18.5 -60
s6 -23.833 19 -26.5s35.167 3.66602 66.5 18.999c6.66699 6 15.834 14.833 27.501 26.5l35.5 35.5l33 33c10 10 16 16.333 18 19c5.33301 6.66699 14.166 19 26.499 37l38.5 57l37.5 57c11.667 18 19.5 30.667 23.5 38c6 10.667 13.333 25.5 22 44.5s17 38.833 25 59.5
s14.833 40.5 20.5 59.5s8.5 33.5 8.5 43.5z" />
    <glyph glyph-name="z" unicode="z" horiz-adv-x="494" 
d="M24 44l0.00585938 3.99902c0 1.33301 0.333008 2.33301 1 3c19.333 21.333 39.5 41.5 60.5 60.5s43.167 36.833 66.5 53.5l215 253h-13c-13.333 0 -26.666 -1.33301 -39.999 -4s-26.5 -5.83398 -39.5 -9.50098s-26 -6.83398 -39 -9.50098s-26.5 -4 -40.5 -4
c-18.667 2.66699 -31.167 6.5 -37.5 11.5s-8.16602 10.667 -5.49902 17s8.66699 12.666 18 18.999s20.166 12 32.499 17s25.166 8.66699 38.499 11s25.666 2.83301 36.999 1.5c25.333 6 47.333 9.83301 66 11.5s39.667 2.5 63 2.5c18.667 0 33.667 -3.33301 45 -10
s17 -20.667 17 -42c0 -4.66699 -5.66699 -14.334 -17 -29.001s-25.833 -32.167 -43.5 -52.5l-58.5 -66l-61.5 -68.5l-53 -60c-15.667 -18 -26.834 -31.333 -33.501 -40c0.666992 -1.33301 2.66699 -3.5 6 -6.5s5.66602 -5.16699 6.99902 -6.5
c17.333 -6 36.833 -10.167 58.5 -12.5s43.667 -3.66602 66 -3.99902s43.666 0 63.999 1s37.5 2.16699 51.5 3.5c5.33301 -2.66699 9 -5.5 11 -8.5s3 -6.5 3 -10.5c0 -14 -6.16699 -24.167 -18.5 -30.5s-26.333 -10.666 -42 -12.999s-31 -3.33301 -46 -3
s-25.167 0.5 -30.5 0.5c-15.333 0 -30.333 1.33301 -45 4s-29 5.83398 -43 9.50098s-28.167 6.83398 -42.5 9.50098s-28.833 4 -43.5 4c-10 0 -18.833 -2.66699 -26.5 -8s-14.834 -11.333 -21.501 -18s-13.167 -12.667 -19.5 -18s-13.5 -8 -21.5 -8
c-10.667 0 -20.834 4.83301 -30.501 14.5s-14.5 19.834 -14.5 30.501z" />
    <glyph glyph-name="braceleft" unicode="{" horiz-adv-x="487" 
d="M17 26c0 22.667 4.8291 44.3311 14.4961 64.998s21.5 40.167 35.5 58.5s29.5 35.833 46.5 52.5l46.5 47c14 14.667 25.833 28.667 35.5 42s14.5 26 14.5 38c0 11.333 -3.33301 21.666 -10 30.999s-14 18.5 -22 27.5s-15.333 17.833 -22 26.5s-10 18.334 -10 29.001
c0 14.667 6 25.334 18 32.001s25 12.334 39 17.001s27 10 39 16s18 16 18 30v7l-64 139c0 0.666992 0.833008 4.5 2.5 11.5s3.83398 15.167 6.50098 24.5s5.66699 18.833 9 28.5l8 23.5c4.66699 12.667 11.667 26.5 21 41.5s20.166 29 32.499 42s26 23.667 41 32
s30.167 12.5 45.5 12.5c14.667 -8.66699 22.5 -17 23.5 -25s-1.83301 -16.5 -8.5 -25.5s-16 -18.333 -28 -28s-23.833 -20.334 -35.5 -32.001s-21.834 -24.667 -30.501 -39s-12.667 -30.166 -12 -47.499c0 -1.33301 0.166992 -4.5 0.5 -9.5s0.5 -8.16699 0.5 -9.5
c2.66699 -4.66699 7.16699 -13 13.5 -25l19.5 -38l18.5 -38.5c5.66699 -12.333 9.5 -20.833 11.5 -25.5c0.666992 0 1.16699 -3 1.5 -9s0.5 -10.667 0.5 -14c0 -16.667 -3.16699 -29.834 -9.5 -39.501s-14.5 -17.667 -24.5 -24s-21.167 -12.333 -33.5 -18
s-24.166 -12.834 -35.499 -21.501c13.333 -16.667 25.333 -34.667 36 -54s16 -39.666 16 -60.999c0 -18 -5.33301 -34.333 -16 -49s-24 -28.667 -40 -42s-33.5 -26.666 -52.5 -39.999s-36.5 -27.666 -52.5 -42.999s-29.333 -32.333 -40 -51s-16 -40.334 -16 -65.001
c0 -20 5.33301 -35.333 16 -46s23.834 -18.5 39.501 -23.5s32.834 -8.5 51.501 -10.5s35.834 -4.5 51.501 -7.5s28.834 -7.5 39.501 -13.5s16 -16 16 -30c-24 0 -51.5 0.5 -82.5 1.5s-60 5.33301 -87 13s-49.833 20.5 -68.5 38.5s-28 44 -28 78z" />
    <glyph glyph-name="bar" unicode="|" horiz-adv-x="1703" 
d="M18 78c0 15.333 3.51074 33.5029 10.5107 54.5029s16.5 42.667 28.5 65s26.167 44.5 42.5 66.5s33.833 41.667 52.5 59s37.834 31.333 57.501 42s39.167 16 58.5 16c17.333 0 33.166 -3.16699 47.499 -9.5s21.5 -19.833 21.5 -40.5c0 -19.333 -3.33301 -37.5 -10 -54.5
s-14.167 -33.833 -22.5 -50.5s-15.833 -33.667 -22.5 -51s-10 -35.666 -10 -54.999c0 -12.667 5 -21.334 15 -26.001s19.667 -7 29 -7c20.667 0 40.167 7 58.5 21s35.833 31.333 52.5 52s32.5 43.167 47.5 67.5l42.5 67.5c13.333 20.667 26 38 38 52s23.333 21 34 21
c5.33301 0 10.333 -0.5 15 -1.5s8 -5.16699 10 -12.5c10 13.333 19.5 21.166 28.5 23.499s20.167 3.5 33.5 3.5c18.667 -9.33301 30.5 -20.666 35.5 -33.999s6 -28 3 -44s-9 -32.833 -18 -50.5l-27 -53.5c-9 -18 -16.667 -36 -23 -54s-8.83301 -35 -7.5 -51
c0 -13.333 3.66699 -23 11 -29s16.5 -10 27.5 -12s22.833 -2.83301 35.5 -2.5s24.334 0.5 35.001 0.5c7.33301 0 16.166 8.83301 26.499 26.5s22.333 39.334 36 65.001s29.667 53.5 48 83.5s39.5 57.167 63.5 81.5s51.333 43.666 82 57.999s65.334 19.166 104.001 14.499
c11.333 10.667 19.666 27.5 24.999 50.5s8.66602 48.5 9.99902 76.5s1.16602 56.833 -0.500977 86.5s-4 56.834 -7 81.501s-6 44.834 -9 60.501s-5.16699 23.5 -6.5 23.5c-2 6.66699 -4.83301 15 -8.5 25s-7.5 19.833 -11.5 29.5s-7.83301 17.834 -11.5 24.501
s-5.83398 10 -6.50098 10h-12l-241 -101.5l-168.5 -68.5c-45.667 -18 -82.334 -31.833 -110.001 -41.5s-49.5 -16.667 -65.5 -21s-28 -6.83301 -36 -7.5s-14.667 -1 -20 -1c-39.333 0 -76.833 9 -112.5 27s-67.167 41.833 -94.5 71.5s-49.166 63 -65.499 100
s-24.5 74.5 -24.5 112.5c0 40.667 8.83301 78.5 26.5 113.5s41.167 65.167 70.5 90.5s63 45.166 101 59.499s77 21.5 117 21.5c25.333 0 51.166 -0.5 77.499 -1.5s52.5 -3.33301 78.5 -7s51.667 -8.83398 77 -15.501s49.666 -15.667 72.999 -27
c31.333 -15.333 60.5 -32 87.5 -50s53 -36.833 78 -56.5l74.5 -60.5c24.667 -20.667 50.334 -41 77.001 -61c0 -0.666992 0.833008 -1 2.5 -1h3.5h3.5c1.66699 0 2.5 0.333008 2.5 1l109 44c33.333 14 66.166 26.167 98.499 36.5s65 18.666 98 24.999s68.833 9.5 107.5 9.5
c24 0 47.167 -2 69.5 -6s42.166 -11.167 59.499 -21.5s31.166 -24.833 41.499 -43.5s15.5 -42.667 15.5 -72c-14.667 0 -26.667 5.5 -36 16.5s-18.333 23 -27 36s-18.334 25 -29.001 36s-24.667 16.5 -42 16.5c-36.667 0 -73.834 -3 -111.501 -9s-74.667 -14.5 -111 -25.5
s-71.833 -24.5 -106.5 -40.5s-67.334 -33.667 -98.001 -53v-6v-6c18.667 -46 34 -92.333 46 -139s18 -95.334 18 -146.001c2 -44 -0.833008 -89.167 -8.5 -135.5s-20 -91.333 -37 -135s-38.333 -84.5 -64 -122.5s-55.334 -70.5 -89.001 -97.5s-71.667 -47.5 -114 -61.5
s-88.166 -18.333 -137.499 -13c-2.66699 0 -7.33398 0.166992 -14.001 0.5s-13.667 0.5 -21 0.5s-14.166 0.166992 -20.499 0.5s-10.833 0.5 -13.5 0.5c-11.333 2.66699 -21.666 7.33398 -30.999 14.001s-17.5 14.667 -24.5 24s-12.333 19.5 -16 30.5s-5.5 22.167 -5.5 33.5
c0 18.667 4 36.667 12 54s16.833 34.5 26.5 51.5s18.5 33.833 26.5 50.5s12 34 12 52v6c-28 -8.66699 -53.667 -24.834 -77 -48.501s-44.333 -50 -63 -79s-35.334 -58.333 -50.001 -88l-38 -75.5c-0.666992 0 -1.66699 -0.166992 -3 -0.5s-2.66602 -0.5 -3.99902 -0.5
c-8 0 -16.167 2.66699 -24.5 8s-14.833 11.333 -19.5 18c-17.333 -10.667 -32.333 -17.834 -45 -21.501s-27.667 -5.5 -45 -5.5c-13.333 0 -24.833 3.16699 -34.5 9.5s-17.667 14.5 -24 24.5s-10.833 21 -13.5 33s-3.33398 24 -2.00098 36c-11.333 -10 -22.5 -23 -33.5 -39
s-22.667 -31.5 -35 -46.5s-25.333 -27.833 -39 -38.5s-28.5 -16 -44.5 -16c-12 0 -21.333 2.33301 -28 7s-11.834 10.834 -15.501 18.501s-6 16.167 -7 25.5s-1.5 18.666 -1.5 27.999zM285.011 354.003c-14 0 -29.167 -5.49902 -45.5 -16.499s-32.666 -25.167 -48.999 -42.5
s-32 -36.833 -47 -58.5s-28.333 -43.334 -40 -65.001s-21 -42.167 -28 -61.5s-10.5 -35 -10.5 -47h17l178 190c1.33301 1.33301 4 6 8 14s8.16699 17 12.5 27s8.16602 19.5 11.499 28.5s5 15.5 5 19.5c0 2 -1.5 4.5 -4.5 7.5s-5.5 4.5 -7.5 4.5zM1057.01 330.004
c-28 0 -54.501 -8.66699 -79.501 -26s-47.5 -38.666 -67.5 -63.999s-37 -52.833 -51 -82.5s-24 -56.834 -30 -81.501c2 0 6.33301 -0.166992 13 -0.5s10.667 -0.5 12 -0.5c28.667 0 56.167 9 82.5 27s50 40 71 66s39 53.667 54 83s26.167 55.333 33.5 78
c-3.33301 0.666992 -9.66602 1 -18.999 1h-19zM171.01 911.004c0 -37.333 9 -71.0029 27 -101.003s41 -55.333 69 -76s59.167 -36.5 93.5 -47.5s67.833 -16.5 100.5 -16.5c17.333 0 33.166 0.666992 47.499 2s28.333 3.5 42 6.5s27.5 7 41.5 12s29.667 11.167 47 18.5
l47 21.5l72 33l84 39.5l84 39.5l71.5 33.5c21 10 36.5 17.667 46.5 23c-1.33301 1.33301 -3.66602 3.83301 -6.99902 7.5s-7 7.5 -11 11.5l-11.5 11.5c-3.66699 3.66699 -6.5 6.16699 -8.5 7.5l-116.5 90c-37 28 -75 52.333 -114 73s-80.167 36.834 -123.5 48.501
s-91.333 17.5 -144 17.5c-38 0 -77 -4.83301 -117 -14.5s-76.167 -24.667 -108.5 -45s-59 -46.666 -80 -78.999s-31.5 -71.166 -31.5 -116.499z" />
    <glyph glyph-name="braceright" unicode="}" horiz-adv-x="285" 
d="M-260 -83c0 5.33301 1.83301 9.99121 5.5 13.9912s8.16699 6 13.5 6c13.333 0 25.833 -2.33301 37.5 -7s24.5 -7 38.5 -7c25.333 0 51.833 5.33301 79.5 16s53 25.167 76 43.5s42 39.833 57 64.5s22.5 51 22.5 79v190c0 10.667 -2.16699 20.667 -6.5 30s-9 18.5 -14 27.5
s-9.5 18.167 -13.5 27.5s-6 19.333 -6 30c0 7.33301 1.5 13.333 4.5 18s6.16699 8.66699 9.5 12s6.5 6.83301 9.5 10.5s4.5 8.5 4.5 14.5c0 6.66699 -1.33301 12.834 -4 18.501s-5.83398 11.334 -9.50098 17.001s-6.83398 11.334 -9.50098 17.001s-4 11.834 -4 18.501
c0 10 4.16699 19.833 12.5 29.5s18.833 19.5 31.5 29.5l40.5 32c14.333 11.333 27.833 23.666 40.5 36.999s23.167 28.166 31.5 44.499s12.5 34.5 12.5 54.5c0 2 -0.166992 5.33301 -0.5 10s-0.666016 9.83398 -0.999023 15.501s-0.666016 10.834 -0.999023 15.501
s-0.5 8 -0.5 10c-6.66699 11.333 -17.167 20 -31.5 26l-43.5 18c-14.667 6 -27.667 13.167 -39 21.5s-17 20.5 -17 36.5c31.333 0 59.833 -1.83301 85.5 -5.5s47.667 -11.167 66 -22.5s32.5 -27.5 42.5 -48.5s15 -48.833 15 -83.5c0 -24 -4 -46.333 -12 -67
s-18.667 -40.167 -32 -58.5s-28.5 -35.333 -45.5 -51s-34.5 -30.167 -52.5 -43.5v-7c0 -7.33301 2 -13.666 6 -18.999s8.33301 -10.666 13 -15.999s9 -10.666 13 -15.999s6 -11.333 6 -18c0 -19.333 -6 -34.166 -18 -44.499s-27 -16.833 -45 -19.5
c-0.666992 -1.33301 -1 -2.33301 -1 -3v-3v-3c0 -0.666992 0.333008 -1.66699 1 -3c0.666992 -2 2.16699 -4.83301 4.5 -8.5l7.5 -11.5l7.5 -11c2.33301 -3.33301 4.16602 -5.66602 5.49902 -6.99902v-216c0 -35.333 -9.16699 -69.833 -27.5 -103.5s-42 -63.5 -71 -89.5
s-61 -46.833 -96 -62.5s-69.167 -23.5 -102.5 -23.5c-6.66699 0 -15.5 0.5 -26.5 1.5s-21.667 3 -32 6s-19.166 7.5 -26.499 13.5s-11 14 -11 24z" />
    <glyph glyph-name="asciitilde" unicode="~" horiz-adv-x="483" 
d="M299 473c-14.667 -1.33301 -28 0.496094 -40 5.49609s-23.5 11.5 -34.5 19.5s-22 16.5 -33 25.5s-22.833 17 -35.5 24s-26.5 11.667 -41.5 14s-32.167 0.833008 -51.5 -4.5c-1.33301 0 -4.5 -0.666992 -9.5 -2l-15.5 -4l-15.5 -4c-5 -1.33301 -8.16699 -2 -9.5 -2
c-5.33301 0 -9 2.33301 -11 7s-3 8.66699 -3 12c0 5.33301 4.5 11.333 13.5 18s19.333 12.834 31 18.501s23.167 10.5 34.5 14.5s19 6 23 6c20 0 37 -4.66699 51 -14s27.333 -19.666 40 -30.999s26.167 -21.666 40.5 -30.999s32.5 -14 54.5 -14c27.333 0 49.5 4 66.5 12
s30.667 17 41 27s18.333 19 24 27s11.167 12 16.5 12c7.33301 0 15 -1 23 -3s12 -8 12 -18c-2 -15.333 -8.33301 -28.5 -19 -39.5s-24 -20.667 -40 -29s-33.667 -16.166 -53 -23.499z" />
    <glyph glyph-name="exclamdown" unicode="&#xa1;" horiz-adv-x="378" 
d="M128.817 714.121c0 -1.18262 1.4248 -3.25391 4.27344 -6.21094c2.84863 -2.95605 5.12793 -4.72949 6.83691 -5.32031c1.70996 -0.59082 5.69824 -1.03418 11.9658 -1.33008s12.8203 -0.739258 19.6572 -1.33008s13.3896 -1.03418 19.6572 -1.33008
s10.541 -0.443359 12.8203 -0.443359c0 15.9648 -2.70605 31.043 -8.11914 45.2344s-16.9512 23.0615 -34.6143 26.6094c-6.83691 1.18262 -12.3926 -0.591797 -16.666 -5.32227s-7.5498 -10.4951 -9.8291 -17.2949s-3.8457 -13.4521 -4.7002 -19.957
s-1.28223 -10.9395 -1.28223 -13.3047zM160.44 395.699c0 -17.1475 1.99414 -33.5566 5.98242 -49.2256c3.98828 -15.6699 8.68945 -31.1914 14.1025 -46.5654s11.2529 -30.6006 17.5205 -45.6787c6.26758 -15.0791 11.9658 -30.3057 17.0938 -45.6797l11.5381 -37.6963
l16.666 -57.209l16.2383 -57.6523c5.12793 -18.3311 8.54688 -31.0439 10.2568 -38.1396c2.27832 -15.9658 9.40039 -27.2012 21.3662 -33.7061c11.9658 -6.50391 24.501 -9.75586 37.6064 -9.75586c0 41.3916 -5.98242 80.7139 -17.9482 117.967
s-25.7832 73.7666 -41.4521 109.541l-45.7246 107.766c-14.8145 36.0703 -24.7861 73.6182 -29.9141 112.645h-5.12793c-18.8027 0 -28.2041 -8.87012 -28.2041 -26.6094z" />
    <glyph glyph-name="sterling" unicode="&#xa3;" horiz-adv-x="1101" 
d="M411 178c-12 0 -28.832 -5.32715 -50.499 -15.9941l-71.5 -35.5c-26 -13 -53.167 -24.833 -81.5 -35.5s-55.5 -16 -81.5 -16c-15.333 0 -29.5 2.83301 -42.5 8.5s-24.333 13.334 -34 23.001s-17.334 21.167 -23.001 34.5s-8.5 27.666 -8.5 42.999c0 28 8.5 52 25.5 72
s37.833 36.5 62.5 49.5s51 22.5 79 28.5s52.667 9 74 9c14 0 28 -1.33301 42 -4s27.667 -5.83398 41 -9.50098s26.833 -6.83398 40.5 -9.50098s27.5 -4 41.5 -4h13l34 45.5c12 16.333 23.667 33.166 35 50.499s22 35.166 32 53.499s18.333 36.166 25 53.499
c-1.33301 0 -3.33301 0.166992 -6 0.5s-4.66699 0.5 -6 0.5c-14.667 0 -28.667 -2.33301 -42 -7s-27 -7 -41 -7c-8 0 -16.167 2.5 -24.5 7.5s-14.833 11.167 -19.5 18.5c8.66699 13.333 20.5 23 35.5 29s31 10.833 48 14.5s33.833 7.66699 50.5 12s31 11.166 43 20.499
c23.333 17.333 43.5 40.833 60.5 70.5s33.167 61.834 48.5 96.501l47 106c16 36 34.333 68.5 55 97.5s44.834 52.667 72.501 71s61.167 27.5 100.5 27.5c17.333 0 32.166 -4 44.499 -12s22.333 -18.5 30 -31.5s13.334 -27.5 17.001 -43.5s5.5 -31.667 5.5 -47v-6
c-2.66699 -12 -6.5 -24.167 -11.5 -36.5s-10.5 -24.666 -16.5 -36.999s-12.167 -24.166 -18.5 -35.499s-11.833 -21.666 -16.5 -30.999c-0.666992 0 -1.66699 -0.166992 -3 -0.5s-2.33301 -0.5 -3 -0.5c-8 0 -13.333 3.83301 -16 11.5s-4 14.834 -4 21.501
c0 8 1.33301 16.167 4 24.5s5.83398 16.666 9.50098 24.999s6.83398 16.666 9.50098 24.999s4 17.166 4 26.499c0 26.667 -4 47.334 -12 62.001s-26.333 22 -55 22c-14 0 -28.333 -7.16699 -43 -21.5s-28.334 -30.833 -41.001 -49.5s-23.667 -37.167 -33 -55.5l-20 -39.5
c-6.66699 -13.333 -15 -31 -25 -53l-29 -65.5l-24 -56.5c-6.66699 -16 -10 -25 -10 -27v-12c2 0 6.16699 -0.166992 12.5 -0.5s10.5 -0.5 12.5 -0.5c4.66699 0.666992 13 1.5 25 2.5s24.833 2.33301 38.5 4s26.5 3 38.5 4s20.333 1.83301 25 2.5
c9.33301 -5.33301 14 -12.333 14 -21c0 -0.666992 -0.166992 -1.66699 -0.5 -3s-0.833008 -2 -1.5 -2l-205 -55l-187 -287c-10 -5.33301 -17 -10.5 -21 -15.5s-6 -12.167 -6 -21.5c0 -1.33301 0.166992 -3.5 0.5 -6.5s0.833008 -5.16699 1.5 -6.5
c26.667 -42 51.5 -75 74.5 -99s48.333 -41.833 76 -53.5s59.5 -18.834 95.5 -21.501s80.333 -3.66699 133 -3c5.33301 -2.66699 9 -5.33398 11 -8.00098s3 -6.33398 3 -11.001c0 -8.66699 -7.5 -15.167 -22.5 -19.5s-31.833 -7.5 -50.5 -9.5s-36.667 -3.16699 -54 -3.5
s-28.333 -0.5 -33 -0.5c-34 0 -63.667 4.5 -89 13.5s-47.5 20 -66.5 33s-35.5 27.333 -49.5 43l-37 43c-10.667 13 -20.334 24 -29.001 33s-17.334 13.5 -26.001 13.5zM235.001 292.006c-8 0 -19.665 -1.49805 -34.998 -4.49805s-30.833 -7.16699 -46.5 -12.5
s-29.334 -12 -41.001 -20s-17.5 -17 -17.5 -27v-89c0 -3.33301 1.5 -5.83301 4.5 -7.5s6.5 -2.83398 10.5 -3.50098s8.16699 -1.16699 12.5 -1.5s7.5 -0.5 9.5 -0.5c23.333 0 45.833 3.16699 67.5 9.5s42.667 14.666 63 24.999s39.666 22.5 57.999 36.5
s35.833 28.667 52.5 44v3c0 0.666992 0.166992 1.16699 0.5 1.5s0.5 0.833008 0.5 1.5c0 10 -5.5 18 -16.5 24s-24 10.5 -39 13.5s-30.333 5 -46 6s-28.167 1.5 -37.5 1.5z" />
    <glyph glyph-name="yen" unicode="&#xa5;" horiz-adv-x="588" 
 />
    <glyph glyph-name="dieresis" unicode="&#xa8;" horiz-adv-x="405" 
d="M148 649c-18 0 -29.167 3 -33.5 9s-4.83301 13 -1.5 21s9.33301 16 18 24s17.667 13.667 27 17s17.5 3.5 24.5 0.5s10.5 -11.167 10.5 -24.5c0 -14 -4 -25.333 -12 -34s-19 -13 -33 -13zM315 656c-18 0 -29.167 3 -33.5 9s-4.83301 13 -1.5 21s9.33301 16 18 24
s17.667 13.667 27 17s17.5 3.5 24.5 0.5s10.5 -11.167 10.5 -24.5c0 -14 -4 -25.333 -12 -34s-19 -13 -33 -13z" />
    <glyph glyph-name="acute" unicode="&#xb4;" horiz-adv-x="231" 
d="M157 810c10.667 -0.666992 15.498 -6.00195 14.498 -16.002s-5.5 -22.167 -13.5 -36.5s-18.333 -29.333 -31 -45s-25.167 -29.167 -37.5 -40.5s-23.166 -19.333 -32.499 -24s-14.666 -3 -15.999 5c2.66699 6.66699 8.5 17.834 17.5 33.501s19.333 31.834 31 48.501
s23.667 32.167 36 46.5s22.833 23.833 31.5 28.5z" />
    <glyph glyph-name="cedilla" unicode="&#xb8;" horiz-adv-x="320" 
d="M57 -148c0 8.66699 1.3291 16.001 3.99609 22.001s9 9 19 9h7c3.33301 0 5.66602 -0.333008 6.99902 -1c-0.666992 -20 2.83301 -35.167 10.5 -45.5s21.167 -15.5 40.5 -15.5c16 0 29.167 1.16699 39.5 3.5s18.5 6.5 24.5 12.5s10.167 14.333 12.5 25s3.5 24.667 3.5 42
c0 10.667 -3.16699 18.667 -9.5 24s-13.166 9.83301 -20.499 13.5s-14.166 7.5 -20.499 11.5s-9.5 10 -9.5 18c-1.33301 30.667 1.33398 52.667 8.00098 66s13.334 19.333 20.001 18s11.667 -9.33301 15 -24s1.66602 -34.667 -5.00098 -60
c7.33301 -5.33301 14.833 -10.166 22.5 -14.499s14.834 -8.83301 21.501 -13.5s12 -9.83398 16 -15.501s6 -12.834 6 -21.501c0 -46 -9.16699 -78.667 -27.5 -98s-49.166 -29 -92.499 -29c-24 0 -45.333 5.83301 -64 17.5s-28 30.167 -28 55.5z" />
    <glyph glyph-name="questiondown" unicode="&#xbf;" horiz-adv-x="446" 
d="M86.4814 566.146c0 -6.54492 3.32129 -10.6348 9.96973 -12.2705c6.64941 -1.63574 13.457 -2.4541 20.4229 -2.4541c4.43262 0 10.1318 0.467773 17.0977 1.40234s13.4561 2.4541 19.4717 4.55859c6.01562 2.10352 11.0811 5.02539 15.1973 8.76465
c4.11621 3.74023 5.22461 8.18164 3.3252 13.3232c-2.5332 7.0127 -7.44043 11.8047 -14.7227 14.376s-14.4062 3.85645 -21.3721 3.85645c-11.3975 0 -22.4785 -3.15527 -33.2432 -9.4668s-16.1465 -13.6748 -16.1465 -22.0898zM158.665 362.789
c0 -24.3096 6.17285 -49.084 18.5205 -74.3291c12.3486 -25.2441 27.7041 -49.9043 46.0674 -73.9795s37.9932 -47.333 58.8896 -69.7725l57.9395 -62.4102c0 -0.467773 0.158203 -1.16895 0.474609 -2.10352s0.474609 -1.86914 0.474609 -2.80371
c0 -8.41504 -4.74902 -14.2588 -14.2471 -17.5312s-18.6797 -4.9082 -27.5449 -4.9082c-14.5645 0 -28.0205 1.98633 -40.3682 5.95996s-24.2207 7.47949 -35.6182 10.5176c-11.3975 3.03906 -23.2705 4.67578 -35.6191 4.90918
c-12.3477 0.233398 -25.8037 -3.62305 -40.3672 -11.5703c0 -0.935547 3.16602 -3.27344 9.49805 -7.0127c6.33203 -3.74023 14.0889 -7.94727 23.2705 -12.6221l28.0205 -14.0244c9.49805 -4.6748 17.4131 -8.41504 23.7451 -11.2197
c10.7646 -4.20801 22.4795 -6.7793 35.1445 -7.71387c12.6641 -0.93457 25.0117 -1.40234 37.043 -1.40234c26.5947 0 47.4912 3.85645 62.6885 11.5703s22.7959 21.8555 22.7959 42.4248c-1.2666 13.0889 -7.59863 28.0488 -18.9961 44.8789
c-11.3984 16.8291 -24.6963 34.71 -39.8936 53.6426l-48.4404 58.9043c-17.0967 20.335 -32.1357 40.0859 -45.1172 59.2529s-22.4795 37.6328 -28.4951 55.3975s-6.17383 33.4258 -0.474609 46.9834c-5.69922 2.80469 -10.7646 5.02539 -15.1973 6.66211
c-4.43262 1.63574 -9.49805 2.4541 -15.1963 2.4541c-5.69922 0 -9.97363 -1.05176 -12.8232 -3.15527c-2.84863 -2.10449 -4.74805 -4.79297 -5.69824 -8.06543s-1.2666 -6.66211 -0.950195 -10.168c0.316406 -3.50684 0.474609 -6.42871 0.474609 -8.76562z" />
    <glyph glyph-name="Agrave" unicode="&#xc0;" horiz-adv-x="857" 
d="M645 44c0 16.667 1.16895 33.0049 3.50195 49.0049s4.83301 32 7.5 48s5.16699 32.167 7.5 48.5s3.5 33.166 3.5 50.499c-21.333 0 -39.833 -0.833008 -55.5 -2.5s-31 -3.5 -46 -5.5s-31 -3.5 -48 -4.5s-37.5 -0.833008 -61.5 0.5l-60.5 -62.5
c-22.333 -22.333 -46.166 -43 -71.499 -62s-52 -34.833 -80 -47.5s-56.333 -19 -85 -19c-20 0 -38.833 3.16699 -56.5 9.5s-33.167 15.5 -46.5 27.5s-24 26.333 -32 43s-12 35 -12 55c0 10 1.83301 17.833 5.5 23.5s11.167 8.5 22.5 8.5c6 0 11.333 -5.5 16 -16.5
s10.667 -23 18 -36s16.833 -24.833 28.5 -35.5s27.5 -16 47.5 -16c24.667 0 49 4.66699 73 14s46.833 21.333 68.5 36s42.167 31.167 61.5 49.5s36.666 36.166 51.999 53.499c-2 16.667 -7.83301 28.667 -17.5 36l-30.5 23c-10.667 8 -20.334 18.5 -29.001 31.5
s-13 33.5 -13 61.5c0 40 12 71.167 36 93.5s57 33.5 99 33.5c12.667 0 25 -1.33301 37 -4s24.167 -5.66699 36.5 -9s24.5 -6.33301 36.5 -9s24.333 -4 37 -4c8 0 14.333 1 19 3s9 5 13 9s8.16699 9.16699 12.5 15.5s10.166 14.166 17.499 23.499l31 42.5l46 64.5l45 65
l29 43c7.33301 6 13.833 9.83301 19.5 11.5s12.5 2.5 20.5 2.5s13.833 -2.83301 17.5 -8.5s6 -12.334 7 -20.001s1.33301 -15.5 1 -23.5s-0.5 -14.333 -0.5 -19v-9c0 -4 -0.166992 -8.33301 -0.5 -13s-0.5 -9.16699 -0.5 -13.5v-8.5
c-3.33301 -9.33301 -8.66602 -26 -15.999 -50l-23 -76.5l-22.5 -76.5l-14.5 -50l-3 -15.5c-1.33301 -7 -2.66602 -14.5 -3.99902 -22.5l-4 -23c-1.33301 -7.33301 -2 -12.333 -2 -15c6 -1.33301 12 -3.33301 18 -6s9 -7 9 -13c0 -6.66699 -2.5 -11.834 -7.5 -15.501
s-10.667 -7.16699 -17 -10.5s-12.333 -7.33301 -18 -12s-8.83398 -11 -9.50098 -19l-7 -43l-11 -65.5l-11.5 -64.5c-3.66699 -20 -6.5 -34 -8.5 -42c-0.666992 -2 -2 -5.5 -4 -10.5s-4.33301 -10.167 -7 -15.5s-5.33398 -10.333 -8.00098 -15s-4.66699 -8 -6 -10
c-15.333 3.33301 -27.833 7.5 -37.5 12.5s-14.5 15.5 -14.5 31.5zM628.002 419.005c-7.33301 0 -17.999 -5.49707 -31.999 -16.4971s-28 -23.833 -42 -38.5s-26.167 -29.334 -36.5 -44.001s-15.5 -25.667 -15.5 -33c4 0 11.667 0.166992 23 0.5s23.5 0.666016 36.5 0.999023
s25.167 0.833008 36.5 1.5s19 1 23 1c2.66699 0 6.83398 0.666992 12.501 2l16.5 4c5.33301 1.33301 10 2.66602 14 3.99902s6.33301 2.33301 7 3c0.666992 0 1 2 1 6v10c0 5.33301 -0.833008 13.5 -2.5 24.5s-4.33398 22 -8.00098 33s-8.33398 20.667 -14.001 29
s-12.167 12.5 -19.5 12.5zM354.003 418.008c0 -9.33301 3.16504 -19.835 9.49805 -31.502s14.333 -22.667 24 -33s20.167 -19.166 31.5 -26.499s21.666 -11 30.999 -11c8.66699 0 19.334 5.66699 32.001 17s24.667 24.166 36 38.499s21 28.333 29 42s12 23.167 12 28.5
c0 10.667 -3.66699 18.834 -11 24.501s-16.333 9.66699 -27 12s-21.5 3.5 -32.5 3.5h-26.5c-9.33301 0 -20.166 -0.833008 -32.499 -2.5s-24.166 -4.66699 -35.499 -9s-20.833 -10.666 -28.5 -18.999s-11.5 -19.5 -11.5 -33.5zM646.001 468.006
c14.667 -17.333 28.168 -35.667 40.501 -55s24.166 -39 35.499 -59l87 312zM759.002 1037c9.33301 -4.66699 20.498 -14 33.498 -28s25.667 -29.167 38 -45.5s23.333 -32.166 33 -47.499s15.834 -26.333 18.501 -33c-2 -8 -7.83301 -9.66699 -17.5 -5s-21 12.667 -34 24
s-26.333 24.666 -40 39.999s-24.667 29.833 -33 43.5s-13.166 25.5 -14.499 35.5s4 15.333 16 16z" />
    <glyph glyph-name="Aacute" unicode="&#xc1;" horiz-adv-x="857" 
d="M645 44c0 16.667 1.16895 33.0049 3.50195 49.0049s4.83301 32 7.5 48s5.16699 32.167 7.5 48.5s3.5 33.166 3.5 50.499c-21.333 0 -39.833 -0.833008 -55.5 -2.5s-31 -3.5 -46 -5.5s-31 -3.5 -48 -4.5s-37.5 -0.833008 -61.5 0.5l-60.5 -62.5
c-22.333 -22.333 -46.166 -43 -71.499 -62s-52 -34.833 -80 -47.5s-56.333 -19 -85 -19c-20 0 -38.833 3.16699 -56.5 9.5s-33.167 15.5 -46.5 27.5s-24 26.333 -32 43s-12 35 -12 55c0 10 1.83301 17.833 5.5 23.5s11.167 8.5 22.5 8.5c6 0 11.333 -5.5 16 -16.5
s10.667 -23 18 -36s16.833 -24.833 28.5 -35.5s27.5 -16 47.5 -16c24.667 0 49 4.66699 73 14s46.833 21.333 68.5 36s42.167 31.167 61.5 49.5s36.666 36.166 51.999 53.499c-2 16.667 -7.83301 28.667 -17.5 36l-30.5 23c-10.667 8 -20.334 18.5 -29.001 31.5
s-13 33.5 -13 61.5c0 40 12 71.167 36 93.5s57 33.5 99 33.5c12.667 0 25 -1.33301 37 -4s24.167 -5.66699 36.5 -9s24.5 -6.33301 36.5 -9s24.333 -4 37 -4c8 0 14.333 1 19 3s9 5 13 9s8.16699 9.16699 12.5 15.5s10.166 14.166 17.499 23.499l31 42.5l46 64.5l45 65
l29 43c7.33301 6 13.833 9.83301 19.5 11.5s12.5 2.5 20.5 2.5s13.833 -2.83301 17.5 -8.5s6 -12.334 7 -20.001s1.33301 -15.5 1 -23.5s-0.5 -14.333 -0.5 -19v-9c0 -4 -0.166992 -8.33301 -0.5 -13s-0.5 -9.16699 -0.5 -13.5v-8.5
c-3.33301 -9.33301 -8.66602 -26 -15.999 -50l-23 -76.5l-22.5 -76.5l-14.5 -50l-3 -15.5c-1.33301 -7 -2.66602 -14.5 -3.99902 -22.5l-4 -23c-1.33301 -7.33301 -2 -12.333 -2 -15c6 -1.33301 12 -3.33301 18 -6s9 -7 9 -13c0 -6.66699 -2.5 -11.834 -7.5 -15.501
s-10.667 -7.16699 -17 -10.5s-12.333 -7.33301 -18 -12s-8.83398 -11 -9.50098 -19l-7 -43l-11 -65.5l-11.5 -64.5c-3.66699 -20 -6.5 -34 -8.5 -42c-0.666992 -2 -2 -5.5 -4 -10.5s-4.33301 -10.167 -7 -15.5s-5.33398 -10.333 -8.00098 -15s-4.66699 -8 -6 -10
c-15.333 3.33301 -27.833 7.5 -37.5 12.5s-14.5 15.5 -14.5 31.5zM628.002 419.005c-7.33301 0 -17.999 -5.49707 -31.999 -16.4971s-28 -23.833 -42 -38.5s-26.167 -29.334 -36.5 -44.001s-15.5 -25.667 -15.5 -33c4 0 11.667 0.166992 23 0.5s23.5 0.666016 36.5 0.999023
s25.167 0.833008 36.5 1.5s19 1 23 1c2.66699 0 6.83398 0.666992 12.501 2l16.5 4c5.33301 1.33301 10 2.66602 14 3.99902s6.33301 2.33301 7 3c0.666992 0 1 2 1 6v10c0 5.33301 -0.833008 13.5 -2.5 24.5s-4.33398 22 -8.00098 33s-8.33398 20.667 -14.001 29
s-12.167 12.5 -19.5 12.5zM354.003 418.008c0 -9.33301 3.16504 -19.835 9.49805 -31.502s14.333 -22.667 24 -33s20.167 -19.166 31.5 -26.499s21.666 -11 30.999 -11c8.66699 0 19.334 5.66699 32.001 17s24.667 24.166 36 38.499s21 28.333 29 42s12 23.167 12 28.5
c0 10.667 -3.66699 18.834 -11 24.501s-16.333 9.66699 -27 12s-21.5 3.5 -32.5 3.5h-26.5c-9.33301 0 -20.166 -0.833008 -32.499 -2.5s-24.166 -4.66699 -35.499 -9s-20.833 -10.666 -28.5 -18.999s-11.5 -19.5 -11.5 -33.5zM646.001 468.006
c14.667 -17.333 28.168 -35.667 40.501 -55s24.166 -39 35.499 -59l87 312zM915.002 1031c10.667 -0.666992 15.498 -6.00195 14.498 -16.002s-5.5 -22.167 -13.5 -36.5s-18.333 -29.333 -31 -45s-25.167 -29.167 -37.5 -40.5s-23.166 -19.333 -32.499 -24
s-14.666 -3 -15.999 5c2.66699 6.66699 8.5 17.834 17.5 33.501s19.333 31.834 31 48.501s23.667 32.167 36 46.5s22.833 23.833 31.5 28.5z" />
    <glyph glyph-name="Acircumflex" unicode="&#xc2;" horiz-adv-x="857" 
d="M645 44c0 16.667 1.16895 33.0049 3.50195 49.0049s4.83301 32 7.5 48s5.16699 32.167 7.5 48.5s3.5 33.166 3.5 50.499c-21.333 0 -39.833 -0.833008 -55.5 -2.5s-31 -3.5 -46 -5.5s-31 -3.5 -48 -4.5s-37.5 -0.833008 -61.5 0.5l-60.5 -62.5
c-22.333 -22.333 -46.166 -43 -71.499 -62s-52 -34.833 -80 -47.5s-56.333 -19 -85 -19c-20 0 -38.833 3.16699 -56.5 9.5s-33.167 15.5 -46.5 27.5s-24 26.333 -32 43s-12 35 -12 55c0 10 1.83301 17.833 5.5 23.5s11.167 8.5 22.5 8.5c6 0 11.333 -5.5 16 -16.5
s10.667 -23 18 -36s16.833 -24.833 28.5 -35.5s27.5 -16 47.5 -16c24.667 0 49 4.66699 73 14s46.833 21.333 68.5 36s42.167 31.167 61.5 49.5s36.666 36.166 51.999 53.499c-2 16.667 -7.83301 28.667 -17.5 36l-30.5 23c-10.667 8 -20.334 18.5 -29.001 31.5
s-13 33.5 -13 61.5c0 40 12 71.167 36 93.5s57 33.5 99 33.5c12.667 0 25 -1.33301 37 -4s24.167 -5.66699 36.5 -9s24.5 -6.33301 36.5 -9s24.333 -4 37 -4c8 0 14.333 1 19 3s9 5 13 9s8.16699 9.16699 12.5 15.5s10.166 14.166 17.499 23.499l31 42.5l46 64.5l45 65
l29 43c7.33301 6 13.833 9.83301 19.5 11.5s12.5 2.5 20.5 2.5s13.833 -2.83301 17.5 -8.5s6 -12.334 7 -20.001s1.33301 -15.5 1 -23.5s-0.5 -14.333 -0.5 -19v-9c0 -4 -0.166992 -8.33301 -0.5 -13s-0.5 -9.16699 -0.5 -13.5v-8.5
c-3.33301 -9.33301 -8.66602 -26 -15.999 -50l-23 -76.5l-22.5 -76.5l-14.5 -50l-3 -15.5c-1.33301 -7 -2.66602 -14.5 -3.99902 -22.5l-4 -23c-1.33301 -7.33301 -2 -12.333 -2 -15c6 -1.33301 12 -3.33301 18 -6s9 -7 9 -13c0 -6.66699 -2.5 -11.834 -7.5 -15.501
s-10.667 -7.16699 -17 -10.5s-12.333 -7.33301 -18 -12s-8.83398 -11 -9.50098 -19l-7 -43l-11 -65.5l-11.5 -64.5c-3.66699 -20 -6.5 -34 -8.5 -42c-0.666992 -2 -2 -5.5 -4 -10.5s-4.33301 -10.167 -7 -15.5s-5.33398 -10.333 -8.00098 -15s-4.66699 -8 -6 -10
c-15.333 3.33301 -27.833 7.5 -37.5 12.5s-14.5 15.5 -14.5 31.5zM628.002 419.005c-7.33301 0 -17.999 -5.49707 -31.999 -16.4971s-28 -23.833 -42 -38.5s-26.167 -29.334 -36.5 -44.001s-15.5 -25.667 -15.5 -33c4 0 11.667 0.166992 23 0.5s23.5 0.666016 36.5 0.999023
s25.167 0.833008 36.5 1.5s19 1 23 1c2.66699 0 6.83398 0.666992 12.501 2l16.5 4c5.33301 1.33301 10 2.66602 14 3.99902s6.33301 2.33301 7 3c0.666992 0 1 2 1 6v10c0 5.33301 -0.833008 13.5 -2.5 24.5s-4.33398 22 -8.00098 33s-8.33398 20.667 -14.001 29
s-12.167 12.5 -19.5 12.5zM354.003 418.008c0 -9.33301 3.16504 -19.835 9.49805 -31.502s14.333 -22.667 24 -33s20.167 -19.166 31.5 -26.499s21.666 -11 30.999 -11c8.66699 0 19.334 5.66699 32.001 17s24.667 24.166 36 38.499s21 28.333 29 42s12 23.167 12 28.5
c0 10.667 -3.66699 18.834 -11 24.501s-16.333 9.66699 -27 12s-21.5 3.5 -32.5 3.5h-26.5c-9.33301 0 -20.166 -0.833008 -32.499 -2.5s-24.166 -4.66699 -35.499 -9s-20.833 -10.666 -28.5 -18.999s-11.5 -19.5 -11.5 -33.5zM646.001 468.006
c14.667 -17.333 28.168 -35.667 40.501 -55s24.166 -39 35.499 -59l87 312zM634.002 850.005c0 5.33301 3.16992 13.666 9.50293 24.999s14.333 24 24 38s20.5 28.333 32.5 43s23.667 28 35 40s21.833 21.833 31.5 29.5s17.167 11.5 22.5 11.5
c15.333 0 32 -7.16699 50 -21.5s34.667 -30.833 50 -49.5s28.166 -37.5 38.499 -56.5s15.5 -32.833 15.5 -41.5c-0.666992 -14 -4.33398 -20.333 -11.001 -19s-15 7 -25 17s-20.5 22.333 -31.5 37l-31.5 41.5c-10 13 -18.5 23.5 -25.5 31.5s-11.167 10 -12.5 6
c-4.66699 0 -7.83398 -0.666992 -9.50098 -2s-4.16699 -3.66602 -7.5 -6.99902c-14 -6 -26.5 -14.5 -37.5 -25.5s-21.167 -22.667 -30.5 -35s-17.833 -24.333 -25.5 -36s-15 -21.167 -22 -28.5s-13.667 -11.333 -20 -12s-12.833 4 -19.5 14z" />
    <glyph glyph-name="Atilde" unicode="&#xc3;" horiz-adv-x="857" 
d="M645 44c0 16.667 1.16895 33.0049 3.50195 49.0049s4.83301 32 7.5 48s5.16699 32.167 7.5 48.5s3.5 33.166 3.5 50.499c-21.333 0 -39.833 -0.833008 -55.5 -2.5s-31 -3.5 -46 -5.5s-31 -3.5 -48 -4.5s-37.5 -0.833008 -61.5 0.5l-60.5 -62.5
c-22.333 -22.333 -46.166 -43 -71.499 -62s-52 -34.833 -80 -47.5s-56.333 -19 -85 -19c-20 0 -38.833 3.16699 -56.5 9.5s-33.167 15.5 -46.5 27.5s-24 26.333 -32 43s-12 35 -12 55c0 10 1.83301 17.833 5.5 23.5s11.167 8.5 22.5 8.5c6 0 11.333 -5.5 16 -16.5
s10.667 -23 18 -36s16.833 -24.833 28.5 -35.5s27.5 -16 47.5 -16c24.667 0 49 4.66699 73 14s46.833 21.333 68.5 36s42.167 31.167 61.5 49.5s36.666 36.166 51.999 53.499c-2 16.667 -7.83301 28.667 -17.5 36l-30.5 23c-10.667 8 -20.334 18.5 -29.001 31.5
s-13 33.5 -13 61.5c0 40 12 71.167 36 93.5s57 33.5 99 33.5c12.667 0 25 -1.33301 37 -4s24.167 -5.66699 36.5 -9s24.5 -6.33301 36.5 -9s24.333 -4 37 -4c8 0 14.333 1 19 3s9 5 13 9s8.16699 9.16699 12.5 15.5s10.166 14.166 17.499 23.499l31 42.5l46 64.5l45 65
l29 43c7.33301 6 13.833 9.83301 19.5 11.5s12.5 2.5 20.5 2.5s13.833 -2.83301 17.5 -8.5s6 -12.334 7 -20.001s1.33301 -15.5 1 -23.5s-0.5 -14.333 -0.5 -19v-9c0 -4 -0.166992 -8.33301 -0.5 -13s-0.5 -9.16699 -0.5 -13.5v-8.5
c-3.33301 -9.33301 -8.66602 -26 -15.999 -50l-23 -76.5l-22.5 -76.5l-14.5 -50l-3 -15.5c-1.33301 -7 -2.66602 -14.5 -3.99902 -22.5l-4 -23c-1.33301 -7.33301 -2 -12.333 -2 -15c6 -1.33301 12 -3.33301 18 -6s9 -7 9 -13c0 -6.66699 -2.5 -11.834 -7.5 -15.501
s-10.667 -7.16699 -17 -10.5s-12.333 -7.33301 -18 -12s-8.83398 -11 -9.50098 -19l-7 -43l-11 -65.5l-11.5 -64.5c-3.66699 -20 -6.5 -34 -8.5 -42c-0.666992 -2 -2 -5.5 -4 -10.5s-4.33301 -10.167 -7 -15.5s-5.33398 -10.333 -8.00098 -15s-4.66699 -8 -6 -10
c-15.333 3.33301 -27.833 7.5 -37.5 12.5s-14.5 15.5 -14.5 31.5zM628.002 419.005c-7.33301 0 -17.999 -5.49707 -31.999 -16.4971s-28 -23.833 -42 -38.5s-26.167 -29.334 -36.5 -44.001s-15.5 -25.667 -15.5 -33c4 0 11.667 0.166992 23 0.5s23.5 0.666016 36.5 0.999023
s25.167 0.833008 36.5 1.5s19 1 23 1c2.66699 0 6.83398 0.666992 12.501 2l16.5 4c5.33301 1.33301 10 2.66602 14 3.99902s6.33301 2.33301 7 3c0.666992 0 1 2 1 6v10c0 5.33301 -0.833008 13.5 -2.5 24.5s-4.33398 22 -8.00098 33s-8.33398 20.667 -14.001 29
s-12.167 12.5 -19.5 12.5zM354.003 418.008c0 -9.33301 3.16504 -19.835 9.49805 -31.502s14.333 -22.667 24 -33s20.167 -19.166 31.5 -26.499s21.666 -11 30.999 -11c8.66699 0 19.334 5.66699 32.001 17s24.667 24.166 36 38.499s21 28.333 29 42s12 23.167 12 28.5
c0 10.667 -3.66699 18.834 -11 24.501s-16.333 9.66699 -27 12s-21.5 3.5 -32.5 3.5h-26.5c-9.33301 0 -20.166 -0.833008 -32.499 -2.5s-24.166 -4.66699 -35.499 -9s-20.833 -10.666 -28.5 -18.999s-11.5 -19.5 -11.5 -33.5zM646.001 468.006
c14.667 -17.333 28.168 -35.667 40.501 -55s24.166 -39 35.499 -59l87 312zM928.002 907.005c-14.667 -1.33301 -27.332 0.329102 -37.999 4.99609s-20.667 11 -30 19s-18.5 16.333 -27.5 25s-18.833 16.334 -29.5 23.001s-23 11.167 -37 13.5s-30.667 0.833008 -50 -4.5
c-1.33301 0 -4.5 -0.666992 -9.5 -2l-15.5 -4l-15.5 -4c-5 -1.33301 -8.16699 -2 -9.5 -2c-5.33301 0 -9 2.33301 -11 7s-3 8.66699 -3 12c0 5.33301 4.5 11.333 13.5 18s19.333 12.834 31 18.501s23.167 10.5 34.5 14.5s19 6 23 6c20 0 37 -4.66699 51 -14
s27.333 -19.666 40 -30.999s26.167 -21.666 40.5 -30.999s32.5 -14 54.5 -14c27.333 0 47.666 3.66699 60.999 11s23 15.5 29 24.5s10 17.167 12 24.5s5.66699 11 11 11c7.33301 0 15 -1 23 -3s12 -8 12 -18c-4.66699 -18.667 -12.167 -34 -22.5 -46
s-22.5 -21.667 -36.5 -29s-29.667 -13.333 -47 -18s-35.333 -8.66699 -54 -12z" />
    <glyph glyph-name="Adieresis" unicode="&#xc4;" horiz-adv-x="857" 
d="M645 44c0 16.667 1.16895 33.0049 3.50195 49.0049s4.83301 32 7.5 48s5.16699 32.167 7.5 48.5s3.5 33.166 3.5 50.499c-21.333 0 -39.833 -0.833008 -55.5 -2.5s-31 -3.5 -46 -5.5s-31 -3.5 -48 -4.5s-37.5 -0.833008 -61.5 0.5l-60.5 -62.5
c-22.333 -22.333 -46.166 -43 -71.499 -62s-52 -34.833 -80 -47.5s-56.333 -19 -85 -19c-20 0 -38.833 3.16699 -56.5 9.5s-33.167 15.5 -46.5 27.5s-24 26.333 -32 43s-12 35 -12 55c0 10 1.83301 17.833 5.5 23.5s11.167 8.5 22.5 8.5c6 0 11.333 -5.5 16 -16.5
s10.667 -23 18 -36s16.833 -24.833 28.5 -35.5s27.5 -16 47.5 -16c24.667 0 49 4.66699 73 14s46.833 21.333 68.5 36s42.167 31.167 61.5 49.5s36.666 36.166 51.999 53.499c-2 16.667 -7.83301 28.667 -17.5 36l-30.5 23c-10.667 8 -20.334 18.5 -29.001 31.5
s-13 33.5 -13 61.5c0 40 12 71.167 36 93.5s57 33.5 99 33.5c12.667 0 25 -1.33301 37 -4s24.167 -5.66699 36.5 -9s24.5 -6.33301 36.5 -9s24.333 -4 37 -4c8 0 14.333 1 19 3s9 5 13 9s8.16699 9.16699 12.5 15.5s10.166 14.166 17.499 23.499l31 42.5l46 64.5l45 65
l29 43c7.33301 6 13.833 9.83301 19.5 11.5s12.5 2.5 20.5 2.5s13.833 -2.83301 17.5 -8.5s6 -12.334 7 -20.001s1.33301 -15.5 1 -23.5s-0.5 -14.333 -0.5 -19v-9c0 -4 -0.166992 -8.33301 -0.5 -13s-0.5 -9.16699 -0.5 -13.5v-8.5
c-3.33301 -9.33301 -8.66602 -26 -15.999 -50l-23 -76.5l-22.5 -76.5l-14.5 -50l-3 -15.5c-1.33301 -7 -2.66602 -14.5 -3.99902 -22.5l-4 -23c-1.33301 -7.33301 -2 -12.333 -2 -15c6 -1.33301 12 -3.33301 18 -6s9 -7 9 -13c0 -6.66699 -2.5 -11.834 -7.5 -15.501
s-10.667 -7.16699 -17 -10.5s-12.333 -7.33301 -18 -12s-8.83398 -11 -9.50098 -19l-7 -43l-11 -65.5l-11.5 -64.5c-3.66699 -20 -6.5 -34 -8.5 -42c-0.666992 -2 -2 -5.5 -4 -10.5s-4.33301 -10.167 -7 -15.5s-5.33398 -10.333 -8.00098 -15s-4.66699 -8 -6 -10
c-15.333 3.33301 -27.833 7.5 -37.5 12.5s-14.5 15.5 -14.5 31.5zM628.002 419.005c-7.33301 0 -17.999 -5.49707 -31.999 -16.4971s-28 -23.833 -42 -38.5s-26.167 -29.334 -36.5 -44.001s-15.5 -25.667 -15.5 -33c4 0 11.667 0.166992 23 0.5s23.5 0.666016 36.5 0.999023
s25.167 0.833008 36.5 1.5s19 1 23 1c2.66699 0 6.83398 0.666992 12.501 2l16.5 4c5.33301 1.33301 10 2.66602 14 3.99902s6.33301 2.33301 7 3c0.666992 0 1 2 1 6v10c0 5.33301 -0.833008 13.5 -2.5 24.5s-4.33398 22 -8.00098 33s-8.33398 20.667 -14.001 29
s-12.167 12.5 -19.5 12.5zM354.003 418.008c0 -9.33301 3.16504 -19.835 9.49805 -31.502s14.333 -22.667 24 -33s20.167 -19.166 31.5 -26.499s21.666 -11 30.999 -11c8.66699 0 19.334 5.66699 32.001 17s24.667 24.166 36 38.499s21 28.333 29 42s12 23.167 12 28.5
c0 10.667 -3.66699 18.834 -11 24.501s-16.333 9.66699 -27 12s-21.5 3.5 -32.5 3.5h-26.5c-9.33301 0 -20.166 -0.833008 -32.499 -2.5s-24.166 -4.66699 -35.499 -9s-20.833 -10.666 -28.5 -18.999s-11.5 -19.5 -11.5 -33.5zM646.001 468.006
c14.667 -17.333 28.168 -35.667 40.501 -55s24.166 -39 35.499 -59l87 312zM777.002 866.005c-18 0 -29.167 3 -33.5 9s-4.83301 13 -1.5 21s9.33301 16 18 24s17.667 13.667 27 17s17.5 3.5 24.5 0.5s10.5 -11.167 10.5 -24.5c0 -14 -4 -25.333 -12 -34s-19 -13 -33 -13z
M944.002 873.005c-18 0 -29.167 3 -33.5 9s-4.83301 13 -1.5 21s9.33301 16 18 24s17.667 13.667 27 17s17.5 3.5 24.5 0.5s10.5 -11.167 10.5 -24.5c0 -14 -4 -25.333 -12 -34s-19 -13 -33 -13z" />
    <glyph glyph-name="Aring" unicode="&#xc5;" horiz-adv-x="857" 
d="M645 44c0 16.667 1.16895 33.0049 3.50195 49.0049s4.83301 32 7.5 48s5.16699 32.167 7.5 48.5s3.5 33.166 3.5 50.499c-21.333 0 -39.833 -0.833008 -55.5 -2.5s-31 -3.5 -46 -5.5s-31 -3.5 -48 -4.5s-37.5 -0.833008 -61.5 0.5l-60.5 -62.5
c-22.333 -22.333 -46.166 -43 -71.499 -62s-52 -34.833 -80 -47.5s-56.333 -19 -85 -19c-20 0 -38.833 3.16699 -56.5 9.5s-33.167 15.5 -46.5 27.5s-24 26.333 -32 43s-12 35 -12 55c0 10 1.83301 17.833 5.5 23.5s11.167 8.5 22.5 8.5c6 0 11.333 -5.5 16 -16.5
s10.667 -23 18 -36s16.833 -24.833 28.5 -35.5s27.5 -16 47.5 -16c24.667 0 49 4.66699 73 14s46.833 21.333 68.5 36s42.167 31.167 61.5 49.5s36.666 36.166 51.999 53.499c-2 16.667 -7.83301 28.667 -17.5 36l-30.5 23c-10.667 8 -20.334 18.5 -29.001 31.5
s-13 33.5 -13 61.5c0 40 12 71.167 36 93.5s57 33.5 99 33.5c12.667 0 25 -1.33301 37 -4s24.167 -5.66699 36.5 -9s24.5 -6.33301 36.5 -9s24.333 -4 37 -4c8 0 14.333 1 19 3s9 5 13 9s8.16699 9.16699 12.5 15.5s10.166 14.166 17.499 23.499l31 42.5l46 64.5l45 65
l29 43c7.33301 6 13.833 9.83301 19.5 11.5s12.5 2.5 20.5 2.5s13.833 -2.83301 17.5 -8.5s6 -12.334 7 -20.001s1.33301 -15.5 1 -23.5s-0.5 -14.333 -0.5 -19v-9c0 -4 -0.166992 -8.33301 -0.5 -13s-0.5 -9.16699 -0.5 -13.5v-8.5
c-3.33301 -9.33301 -8.66602 -26 -15.999 -50l-23 -76.5l-22.5 -76.5l-14.5 -50l-3 -15.5c-1.33301 -7 -2.66602 -14.5 -3.99902 -22.5l-4 -23c-1.33301 -7.33301 -2 -12.333 -2 -15c6 -1.33301 12 -3.33301 18 -6s9 -7 9 -13c0 -6.66699 -2.5 -11.834 -7.5 -15.501
s-10.667 -7.16699 -17 -10.5s-12.333 -7.33301 -18 -12s-8.83398 -11 -9.50098 -19l-7 -43l-11 -65.5l-11.5 -64.5c-3.66699 -20 -6.5 -34 -8.5 -42c-0.666992 -2 -2 -5.5 -4 -10.5s-4.33301 -10.167 -7 -15.5s-5.33398 -10.333 -8.00098 -15s-4.66699 -8 -6 -10
c-15.333 3.33301 -27.833 7.5 -37.5 12.5s-14.5 15.5 -14.5 31.5zM628.002 419.005c-7.33301 0 -17.999 -5.49707 -31.999 -16.4971s-28 -23.833 -42 -38.5s-26.167 -29.334 -36.5 -44.001s-15.5 -25.667 -15.5 -33c4 0 11.667 0.166992 23 0.5s23.5 0.666016 36.5 0.999023
s25.167 0.833008 36.5 1.5s19 1 23 1c2.66699 0 6.83398 0.666992 12.501 2l16.5 4c5.33301 1.33301 10 2.66602 14 3.99902s6.33301 2.33301 7 3c0.666992 0 1 2 1 6v10c0 5.33301 -0.833008 13.5 -2.5 24.5s-4.33398 22 -8.00098 33s-8.33398 20.667 -14.001 29
s-12.167 12.5 -19.5 12.5zM354.003 418.008c0 -9.33301 3.16504 -19.835 9.49805 -31.502s14.333 -22.667 24 -33s20.167 -19.166 31.5 -26.499s21.666 -11 30.999 -11c8.66699 0 19.334 5.66699 32.001 17s24.667 24.166 36 38.499s21 28.333 29 42s12 23.167 12 28.5
c0 10.667 -3.66699 18.834 -11 24.501s-16.333 9.66699 -27 12s-21.5 3.5 -32.5 3.5h-26.5c-9.33301 0 -20.166 -0.833008 -32.499 -2.5s-24.166 -4.66699 -35.499 -9s-20.833 -10.666 -28.5 -18.999s-11.5 -19.5 -11.5 -33.5zM646.001 468.006
c14.667 -17.333 28.168 -35.667 40.501 -55s24.166 -39 35.499 -59l87 312zM763.002 818.005c0 1.33301 0.166992 5.16797 0.5 11.501s0.5 10.166 0.5 11.499c16 36 36.667 69 62 99s54 56.667 86 80c0.666992 0 2.16699 0.166992 4.5 0.5s4.16602 0.5 5.49902 0.5
c13.333 0 24.333 -2.83301 33 -8.5s15.667 -12.834 21 -21.501s9.16602 -18.5 11.499 -29.5s3.5 -21.5 3.5 -31.5c0 -19.333 -4.66699 -39.166 -14 -59.499s-21.666 -39 -36.999 -56s-32.833 -31 -52.5 -42s-40.167 -16.5 -61.5 -16.5s-37.166 5.5 -47.499 16.5
s-15.5 26.167 -15.5 45.5zM822.002 827.007c0 -5.33301 2.16797 -9.16504 6.50098 -11.498s8.83301 -3.5 13.5 -3.5c12.667 0 25 3.33301 37 10s22.667 15 32 25s16.833 21 22.5 33s8.5 23.667 8.5 35c0 5.33301 -0.333008 11.333 -1 18s-2.33398 12.5 -5.00098 17.5
s-6.66699 8.83301 -12 11.5s-13 3 -23 1c-7.33301 -1.33301 -15.5 -7.5 -24.5 -18.5s-17.5 -23.833 -25.5 -38.5s-14.833 -29.334 -20.5 -44.001s-8.5 -26.334 -8.5 -35.001z" />
    <glyph glyph-name="AE" unicode="&#xc6;" horiz-adv-x="1129" 
d="M645 44c0 16.667 1.16895 33.0049 3.50195 49.0049s4.83301 32 7.5 48s5.16699 32.167 7.5 48.5s3.5 33.166 3.5 50.499c-21.333 0 -39.833 -0.833008 -55.5 -2.5s-31 -3.5 -46 -5.5s-31 -3.5 -48 -4.5s-37.5 -0.833008 -61.5 0.5l-60.5 -62.5
c-22.333 -22.333 -46.166 -43 -71.499 -62s-52 -34.833 -80 -47.5s-56.333 -19 -85 -19c-20 0 -38.833 3.16699 -56.5 9.5s-33.167 15.5 -46.5 27.5s-24 26.333 -32 43s-12 35 -12 55c0 10 1.83301 17.833 5.5 23.5s11.167 8.5 22.5 8.5c6 0 11.333 -5.5 16 -16.5
s10.667 -23 18 -36s16.833 -24.833 28.5 -35.5s27.5 -16 47.5 -16c24.667 0 49 4.66699 73 14s46.833 21.333 68.5 36s42.167 31.167 61.5 49.5s36.666 36.166 51.999 53.499c-2 16.667 -7.83301 28.667 -17.5 36l-30.5 23c-10.667 8 -20.334 18.5 -29.001 31.5
s-13 33.5 -13 61.5c0 40 12 71.167 36 93.5s57 33.5 99 33.5c12.667 0 25 -1.33301 37 -4s24.167 -5.66699 36.5 -9s24.5 -6.33301 36.5 -9s24.333 -4 37 -4c8 0 14.333 1 19 3s9 5 13 9s8.16699 9.16699 12.5 15.5s10.166 14.166 17.499 23.499l31 42.5l46 64.5l45 65
l29 43c7.33301 6 13.833 9.83301 19.5 11.5s12.5 2.5 20.5 2.5s13.833 -2.83301 17.5 -8.5s6 -12.334 7 -20.001s1.33301 -15.5 1 -23.5s-0.5 -14.333 -0.5 -19v-9c0 -4 -0.166992 -8.33301 -0.5 -13s-0.5 -9.16699 -0.5 -13.5v-8.5
c-3.33301 -9.33301 -8.66602 -26 -15.999 -50l-23 -76.5l-22.5 -76.5l-14.5 -50l-3 -15.5c-1.33301 -7 -2.66602 -14.5 -3.99902 -22.5l-4 -23c-1.33301 -7.33301 -2 -12.333 -2 -15c6 -1.33301 12 -3.33301 18 -6s9 -7 9 -13c0 -6.66699 -2.5 -11.834 -7.5 -15.501
s-10.667 -7.16699 -17 -10.5s-12.333 -7.33301 -18 -12s-8.83398 -11 -9.50098 -19l-7 -43l-11 -65.5l-11.5 -64.5c-3.66699 -20 -6.5 -34 -8.5 -42c-0.666992 -2 -2 -5.5 -4 -10.5s-4.33301 -10.167 -7 -15.5s-5.33398 -10.333 -8.00098 -15s-4.66699 -8 -6 -10
c-15.333 3.33301 -27.833 7.5 -37.5 12.5s-14.5 15.5 -14.5 31.5zM628.002 419.005c-7.33301 0 -17.999 -5.49707 -31.999 -16.4971s-28 -23.833 -42 -38.5s-26.167 -29.334 -36.5 -44.001s-15.5 -25.667 -15.5 -33c4 0 11.667 0.166992 23 0.5s23.5 0.666016 36.5 0.999023
s25.167 0.833008 36.5 1.5s19 1 23 1c2.66699 0 6.83398 0.666992 12.501 2l16.5 4c5.33301 1.33301 10 2.66602 14 3.99902s6.33301 2.33301 7 3c0.666992 0 1 2 1 6v10c0 5.33301 -0.833008 13.5 -2.5 24.5s-4.33398 22 -8.00098 33s-8.33398 20.667 -14.001 29
s-12.167 12.5 -19.5 12.5zM354.003 418.008c0 -9.33301 3.16504 -19.835 9.49805 -31.502s14.333 -22.667 24 -33s20.167 -19.166 31.5 -26.499s21.666 -11 30.999 -11c8.66699 0 19.334 5.66699 32.001 17s24.667 24.166 36 38.499s21 28.333 29 42s12 23.167 12 28.5
c0 10.667 -3.66699 18.834 -11 24.501s-16.333 9.66699 -27 12s-21.5 3.5 -32.5 3.5h-26.5c-9.33301 0 -20.166 -0.833008 -32.499 -2.5s-24.166 -4.66699 -35.499 -9s-20.833 -10.666 -28.5 -18.999s-11.5 -19.5 -11.5 -33.5zM646.001 468.006
c14.667 -17.333 28.168 -35.667 40.501 -55s24.166 -39 35.499 -59l87 312zM705.002 149.005c2 31.333 11.335 60.8301 28.002 88.4971s36.667 53.5 60 77.5s47.833 46.333 73.5 67s48.167 39.667 67.5 57c0 4 -1.83301 9.33301 -5.5 16s-6.16699 18 -7.5 34
c0 28.667 6.5 54.834 19.5 78.501s30 43.834 51 60.501s44.667 29.5 71 38.5s53.166 13.5 80.499 13.5c12 0 21.833 -4.5 29.5 -13.5s13.834 -19.667 18.501 -32s7.83398 -25 9.50098 -38s2.5 -23.5 2.5 -31.5h-34c0 6.66699 -0.833008 13.834 -2.5 21.501
s-4.16699 14.834 -7.5 21.501s-8 12 -14 16s-13 6 -21 6c-14.667 0 -30.834 -4 -48.501 -12s-34.334 -18.333 -50.001 -31s-28.667 -27.167 -39 -43.5s-15.5 -32.5 -15.5 -48.5c0 -12.667 6 -20.167 18 -22.5s25.333 -3.83301 40 -4.5s28 -2.33398 40 -5.00098
s18 -10.334 18 -23.001c0 -5.33301 -0.666992 -10.5 -2 -15.5s-5.33301 -8.83301 -12 -11.5c-38 -10 -72 -21.5 -102 -34.5s-57.5 -29 -82.5 -48s-48.167 -41.333 -69.5 -67s-42 -55.834 -62 -90.501c0 -1.33301 -0.166992 -4.5 -0.5 -9.5s-0.5 -8.16699 -0.5 -9.5
c0 -23.333 6.83301 -41 20.5 -53s31.5 -18 53.5 -18c24.667 0 52.334 3.83301 83.001 11.5s60.834 16.167 90.501 25.5l80.5 25.5c24 7.66699 42 11.5 54 11.5c-0.666992 -14 -7 -27.5 -19 -40.5s-27.333 -25 -46 -36s-39.834 -20.667 -63.501 -29
s-47.834 -15.166 -72.501 -20.499s-48.5 -9 -71.5 -11s-43.167 -2 -60.5 0c-16.667 0 -31.334 3.83301 -44.001 11.5s-23.167 17.834 -31.5 30.501s-14.5 26.5 -18.5 41.5s-6 30.167 -6 45.5z" />
    <glyph glyph-name="Ccedilla" unicode="&#xc7;" horiz-adv-x="432" 
d="M13 108c4 38 11.8281 74.167 23.4951 108.5s26 67.666 43 99.999s36 64 57 95l66.5 94.5c13.333 17.333 28.166 35 44.499 53s34 34.5 53 49.5s39.5 27.333 61.5 37s45 14.5 69 14.5c12.667 0 22.667 -0.833008 30 -2.5s12.666 -5 15.999 -10s5.33301 -12 6 -21
s0.666992 -20.5 0 -34.5c0 -16 -2.83301 -32.5 -8.5 -49.5s-13.667 -33 -24 -48s-22.666 -28.333 -36.999 -40s-29.833 -19.834 -46.5 -24.501v13c0 14 3.16699 27.167 9.5 39.5s13.333 25 21 38s14.667 26.167 21 39.5s9.5 28 9.5 44c-7.33301 0 -13.5 0.5 -18.5 1.5
s-9.66699 1.66699 -14 2s-8.66602 -0.333984 -12.999 -2.00098s-9.5 -5.16699 -15.5 -10.5c-32 -26 -64.667 -56.5 -98 -91.5s-63.666 -72.5 -90.999 -112.5s-49.666 -82 -66.999 -126s-26 -88.333 -26 -133c0 -2 0.166992 -5.33301 0.5 -10l1 -13.5
c0.333008 -4.33301 0.833008 -8.5 1.5 -12.5s1 -6.33301 1 -7c7.33301 -7.33301 16 -11.666 26 -12.999s17.667 -2 23 -2c28 0 54.167 4.83301 78.5 14.5s48.333 20.334 72 32.001s47.334 22.334 71.001 32.001s48.834 14.5 75.501 14.5
c0 -10.667 -6.16699 -22.167 -18.5 -34.5s-28 -24.833 -47 -37.5s-40.167 -24.667 -63.5 -36s-46.166 -21.5 -68.499 -30.5s-43 -16.167 -62 -21.5s-33.167 -8 -42.5 -8c-14 0 -28.167 2.83301 -42.5 8.5s-27.333 13.334 -39 23.001s-21 21.167 -28 34.5
s-10.5 27.666 -10.5 42.999zM48.9951 -164c0 8.66699 1.3291 16.001 3.99609 22.001s9 9 19 9h7c3.33301 0 5.66602 -0.333008 6.99902 -1c-0.666992 -20 2.83301 -35.167 10.5 -45.5s21.167 -15.5 40.5 -15.5c16 0 29.167 1.16699 39.5 3.5s18.5 6.5 24.5 12.5
s10.167 14.333 12.5 25s3.5 24.667 3.5 42c0 10.667 -3.16699 18.667 -9.5 24s-13.166 9.83301 -20.499 13.5s-14.166 7.5 -20.499 11.5s-9.5 10 -9.5 18c-1.33301 30.667 1.33398 52.667 8.00098 66s13.334 19.333 20.001 18s11.667 -9.33301 15 -24
s1.66602 -34.667 -5.00098 -60c7.33301 -5.33301 14.833 -10.166 22.5 -14.499s14.834 -8.83301 21.501 -13.5s12 -9.83398 16 -15.501s6 -12.834 6 -21.501c0 -46 -9.16699 -78.667 -27.5 -98s-49.166 -29 -92.499 -29c-24 0 -45.333 5.83301 -64 17.5s-28 30.167 -28 55.5
z" />
    <glyph glyph-name="Egrave" unicode="&#xc8;" horiz-adv-x="425" 
d="M12 128c2 31.333 11.335 60.8301 28.002 88.4971s36.667 53.5 60 77.5s47.833 46.333 73.5 67s48.167 39.667 67.5 57c0 4 -1.83301 9.33301 -5.5 16s-6.16699 18 -7.5 34c0 28.667 6.5 54.834 19.5 78.501s30 43.834 51 60.501s44.667 29.5 71 38.5
s53.166 13.5 80.499 13.5c12 0 21.833 -4.5 29.5 -13.5s13.834 -19.667 18.501 -32s7.83398 -25 9.50098 -38s2.5 -23.5 2.5 -31.5h-34c0 6.66699 -0.833008 13.834 -2.5 21.501s-4.16699 14.834 -7.5 21.501s-8 12 -14 16s-13 6 -21 6c-14.667 0 -30.834 -4 -48.501 -12
s-34.334 -18.333 -50.001 -31s-28.667 -27.167 -39 -43.5s-15.5 -32.5 -15.5 -48.5c0 -12.667 6 -20.167 18 -22.5s25.333 -3.83301 40 -4.5s28 -2.33398 40 -5.00098s18 -10.334 18 -23.001c0 -5.33301 -0.666992 -10.5 -2 -15.5s-5.33301 -8.83301 -12 -11.5
c-38 -10 -72 -21.5 -102 -34.5s-57.5 -29 -82.5 -48s-48.167 -41.333 -69.5 -67s-42 -55.834 -62 -90.501c0 -1.33301 -0.166992 -4.5 -0.5 -9.5s-0.5 -8.16699 -0.5 -9.5c0 -23.333 6.83301 -41 20.5 -53s31.5 -18 53.5 -18c24.667 0 52.334 3.83301 83.001 11.5
s60.834 16.167 90.501 25.5l80.5 25.5c24 7.66699 42 11.5 54 11.5c-0.666992 -14 -7 -27.5 -19 -40.5s-27.333 -25 -46 -36s-39.834 -20.667 -63.501 -29s-47.834 -15.166 -72.501 -20.499s-48.5 -9 -71.5 -11s-43.167 -2 -60.5 0c-16.667 0 -31.334 3.83301 -44.001 11.5
s-23.167 17.834 -31.5 30.501s-14.5 26.5 -18.5 41.5s-6 30.167 -6 45.5zM366.002 920.997c9.33301 -4.66699 20.498 -14 33.498 -28s25.667 -29.167 38 -45.5s23.333 -32.166 33 -47.499s15.834 -26.333 18.501 -33c-2 -8 -7.83301 -9.66699 -17.5 -5s-21 12.667 -34 24
s-26.333 24.666 -40 39.999s-24.667 29.833 -33 43.5s-13.166 25.5 -14.499 35.5s4 15.333 16 16z" />
    <glyph glyph-name="Eacute" unicode="&#xc9;" horiz-adv-x="425" 
d="M12 128c2 31.333 11.335 60.8301 28.002 88.4971s36.667 53.5 60 77.5s47.833 46.333 73.5 67s48.167 39.667 67.5 57c0 4 -1.83301 9.33301 -5.5 16s-6.16699 18 -7.5 34c0 28.667 6.5 54.834 19.5 78.501s30 43.834 51 60.501s44.667 29.5 71 38.5
s53.166 13.5 80.499 13.5c12 0 21.833 -4.5 29.5 -13.5s13.834 -19.667 18.501 -32s7.83398 -25 9.50098 -38s2.5 -23.5 2.5 -31.5h-34c0 6.66699 -0.833008 13.834 -2.5 21.501s-4.16699 14.834 -7.5 21.501s-8 12 -14 16s-13 6 -21 6c-14.667 0 -30.834 -4 -48.501 -12
s-34.334 -18.333 -50.001 -31s-28.667 -27.167 -39 -43.5s-15.5 -32.5 -15.5 -48.5c0 -12.667 6 -20.167 18 -22.5s25.333 -3.83301 40 -4.5s28 -2.33398 40 -5.00098s18 -10.334 18 -23.001c0 -5.33301 -0.666992 -10.5 -2 -15.5s-5.33301 -8.83301 -12 -11.5
c-38 -10 -72 -21.5 -102 -34.5s-57.5 -29 -82.5 -48s-48.167 -41.333 -69.5 -67s-42 -55.834 -62 -90.501c0 -1.33301 -0.166992 -4.5 -0.5 -9.5s-0.5 -8.16699 -0.5 -9.5c0 -23.333 6.83301 -41 20.5 -53s31.5 -18 53.5 -18c24.667 0 52.334 3.83301 83.001 11.5
s60.834 16.167 90.501 25.5l80.5 25.5c24 7.66699 42 11.5 54 11.5c-0.666992 -14 -7 -27.5 -19 -40.5s-27.333 -25 -46 -36s-39.834 -20.667 -63.501 -29s-47.834 -15.166 -72.501 -20.499s-48.5 -9 -71.5 -11s-43.167 -2 -60.5 0c-16.667 0 -31.334 3.83301 -44.001 11.5
s-23.167 17.834 -31.5 30.501s-14.5 26.5 -18.5 41.5s-6 30.167 -6 45.5zM428.002 869.997c10.667 -0.666992 15.498 -6.00195 14.498 -16.002s-5.5 -22.167 -13.5 -36.5s-18.333 -29.333 -31 -45s-25.167 -29.167 -37.5 -40.5s-23.166 -19.333 -32.499 -24
s-14.666 -3 -15.999 5c2.66699 6.66699 8.5 17.834 17.5 33.501s19.333 31.834 31 48.501s23.667 32.167 36 46.5s22.833 23.833 31.5 28.5z" />
    <glyph glyph-name="Ecircumflex" unicode="&#xca;" horiz-adv-x="425" 
d="M12 128c2 31.333 11.335 60.8301 28.002 88.4971s36.667 53.5 60 77.5s47.833 46.333 73.5 67s48.167 39.667 67.5 57c0 4 -1.83301 9.33301 -5.5 16s-6.16699 18 -7.5 34c0 28.667 6.5 54.834 19.5 78.501s30 43.834 51 60.501s44.667 29.5 71 38.5
s53.166 13.5 80.499 13.5c12 0 21.833 -4.5 29.5 -13.5s13.834 -19.667 18.501 -32s7.83398 -25 9.50098 -38s2.5 -23.5 2.5 -31.5h-34c0 6.66699 -0.833008 13.834 -2.5 21.501s-4.16699 14.834 -7.5 21.501s-8 12 -14 16s-13 6 -21 6c-14.667 0 -30.834 -4 -48.501 -12
s-34.334 -18.333 -50.001 -31s-28.667 -27.167 -39 -43.5s-15.5 -32.5 -15.5 -48.5c0 -12.667 6 -20.167 18 -22.5s25.333 -3.83301 40 -4.5s28 -2.33398 40 -5.00098s18 -10.334 18 -23.001c0 -5.33301 -0.666992 -10.5 -2 -15.5s-5.33301 -8.83301 -12 -11.5
c-38 -10 -72 -21.5 -102 -34.5s-57.5 -29 -82.5 -48s-48.167 -41.333 -69.5 -67s-42 -55.834 -62 -90.501c0 -1.33301 -0.166992 -4.5 -0.5 -9.5s-0.5 -8.16699 -0.5 -9.5c0 -23.333 6.83301 -41 20.5 -53s31.5 -18 53.5 -18c24.667 0 52.334 3.83301 83.001 11.5
s60.834 16.167 90.501 25.5l80.5 25.5c24 7.66699 42 11.5 54 11.5c-0.666992 -14 -7 -27.5 -19 -40.5s-27.333 -25 -46 -36s-39.834 -20.667 -63.501 -29s-47.834 -15.166 -72.501 -20.499s-48.5 -9 -71.5 -11s-43.167 -2 -60.5 0c-16.667 0 -31.334 3.83301 -44.001 11.5
s-23.167 17.834 -31.5 30.501s-14.5 26.5 -18.5 41.5s-6 30.167 -6 45.5zM228.002 747.997c0 5.33301 3.16992 13.666 9.50293 24.999s14.333 24 24 38s20.5 28.333 32.5 43s23.667 28 35 40s21.833 21.833 31.5 29.5s17.167 11.5 22.5 11.5c15.333 0 32 -7.16699 50 -21.5
s34.667 -30.833 50 -49.5s28.166 -37.5 38.499 -56.5s15.5 -32.833 15.5 -41.5c-0.666992 -14 -4.33398 -20.333 -11.001 -19s-15 7 -25 17s-20.5 22.333 -31.5 37l-31.5 41.5c-10 13 -18.5 23.5 -25.5 31.5s-11.167 10 -12.5 6c-4.66699 0 -7.83398 -0.666992 -9.50098 -2
s-4.16699 -3.66602 -7.5 -6.99902c-14 -6 -26.5 -14.5 -37.5 -25.5s-21.167 -22.667 -30.5 -35s-17.833 -24.333 -25.5 -36s-15 -21.167 -22 -28.5s-13.667 -11.333 -20 -12s-12.833 4 -19.5 14z" />
    <glyph glyph-name="Edieresis" unicode="&#xcb;" horiz-adv-x="425" 
d="M12 128c2 31.333 11.335 60.8301 28.002 88.4971s36.667 53.5 60 77.5s47.833 46.333 73.5 67s48.167 39.667 67.5 57c0 4 -1.83301 9.33301 -5.5 16s-6.16699 18 -7.5 34c0 28.667 6.5 54.834 19.5 78.501s30 43.834 51 60.501s44.667 29.5 71 38.5
s53.166 13.5 80.499 13.5c12 0 21.833 -4.5 29.5 -13.5s13.834 -19.667 18.501 -32s7.83398 -25 9.50098 -38s2.5 -23.5 2.5 -31.5h-34c0 6.66699 -0.833008 13.834 -2.5 21.501s-4.16699 14.834 -7.5 21.501s-8 12 -14 16s-13 6 -21 6c-14.667 0 -30.834 -4 -48.501 -12
s-34.334 -18.333 -50.001 -31s-28.667 -27.167 -39 -43.5s-15.5 -32.5 -15.5 -48.5c0 -12.667 6 -20.167 18 -22.5s25.333 -3.83301 40 -4.5s28 -2.33398 40 -5.00098s18 -10.334 18 -23.001c0 -5.33301 -0.666992 -10.5 -2 -15.5s-5.33301 -8.83301 -12 -11.5
c-38 -10 -72 -21.5 -102 -34.5s-57.5 -29 -82.5 -48s-48.167 -41.333 -69.5 -67s-42 -55.834 -62 -90.501c0 -1.33301 -0.166992 -4.5 -0.5 -9.5s-0.5 -8.16699 -0.5 -9.5c0 -23.333 6.83301 -41 20.5 -53s31.5 -18 53.5 -18c24.667 0 52.334 3.83301 83.001 11.5
s60.834 16.167 90.501 25.5l80.5 25.5c24 7.66699 42 11.5 54 11.5c-0.666992 -14 -7 -27.5 -19 -40.5s-27.333 -25 -46 -36s-39.834 -20.667 -63.501 -29s-47.834 -15.166 -72.501 -20.499s-48.5 -9 -71.5 -11s-43.167 -2 -60.5 0c-16.667 0 -31.334 3.83301 -44.001 11.5
s-23.167 17.834 -31.5 30.501s-14.5 26.5 -18.5 41.5s-6 30.167 -6 45.5zM295.002 722.997c-18 0 -29.167 3 -33.5 9s-4.83301 13 -1.5 21s9.33301 16 18 24s17.667 13.667 27 17s17.5 3.5 24.5 0.5s10.5 -11.167 10.5 -24.5c0 -14 -4 -25.333 -12 -34s-19 -13 -33 -13z
M462.002 729.997c-18 0 -29.167 3 -33.5 9s-4.83301 13 -1.5 21s9.33301 16 18 24s17.667 13.667 27 17s17.5 3.5 24.5 0.5s10.5 -11.167 10.5 -24.5c0 -14 -4 -25.333 -12 -34s-19 -13 -33 -13z" />
    <glyph glyph-name="Igrave" unicode="&#xcc;" horiz-adv-x="802" 
d="M13 228c-0.666992 2 -0.671875 5.49023 -0.00488281 10.4902s1.66699 10.167 3 15.5s2.83301 10.333 4.5 15s3.5 7.66699 5.5 9c0 0.666992 2.16699 1.5 6.5 2.5s7.83301 1.5 10.5 1.5c10.667 0 18.834 -2.83301 24.501 -8.5s11.167 -12 16.5 -19
s11.833 -13.333 19.5 -19s18.5 -8.5 32.5 -8.5c36.667 0 70.334 6.16699 101.001 18.5s59.667 25.833 87 40.5l77.5 40.5c24.333 12.333 48.166 18.5 71.499 18.5c0 -9.33301 -4.16699 -19.166 -12.5 -29.499s-18.166 -20.333 -29.499 -30s-23 -18.5 -35 -26.5
s-21.667 -14 -29 -18c-21.333 -12.667 -41 -23.5 -59 -32.5s-36 -16.5 -54 -22.5s-37 -10.667 -57 -14s-43.333 -5.66602 -70 -6.99902c2.66699 -3.33301 7.66699 -8.66602 15 -15.999l23 -23l22.5 -22.5c7 -7 12.167 -11.833 15.5 -14.5
c6 -5.33301 12.833 -9.16602 20.5 -11.499s15.667 -3.66602 24 -3.99902s16.5 -0.166016 24.5 0.500977s15.667 1 23 1c16 0 34.833 1 56.5 3s43 6.33301 64 13s39.833 15.834 56.5 27.501s28.334 27.167 35.001 46.5c2 6 6.5 20.667 13.5 44l23.5 76l24.5 76l14.5 44
c12 24 26 48.833 42 74.5s33.667 49.667 53 72s40.166 42 62.499 59s45.5 28.833 69.5 35.5c22.667 0 39 -7.83301 49 -23.5s15 -33.167 15 -52.5c0 -48.667 -10.167 -96.167 -30.5 -142.5s-46 -90.166 -77 -131.499s-65.167 -79.666 -102.5 -114.999s-73 -66 -107 -92
c0 -2 -0.5 -4.83301 -1.5 -8.5s-2.16699 -7.5 -3.5 -11.5s-2.66602 -7.66699 -3.99902 -11s-2.33301 -5.66602 -3 -6.99902c-0.666992 -0.666992 -1.33398 -1 -2.00098 -1h-3c-1.33301 0 -2.83301 0.166992 -4.5 0.5s-2.83398 0.5 -3.50098 0.5
c-3.33301 0.666992 -9.66602 2.5 -18.999 5.5s-15.666 5.16699 -18.999 6.5l-30.5 -10l-45.5 -15l-45.5 -15l-30.5 -10c-1.33301 -0.666992 -4.66602 -1.5 -9.99902 -2.5l-18 -3.5l-20 -4l-15 -3h-7c-30 -0 -58.167 7.33301 -84.5 22s-50.5 33.167 -72.5 55.5
s-41.667 47 -59 74s-31.666 52.5 -42.999 76.5zM827.995 586.99c-22 0 -43.502 -7.33398 -64.502 -22.001s-41.167 -33.667 -60.5 -57s-37.166 -49.833 -53.499 -79.5s-30.5 -59.334 -42.5 -89.001s-21.333 -58.167 -28 -85.5s-10 -50.666 -10 -69.999
c0 -1.33301 0.166992 -2.66602 0.5 -3.99902s0.5 -2.33301 0.5 -3c36.667 22 70.834 47.5 102.501 76.5s59 61 82 96s41 72.5 54 112.5s19.5 81.667 19.5 125zM709.993 906.989c9.33301 -4.66699 20.498 -14 33.498 -28s25.667 -29.167 38 -45.5s23.333 -32.166 33 -47.499
s15.834 -26.333 18.501 -33c-2 -8 -7.83301 -9.66699 -17.5 -5s-21 12.667 -34 24s-26.333 24.666 -40 39.999s-24.667 29.833 -33 43.5s-13.166 25.5 -14.499 35.5s4 15.333 16 16z" />
    <glyph glyph-name="Iacute" unicode="&#xcd;" horiz-adv-x="802" 
d="M13 228c-0.666992 2 -0.671875 5.49023 -0.00488281 10.4902s1.66699 10.167 3 15.5s2.83301 10.333 4.5 15s3.5 7.66699 5.5 9c0 0.666992 2.16699 1.5 6.5 2.5s7.83301 1.5 10.5 1.5c10.667 0 18.834 -2.83301 24.501 -8.5s11.167 -12 16.5 -19
s11.833 -13.333 19.5 -19s18.5 -8.5 32.5 -8.5c36.667 0 70.334 6.16699 101.001 18.5s59.667 25.833 87 40.5l77.5 40.5c24.333 12.333 48.166 18.5 71.499 18.5c0 -9.33301 -4.16699 -19.166 -12.5 -29.499s-18.166 -20.333 -29.499 -30s-23 -18.5 -35 -26.5
s-21.667 -14 -29 -18c-21.333 -12.667 -41 -23.5 -59 -32.5s-36 -16.5 -54 -22.5s-37 -10.667 -57 -14s-43.333 -5.66602 -70 -6.99902c2.66699 -3.33301 7.66699 -8.66602 15 -15.999l23 -23l22.5 -22.5c7 -7 12.167 -11.833 15.5 -14.5
c6 -5.33301 12.833 -9.16602 20.5 -11.499s15.667 -3.66602 24 -3.99902s16.5 -0.166016 24.5 0.500977s15.667 1 23 1c16 0 34.833 1 56.5 3s43 6.33301 64 13s39.833 15.834 56.5 27.501s28.334 27.167 35.001 46.5c2 6 6.5 20.667 13.5 44l23.5 76l24.5 76l14.5 44
c12 24 26 48.833 42 74.5s33.667 49.667 53 72s40.166 42 62.499 59s45.5 28.833 69.5 35.5c22.667 0 39 -7.83301 49 -23.5s15 -33.167 15 -52.5c0 -48.667 -10.167 -96.167 -30.5 -142.5s-46 -90.166 -77 -131.499s-65.167 -79.666 -102.5 -114.999s-73 -66 -107 -92
c0 -2 -0.5 -4.83301 -1.5 -8.5s-2.16699 -7.5 -3.5 -11.5s-2.66602 -7.66699 -3.99902 -11s-2.33301 -5.66602 -3 -6.99902c-0.666992 -0.666992 -1.33398 -1 -2.00098 -1h-3c-1.33301 0 -2.83301 0.166992 -4.5 0.5s-2.83398 0.5 -3.50098 0.5
c-3.33301 0.666992 -9.66602 2.5 -18.999 5.5s-15.666 5.16699 -18.999 6.5l-30.5 -10l-45.5 -15l-45.5 -15l-30.5 -10c-1.33301 -0.666992 -4.66602 -1.5 -9.99902 -2.5l-18 -3.5l-20 -4l-15 -3h-7c-30 -0 -58.167 7.33301 -84.5 22s-50.5 33.167 -72.5 55.5
s-41.667 47 -59 74s-31.666 52.5 -42.999 76.5zM827.995 586.99c-22 0 -43.502 -7.33398 -64.502 -22.001s-41.167 -33.667 -60.5 -57s-37.166 -49.833 -53.499 -79.5s-30.5 -59.334 -42.5 -89.001s-21.333 -58.167 -28 -85.5s-10 -50.666 -10 -69.999
c0 -1.33301 0.166992 -2.66602 0.5 -3.99902s0.5 -2.33301 0.5 -3c36.667 22 70.834 47.5 102.501 76.5s59 61 82 96s41 72.5 54 112.5s19.5 81.667 19.5 125zM826.993 869.989c10.667 -0.666992 15.498 -6.00195 14.498 -16.002s-5.5 -22.167 -13.5 -36.5
s-18.333 -29.333 -31 -45s-25.167 -29.167 -37.5 -40.5s-23.166 -19.333 -32.499 -24s-14.666 -3 -15.999 5c2.66699 6.66699 8.5 17.834 17.5 33.501s19.333 31.834 31 48.501s23.667 32.167 36 46.5s22.833 23.833 31.5 28.5z" />
    <glyph glyph-name="Icircumflex" unicode="&#xce;" horiz-adv-x="802" 
d="M13 228c-0.666992 2 -0.671875 5.49023 -0.00488281 10.4902s1.66699 10.167 3 15.5s2.83301 10.333 4.5 15s3.5 7.66699 5.5 9c0 0.666992 2.16699 1.5 6.5 2.5s7.83301 1.5 10.5 1.5c10.667 0 18.834 -2.83301 24.501 -8.5s11.167 -12 16.5 -19
s11.833 -13.333 19.5 -19s18.5 -8.5 32.5 -8.5c36.667 0 70.334 6.16699 101.001 18.5s59.667 25.833 87 40.5l77.5 40.5c24.333 12.333 48.166 18.5 71.499 18.5c0 -9.33301 -4.16699 -19.166 -12.5 -29.499s-18.166 -20.333 -29.499 -30s-23 -18.5 -35 -26.5
s-21.667 -14 -29 -18c-21.333 -12.667 -41 -23.5 -59 -32.5s-36 -16.5 -54 -22.5s-37 -10.667 -57 -14s-43.333 -5.66602 -70 -6.99902c2.66699 -3.33301 7.66699 -8.66602 15 -15.999l23 -23l22.5 -22.5c7 -7 12.167 -11.833 15.5 -14.5
c6 -5.33301 12.833 -9.16602 20.5 -11.499s15.667 -3.66602 24 -3.99902s16.5 -0.166016 24.5 0.500977s15.667 1 23 1c16 0 34.833 1 56.5 3s43 6.33301 64 13s39.833 15.834 56.5 27.501s28.334 27.167 35.001 46.5c2 6 6.5 20.667 13.5 44l23.5 76l24.5 76l14.5 44
c12 24 26 48.833 42 74.5s33.667 49.667 53 72s40.166 42 62.499 59s45.5 28.833 69.5 35.5c22.667 0 39 -7.83301 49 -23.5s15 -33.167 15 -52.5c0 -48.667 -10.167 -96.167 -30.5 -142.5s-46 -90.166 -77 -131.499s-65.167 -79.666 -102.5 -114.999s-73 -66 -107 -92
c0 -2 -0.5 -4.83301 -1.5 -8.5s-2.16699 -7.5 -3.5 -11.5s-2.66602 -7.66699 -3.99902 -11s-2.33301 -5.66602 -3 -6.99902c-0.666992 -0.666992 -1.33398 -1 -2.00098 -1h-3c-1.33301 0 -2.83301 0.166992 -4.5 0.5s-2.83398 0.5 -3.50098 0.5
c-3.33301 0.666992 -9.66602 2.5 -18.999 5.5s-15.666 5.16699 -18.999 6.5l-30.5 -10l-45.5 -15l-45.5 -15l-30.5 -10c-1.33301 -0.666992 -4.66602 -1.5 -9.99902 -2.5l-18 -3.5l-20 -4l-15 -3h-7c-30 -0 -58.167 7.33301 -84.5 22s-50.5 33.167 -72.5 55.5
s-41.667 47 -59 74s-31.666 52.5 -42.999 76.5zM827.995 586.99c-22 0 -43.502 -7.33398 -64.502 -22.001s-41.167 -33.667 -60.5 -57s-37.166 -49.833 -53.499 -79.5s-30.5 -59.334 -42.5 -89.001s-21.333 -58.167 -28 -85.5s-10 -50.666 -10 -69.999
c0 -1.33301 0.166992 -2.66602 0.5 -3.99902s0.5 -2.33301 0.5 -3c36.667 22 70.834 47.5 102.501 76.5s59 61 82 96s41 72.5 54 112.5s19.5 81.667 19.5 125zM629.993 747.989c0 5.33301 3.16992 13.666 9.50293 24.999s14.333 24 24 38s20.5 28.333 32.5 43
s23.667 28 35 40s21.833 21.833 31.5 29.5s17.167 11.5 22.5 11.5c15.333 0 32 -7.16699 50 -21.5s34.667 -30.833 50 -49.5s28.166 -37.5 38.499 -56.5s15.5 -32.833 15.5 -41.5c-0.666992 -14 -4.33398 -20.333 -11.001 -19s-15 7 -25 17s-20.5 22.333 -31.5 37
l-31.5 41.5c-10 13 -18.5 23.5 -25.5 31.5s-11.167 10 -12.5 6c-4.66699 0 -7.83398 -0.666992 -9.50098 -2s-4.16699 -3.66602 -7.5 -6.99902c-14 -6 -26.5 -14.5 -37.5 -25.5s-21.167 -22.667 -30.5 -35s-17.833 -24.333 -25.5 -36s-15 -21.167 -22 -28.5
s-13.667 -11.333 -20 -12s-12.833 4 -19.5 14z" />
    <glyph glyph-name="Idieresis" unicode="&#xcf;" horiz-adv-x="802" 
d="M13 228c-0.666992 2 -0.671875 5.49023 -0.00488281 10.4902s1.66699 10.167 3 15.5s2.83301 10.333 4.5 15s3.5 7.66699 5.5 9c0 0.666992 2.16699 1.5 6.5 2.5s7.83301 1.5 10.5 1.5c10.667 0 18.834 -2.83301 24.501 -8.5s11.167 -12 16.5 -19
s11.833 -13.333 19.5 -19s18.5 -8.5 32.5 -8.5c36.667 0 70.334 6.16699 101.001 18.5s59.667 25.833 87 40.5l77.5 40.5c24.333 12.333 48.166 18.5 71.499 18.5c0 -9.33301 -4.16699 -19.166 -12.5 -29.499s-18.166 -20.333 -29.499 -30s-23 -18.5 -35 -26.5
s-21.667 -14 -29 -18c-21.333 -12.667 -41 -23.5 -59 -32.5s-36 -16.5 -54 -22.5s-37 -10.667 -57 -14s-43.333 -5.66602 -70 -6.99902c2.66699 -3.33301 7.66699 -8.66602 15 -15.999l23 -23l22.5 -22.5c7 -7 12.167 -11.833 15.5 -14.5
c6 -5.33301 12.833 -9.16602 20.5 -11.499s15.667 -3.66602 24 -3.99902s16.5 -0.166016 24.5 0.500977s15.667 1 23 1c16 0 34.833 1 56.5 3s43 6.33301 64 13s39.833 15.834 56.5 27.501s28.334 27.167 35.001 46.5c2 6 6.5 20.667 13.5 44l23.5 76l24.5 76l14.5 44
c12 24 26 48.833 42 74.5s33.667 49.667 53 72s40.166 42 62.499 59s45.5 28.833 69.5 35.5c22.667 0 39 -7.83301 49 -23.5s15 -33.167 15 -52.5c0 -48.667 -10.167 -96.167 -30.5 -142.5s-46 -90.166 -77 -131.499s-65.167 -79.666 -102.5 -114.999s-73 -66 -107 -92
c0 -2 -0.5 -4.83301 -1.5 -8.5s-2.16699 -7.5 -3.5 -11.5s-2.66602 -7.66699 -3.99902 -11s-2.33301 -5.66602 -3 -6.99902c-0.666992 -0.666992 -1.33398 -1 -2.00098 -1h-3c-1.33301 0 -2.83301 0.166992 -4.5 0.5s-2.83398 0.5 -3.50098 0.5
c-3.33301 0.666992 -9.66602 2.5 -18.999 5.5s-15.666 5.16699 -18.999 6.5l-30.5 -10l-45.5 -15l-45.5 -15l-30.5 -10c-1.33301 -0.666992 -4.66602 -1.5 -9.99902 -2.5l-18 -3.5l-20 -4l-15 -3h-7c-30 -0 -58.167 7.33301 -84.5 22s-50.5 33.167 -72.5 55.5
s-41.667 47 -59 74s-31.666 52.5 -42.999 76.5zM827.995 586.99c-22 0 -43.502 -7.33398 -64.502 -22.001s-41.167 -33.667 -60.5 -57s-37.166 -49.833 -53.499 -79.5s-30.5 -59.334 -42.5 -89.001s-21.333 -58.167 -28 -85.5s-10 -50.666 -10 -69.999
c0 -1.33301 0.166992 -2.66602 0.5 -3.99902s0.5 -2.33301 0.5 -3c36.667 22 70.834 47.5 102.501 76.5s59 61 82 96s41 72.5 54 112.5s19.5 81.667 19.5 125zM694.993 708.989c-18 0 -29.167 3 -33.5 9s-4.83301 13 -1.5 21s9.33301 16 18 24s17.667 13.667 27 17
s17.5 3.5 24.5 0.5s10.5 -11.167 10.5 -24.5c0 -14 -4 -25.333 -12 -34s-19 -13 -33 -13zM861.993 715.989c-18 0 -29.167 3 -33.5 9s-4.83301 13 -1.5 21s9.33301 16 18 24s17.667 13.667 27 17s17.5 3.5 24.5 0.5s10.5 -11.167 10.5 -24.5c0 -14 -4 -25.333 -12 -34
s-19 -13 -33 -13z" />
    <glyph glyph-name="Eth" unicode="&#xd0;" horiz-adv-x="734" 
d="M287 402c17.333 2.66699 35.4971 4.99805 54.4971 6.99805s40.167 4 63.5 6c2 20 5.83301 43.5 11.5 70.5s13 54.667 22 83s19.833 56.333 32.5 84s26.834 52.334 42.501 74.001s32.834 39.167 51.501 52.5s39 20 61 20c2 0 6.33301 -0.333008 13 -1s11 -1 13 -1
c10.667 -13.333 20 -25.666 28 -36.999s14.667 -23 20 -35s9.33301 -24.5 12 -37.5s4 -27.5 4 -43.5c0 -15.333 -1.66699 -36 -5 -62s-8.33301 -55 -15 -87s-15 -65.833 -25 -101.5s-21.333 -70.834 -34 -105.501s-26.834 -68 -42.501 -100s-32.667 -60.167 -51 -84.5
s-37.833 -43.666 -58.5 -57.999s-42.667 -21.5 -66 -21.5c-21.333 0 -39.166 3.16699 -53.499 9.5s-27.166 14.333 -38.499 24s-21.5 20.167 -30.5 31.5s-18.333 21.833 -28 31.5s-20.5 17.667 -32.5 24s-26.333 9.5 -43 9.5c-17.333 0 -32.5 -5.66699 -45.5 -17
s-24.5 -25 -34.5 -41s-18.5 -32.833 -25.5 -50.5l-18.5 -45.5c-1.33301 -0 -3.33301 -0.166992 -6 -0.5s-4.66699 -0.5 -6 -0.5c-3.33301 0 -7.83301 0.666992 -13.5 2s-11.167 3 -16.5 5s-10.166 4.66699 -14.499 8s-6.5 7 -6.5 11c0 10 3.33301 20.833 10 32.5
s14.167 23 22.5 34s16.666 20.833 24.999 29.5s14.5 14.667 18.5 18l102 187c-22.667 2.66699 -41 6.33398 -55 11.001s-20.833 10 -20.5 16s9.16602 12.5 26.499 19.5s46 13.833 86 20.5l76 139c6.66699 5.33301 12.5 12 17.5 20s10.333 15.833 16 23.5
s11.834 14.167 18.501 19.5s15 8 25 8c0 -10.667 -1.16699 -23.334 -3.5 -38.001s-5.83301 -25.667 -10.5 -33zM571.997 418.998c-19.333 -13.333 -38.3311 -25.5 -56.998 -36.5s-36.667 -20.833 -54 -29.5c0.666992 -11.333 2.66699 -22.333 6 -33l10 -31
c3.33301 -10 6.33301 -20.167 9 -30.5s4 -21.166 4 -32.499c-15.333 0 -27.833 3 -37.5 9s-17.5 14 -23.5 24s-10.333 21.167 -13 33.5s-4.33398 24.833 -5.00098 37.5c-28 -4.66699 -56.5 -7.66699 -85.5 -9s-56.833 -1.33301 -83.5 0l-66 -118
c19.333 7.33301 37.333 9.66602 54 6.99902s32.167 -8.33398 46.5 -17.001s27.833 -19 40.5 -31l36 -34.5c11.333 -11 22.166 -20.333 32.499 -28s20.833 -11.5 31.5 -11.5c22.667 0 44.834 11.5 66.501 34.5s42.167 52.333 61.5 88s37.166 75.334 53.499 119.001
s30.333 86.167 42 127.5s20.834 79 27.501 113s10 59.333 10 76c0 9.33301 -0.833008 19.333 -2.5 30s-4.83398 20.5 -9.50098 29.5s-10.667 16.333 -18 22s-17 8.5 -29 8.5c-21.333 0 -40.5 -11.167 -57.5 -33.5s-32 -49.833 -45 -82.5s-23.667 -67 -32 -103
s-14.5 -68 -18.5 -96l47 24c5.33301 0 11 0.166992 17 0.5s11.833 -0.166992 17.5 -1.5s10.667 -3.83301 15 -7.5s7.5 -9.5 9.5 -17.5z" />
    <glyph glyph-name="Ntilde" unicode="&#xd1;" horiz-adv-x="870" 
d="M588 55c0 36 1.33301 72.0029 4 108.003s5.66699 72 9 108s6.33301 72 9 108s4 72 4 108v70c-1.33301 -1.33301 -3.33301 -3.83301 -6 -7.5l-8 -11.5l-7.5 -11.5c-2.33301 -3.66699 -3.83301 -6.16699 -4.5 -7.5l-15.5 -28l-27 -50l-33 -61l-33 -61l-27.5 -50l-16 -28
l-42.5 -73c-15 -26.667 -31.833 -51.667 -50.5 -75s-39.667 -42.833 -63 -58.5s-50 -23.5 -80 -23.5s-57 6.66699 -81 20s-44.333 30.833 -61 52.5s-29.5 46.334 -38.5 74.001s-13.5 55.5 -13.5 83.5c0 3.33301 1.66699 9.66602 5 18.999s6 15.333 8 18
c16 -12.667 29 -29.667 39 -51l31 -63c10.667 -20.667 23.167 -38.667 37.5 -54s34.166 -23 59.499 -23c22 0 41.167 4 57.5 12s31.5 18.667 45.5 32s27.5 28.5 40.5 45.5s27.5 34.167 43.5 51.5l24 40.5l36.5 62.5l42.5 73.5l41.5 73.5l35.5 62.5
c10.667 18.333 18.334 32.166 23.001 41.499c1.33301 2.66699 4.5 9.66699 9.5 21l15.5 36l15.5 36c5 11.333 8.16699 18.333 9.5 21c4 8.66699 10.333 13 19 13c11.333 0 19.333 -6.33301 24 -19s7.66699 -26.667 9 -42s1.66602 -29.833 0.999023 -43.5
s-1 -21.834 -1 -24.501c0 -46 -2.33301 -92 -7 -138s-7 -92 -7 -138v-83c4.66699 10 11.834 26.667 21.501 50l33 80.5l39.5 95.5l39.5 95l33.5 79.5c10 23 17.667 39.5 23 49.5c10 18.667 22 39.834 36 63.501s30 46 48 67s38 38.5 60 52.5s45.667 21 71 21
c-37.333 -24.667 -71.833 -59.334 -103.5 -104.001s-61 -94.5 -88 -149.5s-51.667 -112.5 -74 -172.5l-61.5 -172l-50.5 -148.5c-15 -44.333 -28.833 -78.333 -41.5 -102s-24 -34.334 -34 -32.001s-19.333 22.5 -28 60.5zM748 839.003
c-14.667 -1.33301 -27.332 0.329102 -37.999 4.99609s-20.667 11 -30 19s-18.5 16.333 -27.5 25s-18.833 16.334 -29.5 23.001s-23 11.167 -37 13.5s-30.667 0.833008 -50 -4.5c-1.33301 0 -4.5 -0.666992 -9.5 -2l-15.5 -4l-15.5 -4c-5 -1.33301 -8.16699 -2 -9.5 -2
c-5.33301 0 -9 2.33301 -11 7s-3 8.66699 -3 12c0 5.33301 4.5 11.333 13.5 18s19.333 12.834 31 18.501s23.167 10.5 34.5 14.5s19 6 23 6c20 0 37 -4.66699 51 -14s27.333 -19.666 40 -30.999s26.167 -21.666 40.5 -30.999s32.5 -14 54.5 -14
c27.333 0 47.666 3.66699 60.999 11s23 15.5 29 24.5s10 17.167 12 24.5s5.66699 11 11 11c7.33301 0 15 -1 23 -3s12 -8 12 -18c-4.66699 -18.667 -12.167 -34 -22.5 -46s-22.5 -21.667 -36.5 -29s-29.667 -13.333 -47 -18s-35.333 -8.66699 -54 -12z" />
    <glyph glyph-name="Ograve" unicode="&#xd2;" horiz-adv-x="493" 
d="M82 -1c-18 0.666992 -31.8301 5.00488 -41.4971 13.0049s-16.5 18.167 -20.5 30.5s-5.83301 26 -5.5 41s1.83301 29.5 4.5 43.5c34 103.333 66.667 190.5 98 261.5s61 129.167 89 174.5s54.167 79.5 78.5 102.5s47.166 38.167 68.499 45.5s40.666 8.16602 57.999 2.49902
s32.833 -14.334 46.5 -26.001s25.167 -24.834 34.5 -39.501s16.666 -27.667 21.999 -39c-2.66699 -65.333 -15.167 -129.833 -37.5 -193.5s-52.5 -122.834 -90.5 -177.501s-82.833 -102.834 -134.5 -144.501s-108.167 -73.167 -169.5 -94.5zM335.003 620.005
c-14.667 -2.66699 -30.833 -15.832 -48.5 -39.499s-35.834 -53 -54.501 -88s-37 -73.833 -55 -116.5s-34.667 -84.334 -50 -125.001s-28.5 -78.167 -39.5 -112.5s-18.5 -60.833 -22.5 -79.5c24.667 0 51.334 7.16699 80.001 21.5s56 32 82 53s49 43.5 69 67.5
s33 45.667 39 65v3c0 0.666992 0.166992 1.16699 0.5 1.5s0.5 0.833008 0.5 1.5s-0.166992 1.33398 -0.5 2.00098s-0.5 1.33398 -0.5 2.00098v2c-14.667 25.333 -25.667 52.666 -33 81.999s-11 59.166 -11 89.499s3.5 60 10.5 89s18.167 56.167 33.5 81.5zM449.004 647.007
c-34.667 -10.667 -60.666 -28.834 -77.999 -54.501s-28.333 -54.5 -33 -86.5s-4 -65.167 2 -99.5s14.667 -64.833 26 -91.5c70 76.667 106.667 168 110 274c0 5.33301 0.166992 11.333 0.5 18s-0.166992 12.834 -1.5 18.501s-3.83301 10.5 -7.5 14.5
s-9.83398 6.33301 -18.501 7zM346.005 952.007c9.33301 -4.66699 20.498 -14 33.498 -28s25.667 -29.167 38 -45.5s23.333 -32.166 33 -47.499s15.834 -26.333 18.501 -33c-2 -8 -7.83301 -9.66699 -17.5 -5s-21 12.667 -34 24s-26.333 24.666 -40 39.999
s-24.667 29.833 -33 43.5s-13.166 25.5 -14.499 35.5s4 15.333 16 16z" />
    <glyph glyph-name="Oacute" unicode="&#xd3;" horiz-adv-x="493" 
d="M82 -1c-18 0.666992 -31.8301 5.00488 -41.4971 13.0049s-16.5 18.167 -20.5 30.5s-5.83301 26 -5.5 41s1.83301 29.5 4.5 43.5c34 103.333 66.667 190.5 98 261.5s61 129.167 89 174.5s54.167 79.5 78.5 102.5s47.166 38.167 68.499 45.5s40.666 8.16602 57.999 2.49902
s32.833 -14.334 46.5 -26.001s25.167 -24.834 34.5 -39.501s16.666 -27.667 21.999 -39c-2.66699 -65.333 -15.167 -129.833 -37.5 -193.5s-52.5 -122.834 -90.5 -177.501s-82.833 -102.834 -134.5 -144.501s-108.167 -73.167 -169.5 -94.5zM335.003 620.005
c-14.667 -2.66699 -30.833 -15.832 -48.5 -39.499s-35.834 -53 -54.501 -88s-37 -73.833 -55 -116.5s-34.667 -84.334 -50 -125.001s-28.5 -78.167 -39.5 -112.5s-18.5 -60.833 -22.5 -79.5c24.667 0 51.334 7.16699 80.001 21.5s56 32 82 53s49 43.5 69 67.5
s33 45.667 39 65v3c0 0.666992 0.166992 1.16699 0.5 1.5s0.5 0.833008 0.5 1.5s-0.166992 1.33398 -0.5 2.00098s-0.5 1.33398 -0.5 2.00098v2c-14.667 25.333 -25.667 52.666 -33 81.999s-11 59.166 -11 89.499s3.5 60 10.5 89s18.167 56.167 33.5 81.5zM449.004 647.007
c-34.667 -10.667 -60.666 -28.834 -77.999 -54.501s-28.333 -54.5 -33 -86.5s-4 -65.167 2 -99.5s14.667 -64.833 26 -91.5c70 76.667 106.667 168 110 274c0 5.33301 0.166992 11.333 0.5 18s-0.166992 12.834 -1.5 18.501s-3.83301 10.5 -7.5 14.5
s-9.83398 6.33301 -18.501 7zM441.005 932.007c10.667 -0.666992 15.498 -6.00195 14.498 -16.002s-5.5 -22.167 -13.5 -36.5s-18.333 -29.333 -31 -45s-25.167 -29.167 -37.5 -40.5s-23.166 -19.333 -32.499 -24s-14.666 -3 -15.999 5
c2.66699 6.66699 8.5 17.834 17.5 33.501s19.333 31.834 31 48.501s23.667 32.167 36 46.5s22.833 23.833 31.5 28.5z" />
    <glyph glyph-name="Ocircumflex" unicode="&#xd4;" horiz-adv-x="493" 
d="M82 -1c-18 0.666992 -31.8301 5.00488 -41.4971 13.0049s-16.5 18.167 -20.5 30.5s-5.83301 26 -5.5 41s1.83301 29.5 4.5 43.5c34 103.333 66.667 190.5 98 261.5s61 129.167 89 174.5s54.167 79.5 78.5 102.5s47.166 38.167 68.499 45.5s40.666 8.16602 57.999 2.49902
s32.833 -14.334 46.5 -26.001s25.167 -24.834 34.5 -39.501s16.666 -27.667 21.999 -39c-2.66699 -65.333 -15.167 -129.833 -37.5 -193.5s-52.5 -122.834 -90.5 -177.501s-82.833 -102.834 -134.5 -144.501s-108.167 -73.167 -169.5 -94.5zM335.003 620.005
c-14.667 -2.66699 -30.833 -15.832 -48.5 -39.499s-35.834 -53 -54.501 -88s-37 -73.833 -55 -116.5s-34.667 -84.334 -50 -125.001s-28.5 -78.167 -39.5 -112.5s-18.5 -60.833 -22.5 -79.5c24.667 0 51.334 7.16699 80.001 21.5s56 32 82 53s49 43.5 69 67.5
s33 45.667 39 65v3c0 0.666992 0.166992 1.16699 0.5 1.5s0.5 0.833008 0.5 1.5s-0.166992 1.33398 -0.5 2.00098s-0.5 1.33398 -0.5 2.00098v2c-14.667 25.333 -25.667 52.666 -33 81.999s-11 59.166 -11 89.499s3.5 60 10.5 89s18.167 56.167 33.5 81.5zM449.004 647.007
c-34.667 -10.667 -60.666 -28.834 -77.999 -54.501s-28.333 -54.5 -33 -86.5s-4 -65.167 2 -99.5s14.667 -64.833 26 -91.5c70 76.667 106.667 168 110 274c0 5.33301 0.166992 11.333 0.5 18s-0.166992 12.834 -1.5 18.501s-3.83301 10.5 -7.5 14.5
s-9.83398 6.33301 -18.501 7zM235.005 739.007c0 5.33301 3.16992 13.666 9.50293 24.999s14.333 24 24 38s20.5 28.333 32.5 43s23.667 28 35 40s21.833 21.833 31.5 29.5s17.167 11.5 22.5 11.5c15.333 0 32 -7.16699 50 -21.5s34.667 -30.833 50 -49.5
s28.166 -37.5 38.499 -56.5s15.5 -32.833 15.5 -41.5c-0.666992 -14 -4.33398 -20.333 -11.001 -19s-15 7 -25 17s-20.5 22.333 -31.5 37l-31.5 41.5c-10 13 -18.5 23.5 -25.5 31.5s-11.167 10 -12.5 6c-4.66699 0 -7.83398 -0.666992 -9.50098 -2
s-4.16699 -3.66602 -7.5 -6.99902c-14 -6 -26.5 -14.5 -37.5 -25.5s-21.167 -22.667 -30.5 -35s-17.833 -24.333 -25.5 -36s-15 -21.167 -22 -28.5s-13.667 -11.333 -20 -12s-12.833 4 -19.5 14z" />
    <glyph glyph-name="Otilde" unicode="&#xd5;" horiz-adv-x="493" 
d="M82 -1c-18 0.666992 -31.8301 5.00488 -41.4971 13.0049s-16.5 18.167 -20.5 30.5s-5.83301 26 -5.5 41s1.83301 29.5 4.5 43.5c34 103.333 66.667 190.5 98 261.5s61 129.167 89 174.5s54.167 79.5 78.5 102.5s47.166 38.167 68.499 45.5s40.666 8.16602 57.999 2.49902
s32.833 -14.334 46.5 -26.001s25.167 -24.834 34.5 -39.501s16.666 -27.667 21.999 -39c-2.66699 -65.333 -15.167 -129.833 -37.5 -193.5s-52.5 -122.834 -90.5 -177.501s-82.833 -102.834 -134.5 -144.501s-108.167 -73.167 -169.5 -94.5zM335.003 620.005
c-14.667 -2.66699 -30.833 -15.832 -48.5 -39.499s-35.834 -53 -54.501 -88s-37 -73.833 -55 -116.5s-34.667 -84.334 -50 -125.001s-28.5 -78.167 -39.5 -112.5s-18.5 -60.833 -22.5 -79.5c24.667 0 51.334 7.16699 80.001 21.5s56 32 82 53s49 43.5 69 67.5
s33 45.667 39 65v3c0 0.666992 0.166992 1.16699 0.5 1.5s0.5 0.833008 0.5 1.5s-0.166992 1.33398 -0.5 2.00098s-0.5 1.33398 -0.5 2.00098v2c-14.667 25.333 -25.667 52.666 -33 81.999s-11 59.166 -11 89.499s3.5 60 10.5 89s18.167 56.167 33.5 81.5zM449.004 647.007
c-34.667 -10.667 -60.666 -28.834 -77.999 -54.501s-28.333 -54.5 -33 -86.5s-4 -65.167 2 -99.5s14.667 -64.833 26 -91.5c70 76.667 106.667 168 110 274c0 5.33301 0.166992 11.333 0.5 18s-0.166992 12.834 -1.5 18.501s-3.83301 10.5 -7.5 14.5
s-9.83398 6.33301 -18.501 7zM447.005 782.007c-14.667 -1.33301 -27.332 0.329102 -37.999 4.99609s-20.667 11 -30 19s-18.5 16.333 -27.5 25s-18.833 16.334 -29.5 23.001s-23 11.167 -37 13.5s-30.667 0.833008 -50 -4.5c-1.33301 0 -4.5 -0.666992 -9.5 -2l-15.5 -4
l-15.5 -4c-5 -1.33301 -8.16699 -2 -9.5 -2c-5.33301 0 -9 2.33301 -11 7s-3 8.66699 -3 12c0 5.33301 4.5 11.333 13.5 18s19.333 12.834 31 18.501s23.167 10.5 34.5 14.5s19 6 23 6c20 0 37 -4.66699 51 -14s27.333 -19.666 40 -30.999s26.167 -21.666 40.5 -30.999
s32.5 -14 54.5 -14c27.333 0 47.666 3.66699 60.999 11s23 15.5 29 24.5s10 17.167 12 24.5s5.66699 11 11 11c7.33301 0 15 -1 23 -3s12 -8 12 -18c-4.66699 -18.667 -12.167 -34 -22.5 -46s-22.5 -21.667 -36.5 -29s-29.667 -13.333 -47 -18s-35.333 -8.66699 -54 -12z
" />
    <glyph glyph-name="Odieresis" unicode="&#xd6;" horiz-adv-x="493" 
d="M82 -1c-18 0.666992 -31.8301 5.00488 -41.4971 13.0049s-16.5 18.167 -20.5 30.5s-5.83301 26 -5.5 41s1.83301 29.5 4.5 43.5c34 103.333 66.667 190.5 98 261.5s61 129.167 89 174.5s54.167 79.5 78.5 102.5s47.166 38.167 68.499 45.5s40.666 8.16602 57.999 2.49902
s32.833 -14.334 46.5 -26.001s25.167 -24.834 34.5 -39.501s16.666 -27.667 21.999 -39c-2.66699 -65.333 -15.167 -129.833 -37.5 -193.5s-52.5 -122.834 -90.5 -177.501s-82.833 -102.834 -134.5 -144.501s-108.167 -73.167 -169.5 -94.5zM335.003 620.005
c-14.667 -2.66699 -30.833 -15.832 -48.5 -39.499s-35.834 -53 -54.501 -88s-37 -73.833 -55 -116.5s-34.667 -84.334 -50 -125.001s-28.5 -78.167 -39.5 -112.5s-18.5 -60.833 -22.5 -79.5c24.667 0 51.334 7.16699 80.001 21.5s56 32 82 53s49 43.5 69 67.5
s33 45.667 39 65v3c0 0.666992 0.166992 1.16699 0.5 1.5s0.5 0.833008 0.5 1.5s-0.166992 1.33398 -0.5 2.00098s-0.5 1.33398 -0.5 2.00098v2c-14.667 25.333 -25.667 52.666 -33 81.999s-11 59.166 -11 89.499s3.5 60 10.5 89s18.167 56.167 33.5 81.5zM449.004 647.007
c-34.667 -10.667 -60.666 -28.834 -77.999 -54.501s-28.333 -54.5 -33 -86.5s-4 -65.167 2 -99.5s14.667 -64.833 26 -91.5c70 76.667 106.667 168 110 274c0 5.33301 0.166992 11.333 0.5 18s-0.166992 12.834 -1.5 18.501s-3.83301 10.5 -7.5 14.5
s-9.83398 6.33301 -18.501 7zM305.005 781.007c-18 0 -29.167 3 -33.5 9s-4.83301 13 -1.5 21s9.33301 16 18 24s17.667 13.667 27 17s17.5 3.5 24.5 0.5s10.5 -11.167 10.5 -24.5c0 -14 -4 -25.333 -12 -34s-19 -13 -33 -13zM472.005 788.007c-18 0 -29.167 3 -33.5 9
s-4.83301 13 -1.5 21s9.33301 16 18 24s17.667 13.667 27 17s17.5 3.5 24.5 0.5s10.5 -11.167 10.5 -24.5c0 -14 -4 -25.333 -12 -34s-19 -13 -33 -13z" />
    <glyph glyph-name="Oslash" unicode="&#xd8;" horiz-adv-x="493" 
d="M82 -1c-18 0.666992 -31.8301 5.00488 -41.4971 13.0049s-16.5 18.167 -20.5 30.5s-5.83301 26 -5.5 41s1.83301 29.5 4.5 43.5c34 103.333 66.667 190.5 98 261.5s61 129.167 89 174.5s54.167 79.5 78.5 102.5s47.166 38.167 68.499 45.5s40.666 8.16602 57.999 2.49902
s32.833 -14.334 46.5 -26.001s25.167 -24.834 34.5 -39.501s16.666 -27.667 21.999 -39c-2.66699 -65.333 -15.167 -129.833 -37.5 -193.5s-52.5 -122.834 -90.5 -177.501s-82.833 -102.834 -134.5 -144.501s-108.167 -73.167 -169.5 -94.5zM335.003 620.005
c-14.667 -2.66699 -30.833 -15.832 -48.5 -39.499s-35.834 -53 -54.501 -88s-37 -73.833 -55 -116.5s-34.667 -84.334 -50 -125.001s-28.5 -78.167 -39.5 -112.5s-18.5 -60.833 -22.5 -79.5c24.667 0 51.334 7.16699 80.001 21.5s56 32 82 53s49 43.5 69 67.5
s33 45.667 39 65v3c0 0.666992 0.166992 1.16699 0.5 1.5s0.5 0.833008 0.5 1.5s-0.166992 1.33398 -0.5 2.00098s-0.5 1.33398 -0.5 2.00098v2c-14.667 25.333 -25.667 52.666 -33 81.999s-11 59.166 -11 89.499s3.5 60 10.5 89s18.167 56.167 33.5 81.5zM449.004 647.007
c-34.667 -10.667 -60.666 -28.834 -77.999 -54.501s-28.333 -54.5 -33 -86.5s-4 -65.167 2 -99.5s14.667 -64.833 26 -91.5c70 76.667 106.667 168 110 274c0 5.33301 0.166992 11.333 0.5 18s-0.166992 12.834 -1.5 18.501s-3.83301 10.5 -7.5 14.5
s-9.83398 6.33301 -18.501 7zM23.085 9.39453c0 11.6328 1.49707 21.3271 4.48926 29.082c2.99121 7.75488 12.6074 14.7344 28.8486 20.9385l31.4141 50.0205l48.084 75.6123l57.0586 88.4092l57.7012 88.4082l49.3652 75.0312l33.3379 49.4385
c8.54785 13.1836 20.0879 29.6631 34.6201 49.4395c14.5322 19.7754 30.7734 40.3262 48.7246 61.6523c17.9512 21.3271 36.3301 41.6846 55.1357 61.0723s37.1846 35.6738 55.1357 48.8574c1.70996 0.775391 5.12891 1.74512 10.2578 2.9082
s8.54785 1.74414 10.2578 1.74414c0 -11.6318 -5.55664 -28.3057 -16.6689 -50.0205c-11.1123 -21.7139 -25.6445 -45.9482 -43.5957 -72.7031l-59.623 -84.918l-63.4707 -86.6641l-57.0586 -77.9395c-17.5244 -24.04 -30.5605 -43.8154 -39.1084 -59.3262
l-36.5439 -64.5615l-48.7246 -83.1738c-17.5234 -28.6943 -35.6885 -56.2246 -54.4941 -82.5918c-18.8057 -26.3682 -37.1846 -47.6953 -55.1357 -63.9814c-2.56445 -2.32617 -8.12109 -5.42773 -16.6689 -9.30566s-13.6768 -5.81641 -15.3867 -5.81641
c-5.12891 0 -8.97559 1.55078 -11.54 4.65332s-4.27441 6.78613 -5.12891 11.0508c-0.854492 4.26562 -1.28223 8.53125 -1.28223 12.7959v9.8877z" />
    <glyph glyph-name="Ugrave" unicode="&#xd9;" horiz-adv-x="541" 
d="M18 82c0 25.333 3.83496 50.3262 11.502 74.9932s16.834 48.334 27.501 71.001c4.66699 10 11 24.833 19 44.5l26.5 65.5l29.5 74.5l28.5 71.5l23 56.5c6.33301 15.667 10.833 25.834 13.5 30.501c23.333 11.333 38.333 12.333 45 3s7.66699 -25 3 -47
s-13.334 -48.667 -26.001 -80s-26.667 -63.5 -42 -96.5l-45.5 -96l-36.5 -77.5c-17.333 -37.333 -26.833 -64.333 -28.5 -81s3 -24.167 14 -22.5s28.167 11.334 51.5 29.001s51.5 41.667 84.5 72l111.5 107.5l134 136c11.333 14.667 22.333 32.334 33 53.001l31.5 62.5
c10.333 21 20.5 40.667 30.5 59s19.833 32.833 29.5 43.5s19.5 16.167 29.5 16.5s20 -7.5 30 -23.5c-12.667 -36.667 -30.167 -76.167 -52.5 -118.5l-66 -131c-21.667 -45 -40.334 -90.5 -56.001 -136.5s-23.5 -90.667 -23.5 -134c0 -12 3.5 -19.5 10.5 -22.5
s15.5 -4.5 25.5 -4.5s20.5 0.5 31.5 1.5s20.167 -0.166992 27.5 -3.5c-3.33301 -6 -6 -12 -8 -18s-4.16699 -11.667 -6.5 -17s-5.5 -9.66602 -9.5 -12.999s-9.33301 -5 -16 -5c-13.333 -6 -28.333 -5.5 -45 1.5s-31.167 20.667 -43.5 41s-20.833 46.833 -25.5 79.5
s-1.33398 71.667 9.99902 117l-29.5 -27l-44.5 -40.5l-52.5 -47l-52.5 -47l-45 -40.5l-29 -26l-13 -9.5c-6 -4.33301 -12.333 -8.66602 -19 -12.999s-13.5 -8.16602 -20.5 -11.499s-12.833 -5 -17.5 -5c-10.667 0 -19.667 2.66699 -27 8s-13.333 12.166 -18 20.499
s-8 17.333 -10 27s-3 18.834 -3 27.501zM360.002 873.993c9.33301 -4.66699 20.498 -14 33.498 -28s25.667 -29.167 38 -45.5s23.333 -32.166 33 -47.499s15.834 -26.333 18.501 -33c-2 -8 -7.83301 -9.66699 -17.5 -5s-21 12.667 -34 24s-26.333 24.666 -40 39.999
s-24.667 29.833 -33 43.5s-13.166 25.5 -14.499 35.5s4 15.333 16 16z" />
    <glyph glyph-name="Uacute" unicode="&#xda;" horiz-adv-x="541" 
d="M18 82c0 25.333 3.83496 50.3262 11.502 74.9932s16.834 48.334 27.501 71.001c4.66699 10 11 24.833 19 44.5l26.5 65.5l29.5 74.5l28.5 71.5l23 56.5c6.33301 15.667 10.833 25.834 13.5 30.501c23.333 11.333 38.333 12.333 45 3s7.66699 -25 3 -47
s-13.334 -48.667 -26.001 -80s-26.667 -63.5 -42 -96.5l-45.5 -96l-36.5 -77.5c-17.333 -37.333 -26.833 -64.333 -28.5 -81s3 -24.167 14 -22.5s28.167 11.334 51.5 29.001s51.5 41.667 84.5 72l111.5 107.5l134 136c11.333 14.667 22.333 32.334 33 53.001l31.5 62.5
c10.333 21 20.5 40.667 30.5 59s19.833 32.833 29.5 43.5s19.5 16.167 29.5 16.5s20 -7.5 30 -23.5c-12.667 -36.667 -30.167 -76.167 -52.5 -118.5l-66 -131c-21.667 -45 -40.334 -90.5 -56.001 -136.5s-23.5 -90.667 -23.5 -134c0 -12 3.5 -19.5 10.5 -22.5
s15.5 -4.5 25.5 -4.5s20.5 0.5 31.5 1.5s20.167 -0.166992 27.5 -3.5c-3.33301 -6 -6 -12 -8 -18s-4.16699 -11.667 -6.5 -17s-5.5 -9.66602 -9.5 -12.999s-9.33301 -5 -16 -5c-13.333 -6 -28.333 -5.5 -45 1.5s-31.167 20.667 -43.5 41s-20.833 46.833 -25.5 79.5
s-1.33398 71.667 9.99902 117l-29.5 -27l-44.5 -40.5l-52.5 -47l-52.5 -47l-45 -40.5l-29 -26l-13 -9.5c-6 -4.33301 -12.333 -8.66602 -19 -12.999s-13.5 -8.16602 -20.5 -11.499s-12.833 -5 -17.5 -5c-10.667 0 -19.667 2.66699 -27 8s-13.333 12.166 -18 20.499
s-8 17.333 -10 27s-3 18.834 -3 27.501zM503.002 846.993c10.667 -0.666992 15.498 -6.00195 14.498 -16.002s-5.5 -22.167 -13.5 -36.5s-18.333 -29.333 -31 -45s-25.167 -29.167 -37.5 -40.5s-23.166 -19.333 -32.499 -24s-14.666 -3 -15.999 5
c2.66699 6.66699 8.5 17.834 17.5 33.501s19.333 31.834 31 48.501s23.667 32.167 36 46.5s22.833 23.833 31.5 28.5z" />
    <glyph glyph-name="Ucircumflex" unicode="&#xdb;" horiz-adv-x="541" 
d="M18 82c0 25.333 3.83496 50.3262 11.502 74.9932s16.834 48.334 27.501 71.001c4.66699 10 11 24.833 19 44.5l26.5 65.5l29.5 74.5l28.5 71.5l23 56.5c6.33301 15.667 10.833 25.834 13.5 30.501c23.333 11.333 38.333 12.333 45 3s7.66699 -25 3 -47
s-13.334 -48.667 -26.001 -80s-26.667 -63.5 -42 -96.5l-45.5 -96l-36.5 -77.5c-17.333 -37.333 -26.833 -64.333 -28.5 -81s3 -24.167 14 -22.5s28.167 11.334 51.5 29.001s51.5 41.667 84.5 72l111.5 107.5l134 136c11.333 14.667 22.333 32.334 33 53.001l31.5 62.5
c10.333 21 20.5 40.667 30.5 59s19.833 32.833 29.5 43.5s19.5 16.167 29.5 16.5s20 -7.5 30 -23.5c-12.667 -36.667 -30.167 -76.167 -52.5 -118.5l-66 -131c-21.667 -45 -40.334 -90.5 -56.001 -136.5s-23.5 -90.667 -23.5 -134c0 -12 3.5 -19.5 10.5 -22.5
s15.5 -4.5 25.5 -4.5s20.5 0.5 31.5 1.5s20.167 -0.166992 27.5 -3.5c-3.33301 -6 -6 -12 -8 -18s-4.16699 -11.667 -6.5 -17s-5.5 -9.66602 -9.5 -12.999s-9.33301 -5 -16 -5c-13.333 -6 -28.333 -5.5 -45 1.5s-31.167 20.667 -43.5 41s-20.833 46.833 -25.5 79.5
s-1.33398 71.667 9.99902 117l-29.5 -27l-44.5 -40.5l-52.5 -47l-52.5 -47l-45 -40.5l-29 -26l-13 -9.5c-6 -4.33301 -12.333 -8.66602 -19 -12.999s-13.5 -8.16602 -20.5 -11.499s-12.833 -5 -17.5 -5c-10.667 0 -19.667 2.66699 -27 8s-13.333 12.166 -18 20.499
s-8 17.333 -10 27s-3 18.834 -3 27.501zM261.002 690.993c0 5.33301 3.16992 13.666 9.50293 24.999s14.333 24 24 38s20.5 28.333 32.5 43s23.667 28 35 40s21.833 21.833 31.5 29.5s17.167 11.5 22.5 11.5c15.333 0 32 -7.16699 50 -21.5s34.667 -30.833 50 -49.5
s28.166 -37.5 38.499 -56.5s15.5 -32.833 15.5 -41.5c-0.666992 -14 -4.33398 -20.333 -11.001 -19s-15 7 -25 17s-20.5 22.333 -31.5 37l-31.5 41.5c-10 13 -18.5 23.5 -25.5 31.5s-11.167 10 -12.5 6c-4.66699 0 -7.83398 -0.666992 -9.50098 -2
s-4.16699 -3.66602 -7.5 -6.99902c-14 -6 -26.5 -14.5 -37.5 -25.5s-21.167 -22.667 -30.5 -35s-17.833 -24.333 -25.5 -36s-15 -21.167 -22 -28.5s-13.667 -11.333 -20 -12s-12.833 4 -19.5 14z" />
    <glyph glyph-name="Udieresis" unicode="&#xdc;" horiz-adv-x="541" 
d="M18 82c0 25.333 3.83496 50.3262 11.502 74.9932s16.834 48.334 27.501 71.001c4.66699 10 11 24.833 19 44.5l26.5 65.5l29.5 74.5l28.5 71.5l23 56.5c6.33301 15.667 10.833 25.834 13.5 30.501c23.333 11.333 38.333 12.333 45 3s7.66699 -25 3 -47
s-13.334 -48.667 -26.001 -80s-26.667 -63.5 -42 -96.5l-45.5 -96l-36.5 -77.5c-17.333 -37.333 -26.833 -64.333 -28.5 -81s3 -24.167 14 -22.5s28.167 11.334 51.5 29.001s51.5 41.667 84.5 72l111.5 107.5l134 136c11.333 14.667 22.333 32.334 33 53.001l31.5 62.5
c10.333 21 20.5 40.667 30.5 59s19.833 32.833 29.5 43.5s19.5 16.167 29.5 16.5s20 -7.5 30 -23.5c-12.667 -36.667 -30.167 -76.167 -52.5 -118.5l-66 -131c-21.667 -45 -40.334 -90.5 -56.001 -136.5s-23.5 -90.667 -23.5 -134c0 -12 3.5 -19.5 10.5 -22.5
s15.5 -4.5 25.5 -4.5s20.5 0.5 31.5 1.5s20.167 -0.166992 27.5 -3.5c-3.33301 -6 -6 -12 -8 -18s-4.16699 -11.667 -6.5 -17s-5.5 -9.66602 -9.5 -12.999s-9.33301 -5 -16 -5c-13.333 -6 -28.333 -5.5 -45 1.5s-31.167 20.667 -43.5 41s-20.833 46.833 -25.5 79.5
s-1.33398 71.667 9.99902 117l-29.5 -27l-44.5 -40.5l-52.5 -47l-52.5 -47l-45 -40.5l-29 -26l-13 -9.5c-6 -4.33301 -12.333 -8.66602 -19 -12.999s-13.5 -8.16602 -20.5 -11.499s-12.833 -5 -17.5 -5c-10.667 0 -19.667 2.66699 -27 8s-13.333 12.166 -18 20.499
s-8 17.333 -10 27s-3 18.834 -3 27.501zM332.002 668.993c-18 0 -29.167 3 -33.5 9s-4.83301 13 -1.5 21s9.33301 16 18 24s17.667 13.667 27 17s17.5 3.5 24.5 0.5s10.5 -11.167 10.5 -24.5c0 -14 -4 -25.333 -12 -34s-19 -13 -33 -13zM499.002 675.993
c-18 0 -29.167 3 -33.5 9s-4.83301 13 -1.5 21s9.33301 16 18 24s17.667 13.667 27 17s17.5 3.5 24.5 0.5s10.5 -11.167 10.5 -24.5c0 -14 -4 -25.333 -12 -34s-19 -13 -33 -13z" />
    </font>
</defs>
</svg>
